<?xml version="1.0" standalone="no"?>
<!DOCTYPE svg PUBLIC "-//W3C//DTD SVG 1.1//EN" "http://www.w3.org/Graphics/SVG/1.1/DTD/svg11.dtd" >
<svg xmlns="http://www.w3.org/2000/svg">
<metadata></metadata>
<defs>
<font id="cactus_sandwich_fill_fmRg" horiz-adv-x="1024" >
<font-face units-per-em="2048" ascent="1638" descent="-410" />
<missing-glyph horiz-adv-x="500" />
<glyph horiz-adv-x="2048" />
<glyph horiz-adv-x="2048" />
<glyph unicode="&#xd;" />
<glyph unicode=" " />
<glyph unicode="!" horiz-adv-x="669" d="M34 1318q-3 57 49 109t94 42v14q-1 16 -1 33q0 73 32 115q29 38 73 38q53 1 91 -51q42 -57 42 -155q0 -80 -13 -202q-18 -174 -21 -202q31 19 31 57q0 13 -5 45.5t-4 48.5q9 104 78 102q60 -1 71 -57q4 -51 5 -102q10 -94 10 -101q0 -83 -91 -117q-75 -28 -98 -66 q7 -56 15 -160q0 -51 -9.5 -111.5t-3.5 -100.5q6 -50 13 -101q7 -63 -29 -102q-32 -34 -82 -35q-44 0 -76 30t-35 85q-1 42 13 124.5t13 123.5q-7 315 -7 281q0 28 -2 92q-1 75 -3 98q-66 23 -107.5 87.5t-42.5 137.5zM126 -54q0 69 54 131t130 62q135 0 136 -110 q1 -82 -50.5 -134t-158.5 -50q-111 1 -111 101z" />
<glyph unicode="#" horiz-adv-x="1645" />
<glyph unicode="$" horiz-adv-x="555" />
<glyph unicode="%" horiz-adv-x="2782" />
<glyph unicode="&#x26;" horiz-adv-x="4246" />
<glyph unicode="'" horiz-adv-x="555" d="M28 935q0 35 60 80q56 39 92.5 117.5t36.5 151.5q0 13 -4 39t-4 39q0 60 57 72q20 3 51 -11t47 -32q43 -50 43 -142q0 -138 -69 -240q-101 -149 -199 -155q-41 -3 -76 22t-35 59z" />
<glyph unicode="(" horiz-adv-x="779" />
<glyph unicode=")" horiz-adv-x="665" />
<glyph unicode="*" horiz-adv-x="1774" />
<glyph unicode="," horiz-adv-x="315" d="M-57 -113q9 92 104 93q18 0 50.5 -7t48.5 -7q41 0 66 49q9 18 9 42q0 20 -7.5 65t-5.5 65q3 57 66 69q37 6 64 -9q51 -28 58 -171q7 -111 -14 -156q-38 -80 -117 -124.5t-171 -42.5q-162 3 -151 134z" />
<glyph unicode="." horiz-adv-x="507" d="M82 113q3 67 54 125q57 61 130 62q95 0 125 -60q20 -41 4 -102q-31 -133 -202 -132q-116 1 -111 107z" />
<glyph unicode="0" horiz-adv-x="1040" d="M25 474q1 312 130 500q158 231 354 231q45 0 89 -11q19 -10 59 -25q1 1 1 3q1 18 -14.5 74t-15.5 81q0 29 18 54t47 25q89 3 126 -89q29 -75 29 -177q0 -113 -62 -151q25 -44 65 -135q73 -200 74 -402q0 -133 -33 -241q-48 -159 -164.5 -243.5t-271.5 -81.5 q-138 1 -235 73q-197 140 -196 515zM214 462q0 -196 83 -322q34 -50 60 -49q32 0 32 68q0 20 -14 98t-14 115q0 42 14 57.5t35 15.5q25 0 51 -19q44 -35 44 -196q0 -92 -13 -126q-4 -12 5 -22t27 -9q149 13 219 184q41 104 41 236q0 196 -82 389q-64 149 -174 143 q-130 -6 -222 -185.5t-92 -377.5z" />
<glyph unicode="1" horiz-adv-x="743" d="M94 1084q-3 53 43 102.5t88 49.5q7 0 13 -1q0 4 -1 14q-1 16 -1 32q0 73 32 116q29 38 73 38q53 1 91 -51q42 -57 42 -155q0 -136 -32 -492q29 19 29 57q0 13 -5 45.5t-4 48.5q9 104 78 102q53 -1 67 -44q6 -17 10 -86q1 -50 2 -69q0 -135 -84 -177q-45 -22 -54 -27 q-32 -19 -45 -41q1 -38 9 -118.5t8 -121.5q0 -44 -5 -81q12 7 27 8q92 3 97 -134q1 -47 -10 -81q-25 -73 -81.5 -92.5t-113.5 -36.5q-20 -9 -39 -9q-39 1 -67 35t-31 79q-1 45 13 131.5t13 130.5q-12 478 -12 603q-66 23 -107.5 87.5t-42.5 137.5z" />
<glyph unicode="2" horiz-adv-x="1100" d="M22 102q0 12 31 155q15 67 14 123q0 83 28 176q32 105 86 165q108 118 223 119q16 0 45 -2.5t44 -2.5q59 0 110 113q-19 -4 -40 -4q-29 0 -78 16t-71 16q-41 0 -82.5 -33t-59.5 -70q-63 -130 -120 -121q-104 15 -104 234q0 48 6 110q16 161 108 166q51 3 71 -45 q15 -35 11 -92q83 75 161 75q50 0 138 -31q31 -12 63 -12t81 14t66 14q19 0 34 -9q60 -32 60 -105t-53 -158q-16 -25 -99 -141q-32 -51 -63 -101q-44 -63 -92 -62q-22 0 -53.5 2t-43.5 2q-54 0 -104 -40q-82 -64 -82 -235q0 -50 27 -154q15 -64 111 -64q19 0 60 3q35 3 51 1 q20 -1 67 -13t68 -12q56 0 73 63q-10 -1 -19 -1q-59 0 -104 99q-15 31 -15 100q0 111 46 111q7 0 14 -3q23 -9 38 -80t30 -71q3 0 5.5 1.5t2.5 7.5q0 7 -10 48t-10 71q0 31 10 55q25 57 79 57q16 0 31 -10q29 -19 45 -74q-4 38 8 67q16 37 52 29q44 -7 66 -88 q19 -65 13 -112q-10 -78 -35 -141q-39 -97 -94 -93q-6 -136 -48 -180t-183 -44q-132 0 -295 16q-231 22 -274 63q-47 44 -45 112z" />
<glyph unicode="3" horiz-adv-x="1123" d="M28 316q3 118 77 116q45 -3 97.5 -50t47.5 -81q-10 -69 26 -133q42 -76 189 -76q95 0 149 34q-111 12 -109 121q1 102 74 106q48 1 53 -40q-1 -20 -2 -44q25 -26 49 -13q9 4 6 60q-3 47 -8 63q-25 83 -63 121q-32 31 -125 75q-28 12 -56 23q-26 18 -26 47q0 10 3 22 q9 39 74 64q-23 31 -14 112q15 157 109 161q66 3 66 -62q0 -18 -6.5 -55t-6.5 -50q0 -25 15 -25t39 31q20 26 28 39q26 67 28 158q3 113 -62 114q-205 7 -304 -107q-45 -51 -60 -61q-32 -25 -86 -29t-75 20q-18 20 -19 75q-3 78 16 152q23 98 72 124q37 20 76 24 q53 3 72 -30q10 -15 0 -51q117 83 299 87q139 3 202 -62q98 -102 92 -281q-9 -238 -247 -360q154 -85 158 -270q18 41 63 41q32 1 54 -24q32 -35 31 -99q-1 -92 -56 -144q-50 -45 -101 -45q-12 0 -23 3q-72 -189 -415 -196q-275 -6 -373 228q-29 70 -28 167z" />
<glyph unicode="4" horiz-adv-x="1088" d="M28 595q0 25 16 155q6 44 3 128q-3 89 1 128q9 99 53 141t91 42q42 0 68.5 -35t18.5 -91q-9 -66 -8 -117l1 2q37 18 38 77q0 72 21 97q31 38 74 38q45 1 53 -47q7 -38 1 -109q-7 -76 -22 -104q-28 -50 -92 -73q-75 -26 -82 -34q0 -32 -8.5 -90t-8.5 -80q0 -44 23 -66 q32 -29 116 -29q114 0 213 53q1 114 69 286l2 2q-10 -1 -19 -2q-59 0 -103 56q-41 51 -41 110q-1 57 41 79q10 6 22 4q42 -1 51 -41q0 -19 8 -54q23 -26 43 -20q1 10 -11 40.5t-12 51.5q0 25 15 48q28 42 85 44q85 3 117 -86q-4 23 1 43q12 47 59 44q44 -1 67 -38 q28 -42 28 -101q0 -37 -11 -87q-9 -42 -41 -71.5t-74 -29.5q-13 0 -28 3q-15 -44 -35 -133q-34 -256 -54 -374q-37 -192 -94 -359q10 1 22 0q76 -6 78 -104q1 -56 -21 -100q-35 -67 -97 -74.5t-122 -14.5q-15 -4 -28 -4q-42 0 -68.5 35t-22.5 80q4 47 24 116q16 57 33 114 q57 233 70 333q-95 -44 -209 -43q-102 1 -187 37t-102 88q-25 70 -25 136z" />
<glyph unicode="5" horiz-adv-x="1132" d="M20 398q0 110 46 183q23 37 51 36q51 0 51 -82q0 -13 -3 -27q26 76 81 76q78 0 77 -114q0 -54 -17 -98q-10 -29 -5 -40l3 -1q19 -1 39 78.5t49 79.5q50 0 48 -98q-1 -79 -36 -150q-38 -78 -92 -77q-13 0 -25 4q9 -45 27 -60.5t69 -12.5q23 1 73 9q45 6 63 6 q42 -7 129 -15q79 0 97 62q13 44 10 166q-3 151 -135 256q-44 35 -146 43q-4 1 -164 3q-66 1 -82 13q-20 15 -20 52q0 28 12.5 79.5t12.5 61.5q4 53 -7.5 152.5t-8.5 148.5q9 127 95 128q31 -1 71 -18q61 -23 95 -23q20 0 56.5 13.5t71.5 18.5q18 1 35 1q97 0 180 -92 q0 152 90 140q97 -14 98 -200q1 -91 -19 -209q-22 -127 -105 -135q-57 -4 -110 139q-15 41 -52 78q-44 44 -87 44q-19 0 -63.5 -12.5t-69.5 -12.5q-34 0 -64 13v-4v-78q1 -63 14 -66q48 -4 145 -14q146 -18 259 -173q104 -143 110 -296q0 -15 29 -269q13 -116 -48 -169 q-54 -48 -388 -49q-132 0 -215 6q-91 7 -133 28q-63 31 -76 104q-6 38 -4 126q-47 0 -85 99q-26 67 -27 148z" />
<glyph unicode="6" horiz-adv-x="1067" d="M25 287q0 66 25 180q19 89 39 178q53 272 138 404q127 193 342 284q32 15 70 13q41 0 73 -21q39 -23 40 -61q0 -37 -56 -66q10 0 22 -1q76 -10 73 -87q-3 -95 -77 -149q-47 -35 -111 -36q-61 -1 -114 23q-37 16 -66 12q-72 -12 -92 -147l3 2q98 41 197 39 q195 -3 310 -127q110 -119 113 -303q1 -48 -6 -98q-45 -326 -304 -404q-83 -26 -188 -24q-230 0 -330.5 111.5t-100.5 277.5zM244 281q0 -75 24 -120q28 -57 80 -79q39 -15 122 -19q114 -3 192 67t94 187q11 72 11 116q0 117 -77 195q-72 73 -169 73q-120 0 -195 -114 q-82 -124 -82 -306zM506 1099q13 0 47.5 -8t47.5 -8q19 0 22 13q5 26 21 73q-45 -19 -110 -50q-16 -10 -28 -20z" />
<glyph unicode="7" horiz-adv-x="1072" d="M25 1090q0 26 3 68.5t3 54.5q1 72 29 99t99 27q86 0 87 -87q0 -12 -2 -23q102 48 250 52q139 3 235 -38q154 -67 153 -272q0 -72 -23 -197q-16 -79 -34 -199q12 -10 25 -10q10 0 35.5 10t40.5 10q66 0 67 -79q0 -45 -30 -80q-35 -38 -93 -38q-31 0 -64 11 q-7 -66 -44 -204q9 10 31 8q83 -3 86 -121q0 -56 -17 -98q-29 -72 -87 -87t-115 -29q-18 -6 -34 -6q-42 0 -69 37t-27 83q1 51 24 141q25 97 30 140q6 72 29 182q-180 38 -202 142q-15 67 -10 131q7 129 92 129q51 0 75 -29q15 -16 16 -43q3 -22 -4.5 -61.5t-7.5 -47.5 q0 -13 4 -18q29 -29 75 -31q6 35 12 90q0 7 16 106q12 75 11 123q-1 126 -86 155q-53 18 -126 19q-64 1 -111 -11q-54 -15 -129 -113q-41 -53 -93 -53q-20 0 -48 6q-72 16 -72 151z" />
<glyph unicode="8" horiz-adv-x="1198" d="M26 151q1 60 30 107.5t71 47.5q48 1 62 -43q25 120 68 171.5t141 93.5q-26 16 -92 83q-98 99 -98 245q0 51 14 101q13 37 37 114q26 102 124 148q83 39 199 32q98 -7 167 -32q85 -29 118 -30q57 0 58 59q0 10 -8 52q-12 88 2 110q26 39 68 40q29 0 82 -30q39 -23 50 -79 q3 -16 4 -96q6 -214 -147 -233q0 -85 -3 -193q-10 -139 -141 -234l-7 -4q44 -16 110 -87q91 -97 90 -267q0 -252 -190 -354q-130 -67 -275 -68q-341 0 -384 189q-9 -1 -19 -1q-50 0 -94 46q-37 41 -37 112zM331 152q-4 -15 13 -19q18 -4 28 9q4 3 24 64q16 42 47 37 q47 -7 47 -84q0 -59 -29 -102q-34 -51 -91 -51q-10 0 -20 1q38 -79 219 -71q116 4 194.5 77t84.5 189q3 79 -25.5 128.5t-99.5 99.5q-20 15 -53 15q-47 0 -129 -32q-50 -18 -99 -37q-50 -23 -78 -70q-20 -32 -23 -76q-6 -61 -10 -78zM388 853q0 -70 18 -120t47 -48 q19 0 20 48q0 10 -7.5 45t-7.5 53q0 60 66 60q86 0 86 -110q-1 -56 -12 -105q-6 -25 27 -26q37 0 61 17q127 92 124 227q-1 117 -60 150q-99 56 -228 49q-67 -3 -104 -81q-31 -66 -30 -159z" />
<glyph unicode="9" d="M31 641q0 53 6 108q18 154 88 238.5t217 128.5q91 28 174 28q167 0 270 -113q134 -149 133 -437q0 -127 -49 -316q-50 -195 -111 -288q-121 -186 -308 -265q-44 -19 -110 -16q-101 1 -113 57q-10 39 57 75l100 46q91 54 127 95q42 56 83 110q54 67 66 148l-3 -2 q-102 -44 -216 -42q-146 0 -247 72q-159 113 -164 373zM211 676q-6 -316 247 -323q80 -3 143 39t82 121q6 26 -19.5 26.5t-79 21t-75.5 37.5q-45 35 -45 155q0 107 54 107q44 0 44 -47q0 -18 -5.5 -52t-6.5 -40q0 -41 42 -70q37 -25 78 -25q44 0 44 59q0 85 -35 171 q-51 126 -201 121q-94 -3 -168 -58q-79 -60 -92 -152q-7 -47 -7 -91z" />
<glyph unicode=":" horiz-adv-x="310" d="M80 -47q-4 69 51.5 135t131.5 66q97 0 126 -60q20 -41 5 -104q-32 -132 -204 -130q-105 1 -110 93zM83 440q-3 69 52 131q56 67 131 67q97 0 126 -60q19 -41 4 -104q-32 -132 -203 -130q-107 1 -110 96z" />
<glyph unicode=";" horiz-adv-x="605" d="M18 -230q7 92 102 92q18 0 50.5 -6.5t48.5 -6.5q41 0 66 49q9 18 9 42q0 20 -7.5 61t-7.5 60q0 64 68 78q37 6 64 -9q57 -31 60 -193q3 -97 -16 -134q-38 -80 -117 -124.5t-171 -42.5q-161 3 -149 134zM157 445q3 67 54 127q57 63 130 63q95 0 124 -60q21 -41 6 -104 q-32 -132 -203 -130q-113 1 -111 104z" />
<glyph unicode="?" horiz-adv-x="747" />
<glyph unicode="@" horiz-adv-x="1423" d="M28 512q0 149 90 319q89 165 213 254q233 168 479 169q114 0 242 -57l10 -5q9 37 29 37q25 0 46 -37q78 -139 131 -306q47 -140 47 -286q0 -215 -235 -285q-116 -35 -214 -36q-51 0 -72 49q-123 -94 -240 -94q-88 0 -142 47.5t-54 133.5q0 102 93 187.5t194 85.5 q25 0 43 -8q-6 29 -6 50q0 85 76 95q25 3 41 -12q-22 48 -73 57q-19 3 -44 3q-67 0 -87 -77q-9 -32 -46.5 -54t-77.5 -22q-37 -1 -57 18.5t-25 85.5q-4 59 6 101q-181 -202 -183 -401q-1 -127 19 -196q31 -104 119 -152q32 -18 87 -18q15 0 84 9t93 9q13 0 21 -2 q35 -13 16 -50h38q130 0 230 54q51 28 130 100t140 60q41 -7 40 -43q-1 -53 -91.5 -134t-182.5 -116q-130 -50 -313 -49q-614 0 -614 516zM451 980q12 4 23 5q41 0 57 -34q57 51 167 51q243 0 266 -241q1 -25 1 -94q0 -130 -24 -231h3q44 -3 106 19t81 75q9 29 9 108 q0 193 -63 342q-70 162 -246 164q-192 3 -380 -164zM508 420q0 -51 77 -48q51 3 119 52t79 97q-1 1 8 35q-42 -6 -73 38q-15 -34 -60 -41q-63 -12 -106.5 -53.5t-43.5 -79.5z" />
<glyph unicode="A" horiz-adv-x="1201" d="M31 121q0 154 130 287t282 135q51 1 79 -23q28 -23 27 -68q0 -85 -100 -105q-82 -18 -151 -95q-19 -22 -34 -66q-14 -41 -14 -63q0 -90 123 -90q10 0 21 1q92 4 208 89.5t135 170.5q7 26 21 79q-18 -6 -35 -6q-75 0 -119 108q-33 81 -33 164q0 84 30 111q45 38 89 38 q34 0 56 -24t29 -57v10q0 88 -66 145q-43 36 -149 36h-6q-51 0 -95 -29t-57 -76q-4 -28 -32 -85q-47 -56 -175 -63h-8q-103 0 -107 143q0 26 2 69q3 50 4 59q1 88 75 126q23 12 47 11q29 0 58 -20.5t28 -49.5q56 61 190 91q51 10 98 10q304 0 397 -255q35 -98 35 -289 q0 -151 -38 -375q23 44 61 44q72 0 73 -104q0 -18 -3 -35q-18 -130 -146 -152q-63 -10 -98 -10q-39 0 -71.5 25.5t-41.5 65.5q-206 -167 -408 -167q-140 0 -224 73q-88 76 -87 216z" />
<glyph unicode="B" horiz-adv-x="1070" d="M31 16q0 18 4 35q15 47 15 179q0 69 7 178q12 149 13 180q3 64 3 367q0 83 -20 348v11q0 56 38 92q35 31 89 33h12q51 0 73 -23q26 -31 26 -120q0 -1 -6 -152q23 10 27 26q0 1 -6 41q-4 32 -5 49q0 64 62 76q13 3 25 3q80 0 80 -128q0 -51 -13 -117q-18 -85 -167 -139 q0 -44 -1 -92v-73q35 18 115 48q77 24 152 24h11q177 -4 288.5 -137t111.5 -333q0 -331 -260 -451q-91 -42 -212 -42q-35 0 -96 9.5t-91 9.5q-38 0 -72 -10q-51 -16 -79 -16q-50 0 -87 37t-37 87zM347 161q38 -63 101 -63q75 0 105 6q39 9 83 41q107 77 107 212 q0 136 -36 205q-50 92 -175 96h-8q-209 0 -209 -374q0 -70 32 -123z" />
<glyph unicode="C" horiz-adv-x="1293" d="M32 329q0 234 142 420q72 94 192 171q135 85 244 88h4q76 0 138 -38q-6 37 1.5 59.5t36.5 38.5t53 16q28 0 79.5 -30.5t51.5 -89.5q0 -15 -3 -31q-10 -48 -10 -90q0 -40 9 -74q6 -26 6 -45q0 -63 -91 -70h-6q-65 0 -143 80q-81 82 -133 82h-2q-32 -1 -67 -23 q-129 -76 -190 -149q-80 -98 -81 -224q0 -149 52 -256q67 -140 203 -141q162 0 275 90q45 35 45 96q-1 89 -16 119q-20 44 -20 82v7q3 45 32 74.5t69 29.5h2q52 0 85 -44q49 -65 49 -193v-5q-1 -189 -84 -278q-101 -110 -219 -155q-108 -41 -269 -41q-209 0 -328 164 q-107 145 -107 360z" />
<glyph unicode="D" horiz-adv-x="1179" d="M31 319q0 187 114.5 306.5t302.5 120.5h12q153 0 261 -72q16 -12 50 -30q4 48 16 161q-99 18 -143 80q-20 32 -21 76q0 51 38 152q31 80 95 81h2q37 0 64 -32q13 98 73 121q13 4 25 4q35 0 62 -48q19 -41 39 -82q20 -33 20 -68q0 -15 -4 -31q-34 -135 -36 -270 q-13 -104 -36 -368q-4 -159 -27 -476l3 6q25 56 68 57h2q31 0 55 -30q24 -31 24 -85q0 -17 -3 -35q-7 -48 -37 -91q-34 -48 -76 -59q-23 -1 -68 -10q-66 -23 -99 -23q-124 0 -124 93q0 29 13 66q-63 -18 -197 -36h-7q-163 0 -303 131q-158 148 -158 391zM256 328 q1 -89 47.5 -173.5t115 -117.5t127.5 -36h13q67 0 88 30q36 47 42 108q8 73 8 130q0 87 -18 138q-16 47 -90 92t-143 48h-9q-79 0 -131 -67q-50 -66 -50 -152z" />
<glyph unicode="E" horiz-adv-x="1199" d="M29 376v18q0 202 130 392q67 98 192 174q133 82 247 82q187 0 308 -281q35 -82 35 -125q0 -69 -81 -106q-171 -78 -303 -78q-67 0 -98 16q-53 26 -52 113q0 120 67 120q9 0 20 -3q34 -10 57 -69h2q17 0 73 12q56 13 78 22q16 7 16 25q0 54 -43 102q-42 49 -94 49 q-6 0 -11 -1q-80 -7 -176 -99q-53 -53 -90 -157q-35 -98 -35 -180q0 -162 64 -244q92 -117 284 -117q94 0 149 85q-10 -3 -20 -3q-57 0 -87 51q-47 83 -47 126q0 88 57 88h1q43 0 59 -68q7 -28 30 -57q7 -4 14 2q1 12 -11 44.5t-12 54.5q0 25 15 50q25 39 71 44h7 q48 0 77 -48q26 -42 29 -110q2 8 2 20q0 18 -5 47q-4 22 -4 38.5t4 26.5q20 42 57 43q34 0 61 -33q36 -42 36 -124q0 -76 -31 -123q-62 -91 -115 -91q-6 0 -11 1q-70 -245 -368 -245h-2q-228 0 -391 131q-149 123 -155 385z" />
<glyph unicode="F" horiz-adv-x="1097" d="M26 370v7q0 87 71 87q20 0 43 -12q23 -11 41 -11q19 0 31 12v59q0 7 -9 69q-9 67 -11 99q-2 34 -2 67q0 130 29 230q85 294 441 294q199 0 284 -112q71 -99 71 -299q0 -135 -109 -164q-30 -8 -55 -8q-34 0 -60 14q-35 18 -35 70q0 37 20.5 111t20.5 90q0 101 -172 101 q-53 0 -91 -21q-117 -63 -130 -207q-6 -70 -6 -138v-20q1 -20 3 -55v-37v-30.5v-31.5q0 -19 1 -32q90 0 90 56q0 19 -7 61t-5 63q1 69 71 83q15 3 30 3q89 0 95 -135v-8q0 -65 -16 -150q-28 -127 -220 -168q13 -73 21 -210q9 -145 17 -210q18 31 35 63q25 34 59 34 q10 0 20 -3q72 -16 71 -91q-3 -99 -79 -142q-95 -53 -239 -54h-6q-104 0 -171 32q-79 39 -79 114q0 66 84 80q10 2 19 2q57 0 96 -64l3 -7q-7 79 -54 408q-41 -16 -80 -16q-57 0 -90 33q-38 38 -41 94z" />
<glyph unicode="G" horiz-adv-x="1089" d="M37 193q0 167 162 230q-67 83 -67 212q0 53 11 99q13 37 35 113q23 98 116 143q68 34 160 34q14 0 29 -1q76 -6 203 -47q35 -12 60 -12q56 0 56 51q0 14 -7 57t-7 66q0 28 9 40q23 39 65 39q26 0 63.5 -19.5t50.5 -44.5t14 -113v-21q0 -63 -5 -96q-25 -120 -132 -135 q0 -82 -3 -187q-9 -123 -113 -199q-25 -31 -80 -89q-59 -47 -148 -47q-63 0 -154 24h-9q-91 0 -91 -59q0 -48 60 -48q45 0 158 39q132 45 209 46q113 0 216 -114q87 -95 87 -262q0 -246 -180 -345q-121 -67 -258 -68q-320 0 -361 185l-18 -2q-37 0 -69.5 28.5t-42.5 65.5 q-8 34 -8 67v7q0 73 43 116q25 25 57 23q55 -4 55 -54q0 -5 -1 -10q25 57 76 57q13 0 29 -3q70 -18 70 -92q0 -25 -8 -60l-2 -4q19 -3 41 17q0 28 25 72q16 12 34 11q32 0 47.5 -28.5t15.5 -60.5q-1 -51 -37.5 -92t-90.5 -44q42 -31 117 -31q149 0 207 82q48 72 48 148 q0 116 -78 168q-20 13 -51 14q-37 0 -96 -24q-44 -16 -88 -34q-98 -32 -183 -33h-4q-44 0 -97 19q-61 20 -89 55q-51 64 -51 151zM342 666q26 42 73 42q91 0 119 -51q16 -31 16 -103q0 -15 -1 -32q0 -18 -5 -41q3 1 62 54q48 42 48 134q0 72 -14 93q-12 19 -72 43 q-50 21 -117 21q-11 0 -22 -1q-35 -1 -58.5 -48.5t-28.5 -110.5z" />
<glyph unicode="H" horiz-adv-x="1143" d="M29 -12q-1 37 20 67t56 30q31 0 60 -37q-21 103 -21 330q0 45 1 95q3 178 3 428q0 60 -10 151l-15 150q-1 7 -1 13q0 56 48 100t114 54q5 1 10 1q64 0 64 -124q0 -17 3 -73q4 -61 5 -99l3 1q39 23 39 79q0 18 -6 56.5t-6 56.5q0 63 59 74q12 3 22 3q66 0 82 -105 q12 -78 12 -123q-1 -123 -74 -155q-37 -16 -73 -32q-42 -20 -60 -51q3 -44 8 -128l4 3q28 15 88 40q66 20 133 20q123 0 205 -65q116 -94 115 -237q0 -221 1 -221l1 10q-3 -121 -24 -209q23 44 65 44q38 0 60 -38q17 -29 17 -77q0 -62 -39 -116q-40 -56 -95 -68 q-70 -14 -121 -14h-7q-48 0 -84 35t-36 84q0 16 5 33q22 72 28 185q4 95 8 191q1 20 2 39q0 184 -122 189h-4q-87 0 -155 -146q-37 -76 -37 -249q0 -161 30 -256q6 -20 4 -40q-3 -102 -164 -106q-59 0 -99 17q-50 22 -86 78.5t-36 111.5z" />
<glyph unicode="I" horiz-adv-x="770" d="M26 380q3 83 69 84q20 0 45 -12q24 -12 41 -12q19 0 31 15q2 15 2 34q0 60 -25 152q-18 66 -18 99v6q3 64 116 107q26 10 47 10h1q74 0 76 -126q0 -29 -3 -77.5t-3 -58.5q0 -28 8 -101q26 1 49 15q29 16 27 41q-9 38 -18 114q0 79 80 95q20 4 39 4h1q83 0 86 -134v-31 q0 -94 -16 -140q-28 -82 -118 -123q-54 -23 -101 -34q12 -61 20 -218q4 -56 18 -205q25 29 50 60q31 34 64 34q12 0 22 -4q57 -15 57 -81q0 -32 -18 -58q-102 -142 -339 -144q-86 0 -149 25q-88 35 -88 107q0 44 31 75q29 26 70 29h8q66 0 97 -65q0 1 -25 179 q-18 120 -26 216q-36 -14 -72 -14h-5q-57 0 -90 33q-42 44 -41 104zM180 1184q54 62 129 61q95 0 124 -59q11 -22 11 -52q0 -23 -7 -51q-31 -132 -198 -132h-3q-112 1 -112 102q0 68 56 131z" />
<glyph unicode="J" horiz-adv-x="842" d="M-225 -385q0 162 99 186q10 3 24 3q69 0 112 -50q23 -28 24 -73q0 -34 -18.5 -102t-18.5 -91q0 -101 173 -101q53 0 92 21q130 70 130 235q0 38 -12 142q-18 133 -38 402q-11 -1 -22 -1q-178 0 -234 142q-29 78 -29 156q0 79 31 106q44 38 88 39q35 0 57 -24t24 -55v-64 q-1 -14 -1 -28q0 -29 4 -60q21 -16 52 -16q16 0 35 4q-3 63 -16 123q-16 66 -16 69v10q0 37 25 56q27 20 66 20h7q48 -1 84 -26q39 -29 43 -75q0 -4 -6 -96q-1 -16 -1 -29q0 -45 10 -66q9 -19 23 -19q20 0 31 23q22 45 76 47h6q48 0 66 -44q10 -26 10 -57q0 -70 -51 -110 q-44 -36 -112 -36h-4q-18 0 -35 1q16 -104 39 -338q4 -53 4 -105q0 -126 -21 -249q-23 -148 -160 -231q-118 -75 -276 -75q-173 0 -263 94q-101 105 -101 342zM257 851q0 64 48 109q46 44 105 44h5q31 0 91 -31q82 -40 82 -129q0 -56 -34 -96q-37 -45 -92 -46q-67 0 -131 40 q-73 45 -74 109z" />
<glyph unicode="K" horiz-adv-x="1183" d="M56 1078q28 70 77 70q15 0 25 -4q0 4 -3 44q-1 7 -1 13q0 54 46 91q42 35 101 36h4q44 0 67 -24q24 -25 24 -109q0 -108 -7 -234q-3 -69 -16 -205q-13 -127 -13 -139q0 -15 4 -23h3q29 0 136 64q113 68 127 104q12 29 15 63q1 22 0 60q-3 47 -3 63q1 66 63 67h2 q46 0 84 -36q44 -42 46 -109q1 -13 1 -26q0 -136 -60 -209q-29 -38 -188 -151q88 -41 212 -206q60 -78 131 -205q13 -23 25 -26q13 20 25 41q22 36 55 36h2q39 0 63 -26q14 -16 15 -42q0 -4 -11 -72q-10 -78 -34 -105.5t-97 -39.5q-51 -7 -109 -7q-111 0 -149 149 q-28 107 -96 218q-82 135 -163 158l-7 -6q-60 -57 -61 -145v-4q0 -60 30.5 -164.5t30.5 -139.5v-2q-1 -79 -114 -79q-98 0 -177 47q-92 56 -94 146v7q0 84 68 84q35 0 60 -23q-22 124 -30 533l-1 41q0 40 1 119q-131 42 -131 194q0 58 22 113z" />
<glyph unicode="L" horiz-adv-x="669" d="M34 1084v6q0 50 43 98q46 50 88 50q7 0 13 -2q-3 34 -2 45q0 73 32 115q28 38 71 39h2q52 0 91 -50q42 -59 42 -156q0 -136 -32 -492q29 19 29 57q0 13 -5 45.5t-4 48.5q9 102 75 102h3q60 -1 71 -57q3 -51 5 -102q10 -93 10 -102q0 -82 -91 -116q-76 -28 -99 -67 q1 -38 10 -117t9 -120q0 -44 -7 -84q12 7 27 8h4q90 0 93 -135q0 -45 -10 -80q-25 -73 -81.5 -92.5t-113.5 -36.5q-20 -9 -41 -9q-39 1 -66 35.5t-30 78.5v6q0 45 13 125.5t13 124.5v6q-12 478 -12 603q-66 23 -107.5 87.5t-42.5 137.5z" />
<glyph unicode="M" horiz-adv-x="1555" d="M26 2q0 61 52 87q9 4 20 5q28 0 56 -27q-16 97 -18 221v28q0 76 4 197q6 157 6 223q0 57 -10 145q-13 123 -15 143v9q1 55 45 97q48 46 110 53q5 1 9 1q63 0 63 -123q0 -12 3 -65q4 -59 6 -93v1q38 22 37 78q-6 35 -11 102q0 61 57 73q10 3 21 3q63 0 79 -102 q9 -60 9 -103v-4q0 -117 -56 -155q37 7 73 7q167 0 241 -104q16 18 96 53q57 19 117 19q127 0 216 -78q95 -82 105 -218q8 -100 7 -183q0 -116 -14 -203q22 19 67 19h5q64 -1 64 -75v-2q-1 -37 -16 -70q-25 -53 -87 -88t-121 -35q-70 0 -115.5 34t-45.5 94q0 28 11 60 q26 82 33 310v10q0 61 -11 113q-16 69 -104 87q-22 4 -41 4q-75 0 -89 -94q1 -13 1 -32q0 -50 -6 -139v-11q0 -62 -10 -169q31 39 66 40q61 0 64 -84q0 -34 -14 -71q-45 -121 -179 -122q-189 0 -195 117v4q0 30 15 58q32 55 32 176v21q0 18 4 72t4 85q0 171 -115 175h-3 q-81 0 -146 -137q-36 -73 -36 -229v-8q0 -140 29 -212q7 -20 7 -41q0 -66 -80 -103q-58 -24 -121 -24h-18q-63 4 -110 60.5t-47 119.5z" />
<glyph unicode="N" horiz-adv-x="1157" d="M29 -7q0 54 41 71q28 12 49 12q25 0 42 -17q-15 107 -21 245q-2 45 -2 121q0 113 5 295q1 14 1 29q0 39 -6 79q-3 12 -3 23q0 85 118 135q35 15 59 15q28 0 41 -21q12 -21 12 -89q0 -21 -1 -47q99 69 240 69q142 0 230 -70q121 -98 121 -392q0 -59 -4 -138 q-1 -73 -16 -216q23 33 62 33h8q66 -4 66 -73q0 -66 -56.5 -134.5t-120.5 -71.5q-23 -1 -44 -1q-174 0 -179 97v2q-1 28 25 91q26 65 28 95v2q0 45 -41 68q-37 18 -72 33q-39 20 -54 56q-13 31 -13 111q1 159 51 189q19 12 41 12q72 -1 73 -72q0 -16 -5 -52.5t-5 -55.5 q0 -50 31 -75q3 35 3 67q0 132 -44 207q-33 55 -99 55h-2q-145 -3 -189 -148q-22 -72 -23 -260v-19q0 -212 22 -285q10 -34 7 -60q-7 -101 -168 -101q-94 0 -143 39q-65 54 -65 147z" />
<glyph unicode="O" horiz-adv-x="1063" d="M186 799q164 200 406 212h10q60 0 140 -32q28 -12 41 0q3 12 -5 58q-9 56 -9 78q0 26 8 39q25 39 64 40q28 0 64.5 -20.5t49.5 -42.5q15 -28 16 -114v-28q0 -59 -7 -91q-18 -86 -75 -108q72 -177 72 -354q0 -162 -66 -291q-79 -154 -224 -190q-110 -28 -171 -28 q-469 0 -469 432q0 249 155 440zM269 364q0 -127 54 -199q5 17 5 54q0 25 -2 60q-2 23 -2 41q0 46 11 62q29 47 91 48h7q88 0 108 -76q9 -37 9 -92q0 -99 -26 -148q120 3 194 122q65 102 65 231q0 135 -35 237q-39 112 -132 112h-2q-121 -1 -223 -140q-121 -162 -122 -312z " />
<glyph unicode="P" horiz-adv-x="1120" d="M28 734q0 42 26 91q29 57 69 60q29 1 48 -20q12 -15 15 -37q2 12 2 29t-2 41q-4 28 -10 57q-6 31 4 62q21 60 92 60h9q89 -4 117 -69q13 -29 13 -138v-30q95 51 244 51q170 0 271 -138q89 -124 92 -302v-14q0 -142 -60 -250q-28 -51 -111 -121q-99 -83 -237 -86h-3 q-115 0 -213 65q-6 -50 -12 -133q0 -3 -10 -364q19 29 57 29q22 0 39 -13q42 -29 43 -132q0 -76 -49 -121q-29 -29 -117 -70q-73 -35 -112 -35q-89 0 -90 136q0 37 12 112t12 113q0 12 9 158q10 154 10 253v21q0 76 -6 177q-6 133 -7 153q0 -9 5 187h-8q-58 0 -101 81 q-41 73 -41 137zM399 394h2h1q24 0 28 58q6 94 10 110q15 58 68 58h4q76 -1 76 -98q0 -9 -1 -20q-9 -123 -12 -133q-16 -76 -72 -101q-15 -6 -44 -18q3 -34 41 -58.5t81 -24.5q57 0 120 41.5t93 95.5q27 46 27 128q0 264 -194 264h-1q-50 0 -121 -33t-100 -68 q-4 -98 -6 -201z" />
<glyph unicode="Q" horiz-adv-x="1113" d="M35 531q4 142 100 269q91 120 266 120q151 0 246 -51q-1 18 -2 31q0 108 13 137q32 72 117 72q75 0 94 -56q14 -46 14 -102q0 -18 -1 -37h7q39 0 81 -60q47 -66 47 -120q0 -82 -22 -120q-16 -28 -49 -48q-33 -22 -60 -22h-7q9 -198 10 -198v2q-1 -102 -1 -200t1 -190v-11 q0 -61 -7 -383q12 18 37 22q8 1 15 1q66 0 84 -102q5 -33 5 -60v-9q-4 -83 -81 -125q-35 -20 -151 -50q-19 -4 -35 -5q-96 1 -96 140q0 16 1 33q13 177 12 189q1 86 1 343q0 45 -1 137q-86 -54 -205 -55q-157 0 -259 87q-113 94 -146 181q-28 72 -28 212v28zM237 519v-12 q0 -87 41 -160q72 -123 202 -123q111 0 117 55q-45 25 -59 36q-29 20 -44 54q-33 78 -33 131q0 51 23 88q28 42 73 42q34 0 56 -22.5t16 -57.5q-3 -23 -7.5 -40.5t-4.5 -20.5q0 -7 21 -46q7 -11 23 -20q6 36 6 74q0 60 -15 126q-28 35 -99.5 69t-122.5 34q-94 0 -146 -63 q-45 -56 -47 -144z" />
<glyph unicode="R" horiz-adv-x="1092" d="M22 57v8q0 19 4 36q15 50 76 50q86 0 90 -73v-15q0 -22 10 -2q3 170 20 508q12 165 18 247v13q0 29 -3 82q-7 80 -7 106q0 45 30 74q30 30 74 32h4l54 -11q97 -44 97 -107q0 -13 -6 -55t-6 -72q0 -13 1 -40q116 95 199 97q51 0 97 -32q-4 34 3 56.5t36.5 38.5t52.5 16 q28 0 80 -32q35 -20 47 -85q2 -9 8 -107q2 -21 2 -41q0 -169 -118 -183q-6 -1 -12 -1q-57 1 -119 77q-66 82 -89 81h-2q-79 -10 -169 -116q-37 -53 -65 -345q-18 -187 -18 -183q0 -19 3 -26q9 6 12 35t23.5 41.5t44.5 12.5q35 -1 62.5 -30.5t27.5 -70.5q0 -53 -42 -100.5 t-94 -56.5q-14 -2 -32 -2t-40 2q-61 4 -73 5q-86 1 -98 3q-54 4 -94 25q-80 45 -89 140z" />
<glyph unicode="S" horiz-adv-x="1167" d="M23 319q1 80 47 136q25 31 57 32q28 1 48 -22t17 -58q-4 -29 -9 -60q-4 -34 6 -57q4 183 111 183h10q92 -7 92 -109q0 -41 -19 -80q-7 -16 -4 -25q18 -16 39 10q12 13 28 70q13 47 40 55q7 1 13 1q54 0 54 -94v-7q0 -127 -91 -171q-30 -14 -57 -14q-15 0 -29 4 q26 -60 77 -78q30 -11 86 -11q13 0 27 1q120 6 173.5 47t81.5 149q7 31 7 63q0 154 -104 212q-65 36 -138 36h-4q-18 0 -58 -2t-66 -2q-322 0 -322 272q0 104 78 167q35 28 163 86q75 35 176 35q61 0 129 -49q-1 12 -1 23q0 41 17 67q24 38 79 38h3q45 -3 85 -35 q55 -43 55 -189v-5q0 -61 -9 -117q-18 -101 -98 -122q51 -25 100 -63q69 -54 111 -152q37 -84 37 -162q0 -140 -31 -227q-41 -110 -146.5 -181.5t-296.5 -71.5q-358 0 -395 244q-6 -1 -12 -1q-52 0 -108 79q-48 69 -49 155zM394 756q1 -6 2 -10q10 -6 122 -6q19 0 57 1.5 t57 1.5q33 0 67 -6q-34 42 -66 85q-37 41 -91 41h-8q-141 -6 -141 -91q0 -8 1 -16z" />
<glyph unicode="T" horiz-adv-x="896" d="M26 559q1 96 72 96h1q25 0 51.5 -17.5t44.5 -17.5q16 0 27 12q10 41 11 105q0 92 -18 193q-16 97 -16 141q0 139 114 139h2q69 0 112 -68q33 -52 33 -107q0 -7 -1 -15q0 -16 -25 -214q-4 -41 -8 -159q31 -19 52 -19q15 0 25 8q4 12 5 31q0 20 -7 73.5t-7 81.5q0 57 24 81 q31 30 91 30h4q96 0 96 -96q0 -21 -2 -49q-19 -190 -25 -210q-34 -107 -145 -142q-18 -5 -38 -5q-31 0 -67 12q0 -44 -6 -177q-3 -73 -2 -128v-49q4 -78 31 -167q4 -15 39 -14q47 0 81 26q35 26 35 70q0 8 -1 18q-7 51 -8 57q0 35 57 72q31 19 63 19h9q80 -6 80 -100 q0 -39 -16 -105q-28 -117 -121.5 -191.5t-213.5 -74.5q-41 0 -82 8q-130 32 -153 236q-14 130 -14 252q0 38 1 76q3 59 8 162q-26 -7 -55 -7q-67 0 -105 44q-32 37 -33 89z" />
<glyph unicode="U" horiz-adv-x="1252" d="M23 762q0 79 44 133q26 32 57 32q61 0 62 -79q0 -7 -8 -54q-6 -32 3 -52q6 200 8 200q-6 29 -12 60q-2 12 -2 24q0 20 6 40q20 63 98 63q98 -1 129 -73q13 -30 13 -70q0 -10 -1 -21q21 31 51 31h2q29 -1 52.5 -28t24.5 -64v-7q0 -120 -94 -154q-22 -7 -45 -13 q-7 -6 -7 -44q0 -28 5 -82.5t5 -82.5q0 -44 1 -87v-57q0 -26 -2.5 -77t-2.5 -75q0 -86 35 -127q45 -51 161 -51q167 0 232.5 68t65.5 236q0 99 -44 193q-59 123 -70 173q-18 -4 -34 -5q-59 0 -95 62q-32 51 -33 117v22q0 152 95 165q37 4 53 -23q14 -23 15 -51q0 -5 -1 -11 q0 -9 -3 -23q32 106 122 106q6 0 13 -1q93 -9 93 -105q0 -43 -17 -79q-7 -13 -2 -24q18 -6 46 25q1 6 5 47q3 31 16 43q19 16 40 14q41 0 57 -44q6 -18 6 -42v-7q-1 -63 -43 -119q-44 -61 -105 -61q-13 0 -28 4q25 -37 73 -120q54 -113 55 -263q0 -200 -87 -341 q-104 -168 -412 -168q-121 0 -234 42q-135 51 -182 142q-35 67 -35 215q0 138 6 184q6 56 6 123h-5q-51 0 -105 75q-47 64 -47 146z" />
<glyph unicode="V" horiz-adv-x="1043" d="M34 900q-1 9 -1 17q0 57 36 100q57 67 131 70h5q49 0 60 -56q4 -18 4 -66q0 -92 10 -158l2 2q34 20 34 72q0 18 -4.5 52t-6.5 47v6q0 63 57 76q10 1 21 1q63 0 79 -100q10 -68 10 -112v-14q-4 -121 -86 -157q-32 -10 -76 -41q20 -89 80 -228q34 -76 66 -187 q50 88 146 263q44 76 87 152q53 101 60 164q2 10 2 21q0 33 -14 71q-15 44 -31 88q-4 13 -4 26q0 63 78 63h2q98 -3 133 -105q25 -72 31 -164q1 -9 1 -18q0 -97 -70 -210q-124 -208 -145 -255q-42 -101 -86 -202q-51 -116 -99.5 -194.5t-119.5 -80.5h-2q-77 0 -95 74 q-9 35 -148 424q-127 358 -147 559z" />
<glyph unicode="W" horiz-adv-x="1514" d="M32 900q-1 9 -1 17q0 57 36 100q50 59 119 64h10q57 0 69 -63q3 -13 3 -53q0 -92 10 -158l1 2q34 20 34 72q0 18 -5 55t-5 53q0 61 57 73q10 1 20 1q63 0 78 -100q12 -78 12 -125q-4 -123 -87 -158q-32 -10 -76 -41q19 -89 81 -228q34 -76 65 -187q50 88 147 263 q44 79 44 198q0 60 -12 140q-16 104 -16 105l-2 46q0 182 118 182q7 0 14 -1q89 -7 89 -113q0 -31 -10 -57q-9 -20 -9 -27q19 -6 43 23q6 32 10 63q9 38 53 38q58 -1 58 -81v-5q-1 -48 -26 -96.5t-63 -67.5q-29 -13 -55 -13q-13 0 -24 3q12 -101 94 -311q70 -181 128 -288 q32 111 65 186q42 94 52 146q-19 -1 -38 -1q-37 1 -70 28q-58 47 -58 155q0 46 10 115q15 99 79 103h2q32 1 54 -27q24 -28 23 -76q0 -12 -2 -23q-6 -48 -6 -69q0 -59 30 -66q10 66 10 161q0 53 28.5 94.5t79.5 41.5q129 -1 129 -169q0 -152 -104 -452q-79 -228 -158 -455 q-9 -31 -38 -53q-28 -21 -60 -21h-3q-69 4 -129 100q-19 31 -76 156q-29 61 -112 252q0 -1 -92 -216q-56 -130 -105 -209.5t-119 -82.5h-2q-76 0 -96 74q-32 111 -125 362q-85 233 -118 365q-44 165 -53 256z" />
<glyph unicode="X" horiz-adv-x="1215" d="M-16 20q45 35 91 72q26 20 45 37q-83 18 -83 165v7v25q1 18 1 28q0 54 40 91q35 34 80 35h6q69 0 70 -66q0 6 -17 -79q-4 -19 7 -42q13 -28 36 -33q61 64 177 198q-113 113 -216 243q-34 42 -50 54q-69 51 -76 110v8q0 45 39 83q43 42 96 48q7 1 13 1q56 0 74 -54 q7 -26 30 -84q35 6 35 40q-6 32 -13 95q1 67 74 69h1q63 0 75 -116q2 -21 2 -39q0 -43 -10 -72q-23 -64 -93 -88q45 -44 129 -139q59 57 173 189q41 47 41 67q0 22 -10.5 73.5t-10.5 77.5q0 45 22 71.5t56 26.5q63 -1 92 -56q15 -28 17 -82t14 -74q9 13 1 47q-7 44 -7 61 q3 57 73 65h7q65 0 68 -132v-16q0 -119 -58 -155q-4 -3 -77 -21q-63 -15 -124 -104q-70 -102 -158 -191q70 -48 83 -60q32 -28 73 -82q51 -69 98 -198q10 -31 37 -64q7 0 16.5 30.5t15.5 36.5q28 32 73 35h2q36 0 52 -32q11 -20 11 -51q0 -7 -1 -15q-4 -104 -52 -149 q-67 -64 -208 -64q-79 0 -123 104l-70 210q-50 129 -135 166q-15 -15 -42 -56q-61 -89 -256 -303q35 20 60 19q56 -3 58 -64v-6q0 -53 -48 -107q-57 -63 -146 -64h-5q-42 0 -80 16q-145 66 -145 154q0 54 50 100z" />
<glyph unicode="Y" horiz-adv-x="1003" d="M-195 -410q3 57 29.5 101t64.5 46q63 0 64 -56q25 47 75 47q95 -1 98 -89q0 -28 -10 -71q28 -4 42 19q7 25 15 52q13 34 47 32q37 -1 51 -47q7 -25 4 -54q48 97 66 165q7 32 19 100q-7 25 -158 368q-64 148 -99 248q-69 195 -71 304q0 69 27 102q35 44 86 44 q104 -1 111 -132q3 -70 15 -121q23 10 23 52q0 11 -1 23q-2 23 -2 42q0 42 11 60q25 45 68 45h2q45 0 64 -49q25 -67 25 -173q0 -70 -32 -105q-18 -20 -59.5 -36.5t-50.5 -32.5q20 -70 72 -181q60 -132 77 -179q236 380 248 533v8q0 40 -28 101q-31 68 -27 84q9 52 67 52h8 q94 -3 130 -89q43 -100 43 -208q0 -47 -18 -83q-37 -72 -105 -250q-61 -161 -110 -247q-23 -39 -63 -125l-76 -240q-42 -130 -98 -232q-39 -72 -121 -116.5t-169 -44.5q-181 0 -215 172q-9 -1 -17 -1q-47 0 -88 47q-34 39 -34 104v11z" />
<glyph unicode="Z" horiz-adv-x="1313" d="M37 38v9q0 57 73 134q61 60 124 119q23 26 124 149q75 92 135 141q98 73 285 232q-19 -3 -42 -3q-58 0 -138 19q-19 4 -48 9h-12q-52 0 -109 -29q-56 -31 -81 -66q-73 -108 -138 -108h-4q-113 3 -128 166q-2 26 -2 53q0 46 6 97q12 88 51.5 119t93.5 31q64 0 82 -54 q6 -21 6 -45q0 -14 -2 -29q104 71 211 71h3q61 0 147 -20q70 -18 113 -18q29 0 127 16q38 6 67 6h8q113 -6 113 -123q0 -57 -66 -131q-4 -4 -113 -109q-35 -34 -136 -105q-91 -63 -132 -110q-42 -51 -136 -150q-150 -137 -150 -181q0 -11 7 -15q24 -12 108 -12h13l130 1h-2 q19 0 90 -19.5t100 -19.5q42 0 55 48q-18 -6 -33 -6q-69 0 -126 90q-22 34 -22 87q0 93 45 109q19 6 41 -12l31 -72q23 -52 50 -52q4 0 7 1q3 6 -7 34q-12 35 -16 55q-1 10 -1 19q0 31 15 56q26 44 78 48h8q46 0 83 -45q20 -28 32 -89q-3 28 -6 80q1 66 60 67h2q36 0 61 -30 q47 -57 47 -137v-13q-9 -151 -119 -209q-22 -12 -42 -10v-13q0 -188 -177 -192h-10q-31 0 -71 5q-69 18 -281 38q-107 0 -215 1q-171 6 -205 28q-59 39 -62 89z" />
<glyph unicode="[" horiz-adv-x="789" />
<glyph unicode="]" horiz-adv-x="784" />
<glyph unicode="a" horiz-adv-x="961" d="M25 97q0 123 104 229.5t225 107.5q41 0 63.5 -18t21.5 -56q-3 -67 -79 -84q-66 -13 -122 -74q-38 -44 -38 -97v-10q6 -69 105 -69h11q72 4 165.5 72.5t108.5 137.5q6 20 16 62q-15 -4 -28 -4q-60 0 -95 86q-26 66 -27 135q0 64 25 85q34 30 70 30h2q26 0 43.5 -19 t23.5 -46v10q0 69 -52 114q-35 29 -125 29q-98 0 -121 -83q-3 -22 -27 -69q-37 -44 -138 -50h-8q-81 0 -85 114q0 22 2 56q3 39 3 47q1 70 60 99q19 10 36 11q25 0 48 -16.5t23 -39.5q44 48 152 72q37 8 70 8h7q244 0 318 -203q27 -76 27 -222v-10q0 -120 -29 -300 q18 35 48 35q58 0 59 -82q0 -15 -2 -29q-15 -104 -117 -122q-51 -7 -79 -7q-75 0 -90 72q-165 -133 -326 -134q-111 0 -180 60t-69 172z" />
<glyph unicode="b" horiz-adv-x="857" d="M25 13q0 13 3 28q11 35 11 127v16q0 56 6 144q10 118 11 142q3 51 3 294q0 67 -17 279v12q0 90 101 96h11q40 1 58 -19q21 -22 21 -95q0 -1 -5 -121q19 7 21 20q0 1 -5 32q-2 15 -2 28q0 63 48 73l20 2q64 0 64 -103q0 -41 -10 -93q-15 -67 -134 -110v-75v-58 q28 13 92 38q64 19 124 19h6q140 -3 230 -109t90 -267q0 -263 -209 -360q-70 -33 -163 -33h-6q-26 0 -75.5 7t-74.5 7q-29 0 -57 -7q-41 -13 -63 -13q-39 0 -69 29t-30 70zM252 225q0 -54 26 -96q29 -50 80 -50q99 0 151 37q86 62 86 169q0 236 -169 242h-7 q-167 0 -167 -302z" />
<glyph unicode="c" horiz-adv-x="1034" d="M26 263q0 187 113 335q57 76 154 138q108 67 196 70h4q59 0 108 -31q-4 29 2 49q13 43 68 43h3q22 0 64 -24.5t42 -70.5q0 -12 -3 -24q-9 -41 -9 -76q0 -31 7 -58q4 -19 5 -35q0 -51 -72 -55h-6q-52 0 -114 63q-65 65 -105 65h-2q-26 -1 -54 -17q-216 -129 -216 -297 q0 -122 41 -208q54 -111 162 -111q130 0 221 70q35 29 35 78q0 72 -12 96q-16 32 -16 62v9q3 80 81 83h2q40 0 68 -35q38 -52 38 -153v-5q-1 -151 -67 -223q-144 -156 -388 -156h-3q-167 0 -262 130q-85 116 -85 288z" />
<glyph unicode="d" horiz-adv-x="943" d="M25 255q0 151 91.5 245.5t241.5 96.5h4q126 0 216 -57q12 -9 39 -25q3 38 12 129q-79 15 -114 64q-18 25 -18 61q0 39 33 120q25 66 76 66q31 0 52 -26q10 79 57 96q12 4 21 5q28 0 50 -40l30 -64q16 -26 16 -54q0 -12 -3 -25q-26 -108 -29 -217q-10 -82 -28 -294 q-3 -127 -22 -381l2 6q20 45 55 45h1q63 0 64 -92q0 -47 -25 -91q-27 -48 -69 -57q-18 -1 -54 -9q-50 -17 -74 -17h-3q-101 0 -101 74q0 23 11 53q-51 -13 -158 -29h-7q-129 0 -241 105q-126 118 -126 312zM205 262q1 -70 37.5 -138t91.5 -94.5t102 -28.5h13q52 0 69 22 q27 40 33 88q6 58 6 103q0 70 -14 112q-13 37 -71.5 73.5t-114.5 37.5h-9q-61 0 -104 -52q-39 -53 -39 -123z" />
<glyph unicode="e" horiz-adv-x="959" d="M23 301v12q0 162 104 315q54 79 154 140q107 66 197 66q151 0 246 -225q28 -66 29 -98q0 -57 -65 -87q-136 -63 -243 -63q-53 0 -78 13q-41 20 -41 91q0 95 53 95q7 0 16 -3q28 -7 47 -54q6 -1 13 -1q38 0 107 28q15 6 14 20q0 44 -35 82q-33 40 -74 40q-5 0 -9 -1 q-64 -6 -141 -80q-42 -42 -73 -126q-28 -78 -27 -143q0 -130 51 -195q74 -93 223 -93h3q76 0 120 67q-11 -2 -21 -2q-42 0 -63 41q-38 66 -38 100q0 70 45 70h1q34 0 47 -53q6 -23 24 -46q6 -3 11 1q1 9 -9 35.5t-10 43.5q0 20 12 40q19 32 58 35h7q36 0 59 -38 q20 -34 24 -88q4 16 -3 54q-6 35 1 51q16 34 46 35q26 0 48 -26q28 -35 28 -100q0 -61 -25 -97q-49 -75 -92 -75q-4 0 -8 1q-56 -196 -295 -196q-184 0 -313 106q-120 99 -125 308z" />
<glyph unicode="f" horiz-adv-x="877" d="M22 295v9q0 67 54 68q18 0 37 -11q39 -19 57 2v47q0 6 -7.5 57t-8.5 77q-1 27 -1 52q0 106 23 187q67 234 352 234q186 0 247 -125q38 -74 38 -204q0 -108 -89 -131q-24 -6 -44 -6q-27 0 -47 11q-29 13 -29 55q0 31 17 89.5t17 71.5q0 80 -138 81q-42 0 -73 -16 q-94 -50 -104 -167q-5 -48 -5 -95q0 -16 1 -32q0 -16 1.5 -40.5t1.5 -31.5t-2 -25v-25q0 -16 2 -26q72 1 72 47q0 13 -5.5 46.5t-5.5 51.5q3 56 57 65q13 3 24 3q73 0 76 -108v-17q0 -48 -13 -109q-20 -102 -174 -134q7 -113 30 -337q15 25 28 52q19 26 47 26q7 0 16 -2 q56 -13 56 -71q0 -80 -63 -116q-76 -41 -191 -42h-6q-84 0 -135 25q-63 31 -63 92q0 51 66 63q7 1 14 1q47 0 78 -51l3 -4q-6 63 -44 324q-32 -13 -65 -13q-45 0 -70 28q-31 31 -32 74z" />
<glyph unicode="g" horiz-adv-x="871" d="M29 155q0 133 130 183q-54 67 -54 170q0 42 11 80q10 29 27 89q34 142 207 142q17 0 36 -1q60 -4 164 -38q26 -9 47 -9q45 0 44 42q-3 34 -8 66q-2 17 -2 30q0 23 7 33q19 32 51 32q22 0 51 -16t40 -36.5t13 -89.5v-15q0 -52 -6 -78q-19 -97 -105 -107q0 -67 -2 -151 q-7 -99 -90 -159q-19 -25 -65 -70q-47 -38 -118 -40q-50 0 -122 21h-3q-79 0 -79 -49q0 -38 49 -38q37 0 125 31q107 37 169 37q91 0 172 -91q69 -76 69 -209q0 -197 -143 -277q-97 -54 -207 -54q-256 0 -288 148l-14 -2q-29 0 -55.5 23t-34 53t-7.5 59q1 59 34 92 q20 20 46 19q43 -3 43 -44v-7q20 45 61 45q12 0 24 -3q55 -13 55 -69q0 -22 -6 -52l-1 -3q15 -3 32 15q0 22 21 57q17 12 31 12q21 0 35 -25q12 -23 11 -50q-1 -41 -30.5 -73.5t-71.5 -34.5q34 -25 93 -25q120 0 166 65q38 57 38 119q0 92 -62 135q-16 10 -41 10 q-29 0 -77 -18q-35 -15 -70 -28q-79 -25 -147 -27h-3q-100 0 -149 60q-41 53 -41 121zM274 532q22 34 58 34q73 0 95 -42q13 -22 13 -77q0 -13 -1 -29q0 -15 -3 -33q1 1 50 42q38 34 38 107q0 60 -12 76q-10 15 -58 34q-39 17 -90 17q-11 0 -22 -1q-60 -3 -68 -128z" />
<glyph unicode="h" horiz-adv-x="915" d="M23 -7q0 58 50 74q6 2 11 2q24 0 48 -31q-17 82 -17 263q0 36 1 76q2 107 2 247v96v-3q-2 0 -20 246v9q0 46 38 80q38 37 92 44h7q52 0 52 -103q0 -10 3 -54q3 -50 3 -79h2q31 18 31 63q0 15 -4.5 45.5t-4.5 45.5q0 50 47 60q10 1 18 1q53 0 64 -85q10 -61 10 -98 q-1 -98 -58 -124q-29 -12 -59 -25q-34 -16 -48 -41q3 -35 6 -101l4 2q22 12 69 30q53 18 107 18q98 0 164 -53q92 -75 92 -190q0 -260 -18 -336q19 35 53 36q31 0 48 -30q12 -22 13 -59v-3q-1 -48 -31 -92q-32 -44 -77 -54q-59 -12 -101 -12q-38 0 -67 28t-29 67q0 13 4 27 q18 57 22 149q4 76 7 152q2 21 2 40q0 138 -98 141h-3q-68 0 -124 -117q-29 -61 -30 -199q0 -129 24 -205q4 -16 4 -32q-3 -82 -132 -85q-48 0 -80 14q-39 18 -68 63t-29 92z" />
<glyph unicode="i" horiz-adv-x="617" d="M22 304q1 66 54 68q18 0 37 -11q39 -19 57 3q2 12 2 28q0 47 -21 120q-15 56 -15 82q0 53 94 88q20 9 36 8h1q59 0 62 -100q0 -23 -3 -61.5t-3 -47.5q0 -23 8 -80q61 1 61 37q0 3 -1 7q-6 31 -14 90q-1 63 63 76q18 4 33 5q67 0 70 -108q0 -6 1 -11q0 -87 -16 -127 q-22 -66 -95 -96q-42 -19 -79 -28q9 -50 16 -174q3 -45 15 -166q19 25 38 49q26 28 52 27q61 0 63 -65q1 -28 -14 -49q-82 -114 -271 -114q-190 0 -190 106q0 77 80 81h6q53 0 79 -51q0 1 -20 142q-13 97 -21 174q-31 -13 -61 -13q-47 0 -72 28q-32 32 -32 76v7zM144 947 q44 49 103 49q76 0 100 -48q9 -18 9 -42q0 -18 -5 -40q-26 -105 -157 -105h-5q-90 1 -90 81q0 55 45 105z" />
<glyph unicode="j" horiz-adv-x="674" d="M-180 -361q0 149 98 149q56 0 91 -40q19 -22 19 -57q0 -28 -15.5 -82t-15.5 -73q0 -80 138 -80q44 0 74 16q104 56 104 189q0 31 -9 112q-15 107 -30 324q-16 -3 -31 -3q-129 0 -174 115q-23 61 -24 125q0 63 25 84q35 29 70 31q28 0 46.5 -19t19.5 -45v-50v-16 q0 -23 2 -48q18 -14 44 -14q12 0 26 3q-3 50 -14.5 97.5t-11.5 50.5q-4 35 19 52.5t60 16.5q97 -1 101 -81l-3 -74q-1 -12 -1 -21q0 -33 8 -49q10 -19 23 -19q12 0 19 13q16 37 60 38h6q40 0 54 -35q9 -21 9 -46q0 -117 -133 -117q-15 0 -31 2q13 -83 35 -271q3 -39 3 -78 q0 -101 -17 -204q-20 -120 -129 -189q-95 -61 -221 -61q-138 0 -213 79q-80 85 -81 275zM206 628q0 51 38 88q36 34 83 34h5q25 -1 73 -24q66 -31 66 -104q0 -45 -28 -78q-28 -36 -71 -36h-2q-54 0 -105 32q-59 35 -59 88z" />
<glyph unicode="k" horiz-adv-x="946" d="M26 774q0 45 18 88q23 57 61 57q13 0 21 -5q0 4 -2 35v9q0 45 35 75q35 29 82 29h4q34 0 52 -18q19 -20 19 -87q0 -88 -4 -188q-3 -56 -14 -165q-12 -101 -11 -110q0 -13 4 -19h3q25 -1 109 51q90 56 100 84q10 23 13 50q1 19 0 48q-3 38 -3 50q1 54 52 55q37 0 70.5 -32 t34.5 -85v-18q0 -111 -47 -170q-25 -31 -152 -122q70 -32 171 -164q47 -63 104 -163q12 -19 21 -21l20 32q19 29 45 29q31 0 50 -20q12 -13 12 -35q0 -3 -8 -57q-9 -61 -28.5 -84t-77.5 -32q-39 -6 -87 -6q-88 0 -118 120q-22 85 -78 174q-66 107 -130 128l-6 -6 q-47 -45 -49 -116q0 -48 25.5 -134.5t23.5 -113.5q-1 -63 -92 -63q-78 0 -140 38q-73 44 -76 115q-1 73 54 73q29 0 48 -19q-16 101 -23 428v127q-105 35 -106 158z" />
<glyph unicode="l" horiz-adv-x="535" d="M26 868q0 41 36 81q36 41 70 41q6 0 11 -1q-1 6 -1 10q-1 15 -1 28q0 50 20 83q23 37 63 38h2q41 0 73 -42q33 -44 33 -123q0 -108 -26 -393q23 16 23 45q0 12 -4.5 37.5t-2.5 38.5q7 80 58 80h3q50 0 59 -45q1 -39 3 -80q8 -77 8 -84q-1 -66 -73 -92q-60 -22 -79 -53 q0 -31 7.5 -94.5t7.5 -95.5q0 -37 -6 -67q9 6 24 7h1q72 0 75 -108q0 -37 -9 -64q-19 -59 -64.5 -74.5t-90.5 -28.5q-13 -7 -26 -7h-6q-32 0 -54 27t-24 64v6q0 35 10.5 98.5t10.5 98.5v6q-9 383 -9 483q-52 18 -86 70q-36 54 -36 110z" />
<glyph unicode="m" horiz-adv-x="1243" d="M20 0q0 51 41 72q9 5 19 4q21 0 43 -22q-13 78 -15 176v19q0 61 5 162q4 126 4 177v-2q-2 0 -19 233v9q0 43 35 78q37 34 88 40h7q50 0 50 -98q0 -9 3 -51q3 -47 4 -74q31 18 30 63q-4 28 -8 81q-1 48 46 59q9 1 16 1q51 0 63 -80q7 -48 7 -87q0 -92 -44 -124q29 6 58 6 q133 0 192 -83q15 15 76 42q47 15 95 15q101 0 173 -62q76 -66 85 -174q5 -77 5 -142q0 -95 -11 -166q18 16 57 16q51 -3 51 -63q-1 -64 -57 -109.5t-121 -45.5q-129 0 -131 104q0 22 9 46q22 66 27 249v10q0 48 -9 88q-12 56 -84 70q-18 3 -32 3q-60 0 -71 -74q1 -13 1 -33 q0 -39 -4 -105v-10q0 -49 -8 -135q23 32 52 33q50 0 51 -66q1 -28 -11 -59q-38 -96 -141 -96h-2q-151 0 -155 93q-1 26 12 49q25 48 25 150v8q0 15 2.5 57.5t2.5 67.5q0 138 -90 141h-3q-65 0 -117 -110q-29 -60 -29 -190q0 -113 23 -168q6 -18 6 -34q0 -53 -65 -82 q-45 -20 -94 -20q-8 0 -17 1q-51 3 -88.5 47.5t-37.5 94.5z" />
<glyph unicode="n" horiz-adv-x="925" d="M23 -6q0 43 33 57q23 10 40 10q20 0 33 -14q-12 85 -16 197q-1 32 -1 85q0 92 4 246v11q0 38 -6 77q-1 9 -2 17q0 69 94 108q30 13 49 13q8 0 14 -2q27 -10 27 -90q0 -15 -1 -33q79 54 192 54q114 0 184 -56q97 -79 97 -314q0 -47 -1.5 -107.5t-14.5 -174.5q20 26 51 26 h6q52 -3 52 -59q0 -53 -45 -105q-45 -57 -97 -60q-18 -1 -34 -1q-142 0 -144 80v2q0 21 20 71q21 53 22 76v2q0 35 -33 54q-28 13 -58 27.5t-41 41t-11 92.5q0 126 39 150q16 9 34 9q57 0 59 -57q0 -13 -4.5 -42.5t-4.5 -43.5q0 -39 25 -60q2 28 2 52q0 107 -35 167 q-26 44 -81 44q-116 -1 -151 -118q-18 -57 -19 -208q0 -164 20 -255q6 -20 5 -36q-7 -80 -135 -81q-76 0 -115 31q-52 43 -52 117z" />
<glyph unicode="o" horiz-adv-x="851" d="M25 288q0 199 124 351q130 161 325 170h4q49 0 116 -26q22 -9 32 0q3 10 -3 46q-9 44 -9 63q0 20 8 31q19 31 51 31q22 0 51 -15.5t40 -36t13 -89.5v-15q0 -51 -6 -78q-15 -70 -59 -88q57 -142 57 -282q0 -130 -54 -234q-63 -121 -178 -153q-88 -22 -138 -22 q-374 0 -374 347zM217 291q0 -102 42 -159q3 12 3 38q0 22 -2 54q-1 14 -1 25q0 43 9 57q23 37 73 38h7q69 0 85 -60q8 -30 7 -72v-26q-4 -63 -22 -94q97 1 157 97q51 82 51 184q0 108 -28 190q-31 89 -103 89h-3q-98 -1 -180 -111q-95 -130 -95 -250z" />
<glyph unicode="p" horiz-adv-x="896" d="M22 588q0 34 20 72q25 45 56 48q23 1 40 -18q9 -10 10 -27q4 18 1 55q-4 23 -9 46q-4 25 3 49q17 49 77 49h5q70 -4 94 -56q10 -23 10 -110v-25q75 41 196 41q135 0 215 -109q72 -100 75 -243q1 -120 -48 -211q-22 -41 -90 -96q-79 -67 -188 -69h-3q-92 0 -171 53 q-4 -41 -9 -107q0 -1 -9 -293q15 25 45 25q19 0 32 -10q23 -18 31 -72q3 -21 3 -39q0 -25 -6 -43q-19 -56 -126 -105q-60 -28 -90 -28q-72 0 -72 108q0 29 9.5 89.5t9.5 90.5q0 9 7 126q7 123 9 203q0 67 -4 158q-6 107 -6 123q0 -7 4 150h-6q-46 0 -83 64q-32 59 -32 111z M320 315q20 -1 24 46q4 75 9 88q13 47 55 47h2q61 -1 61 -78q0 -8 -1 -17q-7 -98 -9 -106q-13 -61 -59 -81q-12 -4 -35 -14q3 -28 34 -47.5t64 -19.5q45 0 95.5 33.5t75.5 77.5q21 35 21 98q0 215 -155 215q-41 0 -97.5 -26t-79.5 -54q-4 -79 -5 -162z" />
<glyph unicode="q" horiz-adv-x="890" d="M29 426q1 113 79 215q72 95 212 95q120 0 196 -41v25q0 86 11 109q25 57 93 57q60 0 75 -43q12 -35 12 -78q0 -17 -2 -34h5q32 0 66 -49q37 -52 37 -94q0 -67 -17 -96q-34 -56 -84 -56h-8q6 -160 8 -160v2q-2 -81 -2 -159t2 -153q0 -26 -7 -314q10 13 31 16q6 1 12 1 q53 0 67 -82q3 -23 3 -44v-10q-3 -67 -63 -101q-29 -16 -122 -39q-16 -4 -27 -4q-77 1 -77 111q0 13 1 27q11 163 11 342q0 42 -1 84q0 37 -2 108q-69 -42 -164 -42q-126 0 -206 69q-91 75 -118 145q-22 54 -22 158q0 17 1 35zM189 411q0 -73 33 -133q57 -98 161 -98 q89 0 95 44q-38 19 -48 28q-23 16 -34 43q-27 61 -27 104v3q0 39 20.5 71t56.5 32q26 0 44 -18.5t13 -46.5q-4 -23 -10 -46q0 -7 18 -39q6 -10 19 -17q4 27 4 57q0 49 -12 104q-23 28 -80 55t-98 27q-155 0 -155 -170z" />
<glyph unicode="r" horiz-adv-x="874" d="M18 45v9q0 14 2 26q13 39 62 40q72 0 72 -69q0 -19 7 -3q3 136 16 407q10 133 15 197v10q0 23 -3 67q-5 83 -5 86q0 35 23 58q24 24 59 25h5q22 0 42 -9q78 -35 78 -85q0 -10 -5.5 -43.5t-3.5 -58.5v-31q94 75 159 77q42 0 78 -25q-3 26 3 44q13 43 68 44q1 0 3 -1 q22 0 65 -24q28 -16 36 -69q2 -6 8 -85q1 -15 1 -28q0 -140 -95 -152h-8q-47 0 -97 62q-52 65 -71 64h-2q-63 -9 -134 -92q-29 -42 -52 -277q-13 -134 -13 -161v-6q9 4 10 28t18 34t36 9q29 0 50.5 -23.5t21.5 -55.5q0 -44 -33 -81.5t-76 -44.5q-12 -2 -26 -2t-32 2 q-48 4 -57 4h-79q-44 4 -75 22q-64 35 -71 111z" />
<glyph unicode="s" horiz-adv-x="933" d="M19 255q0 64 37 109q20 25 46 25q22 1 38.5 -17.5t13.5 -46.5q-3 -23 -8 -47q-3 -26 5 -47q4 146 89 146h9q73 -6 73 -86q0 -34 -16 -64q-6 -13 -3 -21q15 -12 32 9q6 7 23 61q13 39 41 40q44 0 44 -80q-1 -102 -74 -138q-25 -12 -47 -12q-11 0 -21 3q30 -69 134 -69h17 q97 3 139 36t66 121q6 25 6 50q0 123 -84 169q-51 28 -104 30q44 -1 44 -2t-152 -1q-257 0 -257 216q0 83 61 135q28 22 130 69q58 27 136 27h6q48 0 103 -39q-1 8 -1 16q0 35 15 59q17 28 59 27h6q35 -1 67 -26q44 -37 44 -157q0 -170 -85 -191q41 -20 79 -50 q56 -44 89 -121q29 -70 29 -131q0 -231 -141 -326q-85 -57 -239 -57q-285 0 -314 195q-5 -1 -10 -1q-40 0 -85 62q-39 56 -40 125zM315 606q1 -4 2 -9q7 -6 97 -6q16 0 47 1.5t45 1.5q27 0 53 -4q-26 35 -53 68q-29 32 -72 32h-7q-113 -6 -113 -72q0 -6 1 -12z" />
<glyph unicode="t" horiz-adv-x="716" d="M22 448q0 76 57 76q20 0 41 -13q38 -25 58 -5q10 37 10 88q0 63 -15 149q-15 79 -15 113q0 112 92 112h2q56 0 89 -55q28 -44 28 -94q0 -8 -21 -174q-4 -32 -7 -129q24 -15 41 -15q12 0 20 8q3 10 3 25q0 16 -5 59t-5 64q0 47 20 66q23 23 69 23h8q76 0 76 -77 q0 -15 -2 -37q-16 -154 -20 -170q-26 -86 -117 -112q-14 -5 -31 -5q-24 0 -53 10q0 -35 -4 -141q-3 -59 -2 -103v-39q4 -63 25 -133q3 -12 32 -12q37 0 63 20q29 21 29 58q0 6 -1 13q-7 41 -7 45q0 29 47 57q28 18 58 16q63 -4 63 -80q0 -31 -13 -84q-22 -94 -96.5 -153.5 t-171.5 -59.5q-32 0 -66 7q-104 26 -123 189q-11 104 -11 199q0 32 1 63q3 47 8 130q-22 -6 -44 -6q-56 0 -84 32q-26 30 -26 69v6z" />
<glyph unicode="u" horiz-adv-x="1002" d="M19 610q0 63 35 105q20 26 45 27q23 0 38 -23t9 -58q-4 -27 -4 -45q0 -15 3 -24l6 161q-4 23 -9 49q-4 26 3 51q18 50 77 50h2q78 0 102 -57q11 -25 11 -58q0 -8 -1 -16q16 25 41 25q23 -1 43 -23q21 -23 20 -53q0 -99 -76 -127q-18 -4 -35 -10q-6 -4 -6 -35 q0 -22 4.5 -66t4.5 -66v-70q1 -34 2 -46q0 -20 -3 -61t-3 -60q0 -69 27 -101q37 -41 129 -41q133 0 186 54t53 189q0 80 -35 153q-47 99 -56 139q-15 -3 -26 -2q-47 0 -78 48q-25 41 -26 93v13q0 127 76 137q29 4 43 -18t11 -50q0 -6 -2 -19q24 85 97 85h10q75 -7 75 -86 q0 -31 -15 -62q-4 -10 -1 -19q15 -4 36 21q0 28 19 72q15 12 31 11h1q50 0 50 -66v-8q-3 -59 -41 -104q-34 -41 -75 -41q-12 0 -24 3q20 -28 58 -95q42 -91 43 -211q0 -161 -69 -272q-82 -136 -331 -136q-97 0 -187 35q-107 41 -145 114q-27 51 -27 163v8q0 110 4 148 q4 44 4 98h-4q-40 0 -83 60q-37 51 -37 117z" />
<glyph unicode="v" horiz-adv-x="833" d="M28 720q-1 8 -1 16q0 44 29 77q45 54 105 57h2q40 0 49 -45q3 -15 3 -53q0 -73 9 -125q28 18 28 58q0 13 -4 41t-4 38v7q0 50 44 59q9 1 18 1q50 0 63 -82q7 -52 7 -85v-14q-3 -98 -67 -126q-26 -9 -62 -32q16 -72 65 -184q26 -60 52 -150q39 70 117 213q34 60 69 121 q42 80 48 130q1 8 1 17q0 26 -9 58q-13 35 -25 70q-4 10 -5 20q0 50 58 50h7q79 -1 106 -83q19 -59 25 -132q1 -7 1 -15q0 -77 -56 -168q-99 -165 -116 -203q-44 -108 -149 -316q-38 -64 -95 -66q-63 0 -78 60q-7 28 -118 338q-102 288 -117 448z" />
<glyph unicode="w" horiz-adv-x="1211" d="M26 720q-1 8 -1 16q0 44 29 77q39 47 95 52h7q47 0 56 -50q1 -12 2 -43q0 -73 8 -125h2q26 18 26 58q0 13 -3.5 43t-3.5 43q0 48 44 59q10 1 17 1q50 0 63 -82q7 -50 7 -84v-15q-1 -98 -67 -126q-26 -9 -61 -32q16 -72 64 -184q26 -60 53 -150q82 138 101 176 q51 105 51 193q0 48 -10 113q-12 83 -12 85q-1 19 -1 36q0 145 94 145h11q72 -6 72 -91q0 -23 -9 -45q-7 -16 -6 -22q15 -4 34 18q4 26 7 51q7 31 42 30q48 -1 47 -68q-3 -98 -72 -132q-35 -16 -62 -7q10 -80 74 -249q57 -146 103 -231q26 89 52 148q34 76 41 117h-29 q-31 1 -56 22q-48 38 -48 127q0 35 9 89q12 79 63 82q29 1 49 -27q16 -23 15 -56q0 -8 -1 -18q-5 -30 -5 -52q0 -49 24 -55q7 53 7 128q0 44 22.5 76.5t63.5 32.5q61 0 88 -54q16 -34 16 -81q0 -13 -1 -27q-15 -145 -90 -354q-111 -316 -120 -345q-17 -57 -73 -57h-7 q-54 1 -102 79q-16 25 -62 124q-23 50 -89 202q-47 -117 -158 -341q-39 -63 -97 -64h-6q-55 0 -71 57q-26 89 -100 291q-67 186 -95 291q-34 133 -41 205z" />
<glyph unicode="x" horiz-adv-x="972" d="M-53 -63q0 41 40 79q37 29 73 57q22 18 35 29q-66 15 -66 139v20v21q0 45 32 75q28 25 65 26h6q55 0 55 -52q0 6 -14 -63q-3 -15 6.5 -35.5t29.5 -24.5q48 51 141 158q-89 91 -173 194q-28 34 -41 44q-54 41 -60 88v8q0 35 31 65q35 34 77 38q6 1 11 1q43 0 58 -43 q6 -20 25 -66q28 4 28 31q-6 25 -11 76q0 54 59 55q53 0 61 -93q1 -14 1 -27q0 -36 -8 -61q-19 -53 -73 -70q35 -35 102 -112q47 45 139 151q32 38 33 54q0 16 -8.5 58t-8.5 62q0 37 18 58q17 20 42 20h2q51 0 73 -44q12 -22 14 -66t11 -58q7 10 1 36q-6 35 -5 50 q3 45 58 51h6q51 0 54 -105v-15q0 -92 -45 -121q-4 -3 -62 -18q-51 -12 -99 -83q-57 -82 -128 -152q56 -39 68 -49q25 -22 58 -66q39 -56 78 -158q9 -25 29 -52q7 22 25 55q23 25 60 27q31 1 44 -24q7 -18 7 -47v-7q-3 -82 -41 -118q-56 -53 -167 -53q-63 0 -99 83l-56 170 q-39 101 -106 132q-13 -12 -36 -44q-48 -72 -204 -243q28 16 48 15q44 -3 47 -52v-6q-1 -41 -41 -86q-44 -48 -114 -49h-5q-34 0 -64 13q-116 53 -116 124z" />
<glyph unicode="y" horiz-adv-x="803" d="M-155 -331q1 45 22.5 79t52.5 35q50 0 51 -43q20 38 60 38q75 0 77 -73q1 -22 -7 -56q22 -4 34 15q6 20 11 41q10 28 38 26q29 -1 40 -37q7 -20 4 -44q39 78 53 132q6 26 16 80q-7 19 -127 295q-54 123 -81 197q-56 157 -57 244q0 47 22 81q25 39 70 39q82 -1 88 -108 q4 -57 13 -98q18 8 18 39q0 9 -2 21q-3 22 -3 38q0 29 8 42q20 38 55 38h2q37 0 54 -39q23 -64 23 -148q0 -50 -26 -76q-15 -16 -48.5 -30t-39.5 -25q16 -56 56 -141q47 -99 61 -139q189 307 198 420q1 34 -23 87q-21 47 -21 63q0 46 56 46h4q72 -1 105.5 -73t34.5 -164 q0 -38 -14 -67q-26 -53 -84 -201q-48 -129 -90 -197q-20 -32 -50 -100q-29 -98 -57 -196q-32 -98 -82 -181q-32 -59 -96.5 -94.5t-133.5 -35.5q-148 0 -174 139q-8 -2 -16 -2q-35 0 -69 38q-26 31 -26 84v11z" />
<glyph unicode="z" horiz-adv-x="1050" d="M29 31v6q0 46 59 108q50 48 99 95q63 83 207 233q79 59 228 184q-14 -2 -30 -2q-47 0 -114 15q-15 4 -38 7q-6 1 -12 1q-41 0 -86 -24q-44 -23 -63 -53q-60 -86 -112 -86h-2q-91 1 -104 133q-1 17 -1 35q0 40 6 85q8 70 40 96q30 25 72 24h3q51 0 66 -42q7 -26 3 -60 q85 57 171 57q48 0 119 -16q41 -11 92 -11q46 0 99 9q35 6 60 4q89 -4 90 -98q0 -45 -53 -105q-3 -3 -89 -86q-29 -28 -109 -85q-73 -50 -106.5 -89.5t-108.5 -118.5q-121 -110 -121 -146q0 -20 92 -22q57 1 113 3q16 0 72.5 -16t80.5 -16q34 0 44 39q-13 -6 -27 -6 q-54 0 -101 72q-17 27 -17 70q0 76 37 88q15 4 32 -10l25 -57q18 -42 39 -42q3 0 6 1q3 4 -5 26q-10 28 -12 45q-6 34 10 60q20 35 63 38h6q37 0 66 -36q16 -22 26 -72q-3 23 -4 65q0 54 46 55q31 0 52 -25q36 -46 36 -108v-12q-6 -120 -95 -166q-18 -10 -33 -9v-12 q0 -149 -141 -152h-10q-25 0 -54 4q-56 13 -226 30q-86 0 -172 1q-138 4 -164 22q-47 32 -50 72z" />
<glyph unicode="&#xa0;" />
<glyph unicode="&#xa1;" horiz-adv-x="669" d="M34 382q-3 57 49 109t94 41v15q-1 16 -1 32q0 73 32 116q29 38 73 38q53 1 91 -51q42 -57 42 -155q0 -80 -13 -202q-18 -174 -21 -202q31 19 31 57q0 13 -5 45t-4 49q9 104 78 102q60 -1 71 -57q4 -51 5 -102q10 -94 10 -101q0 -83 -91 -117q-75 -26 -98 -66 q7 -56 15 -160q0 -51 -9.5 -111.5t-3.5 -100.5q6 -50 13 -101q7 -63 -29 -102q-32 -34 -82 -35q-44 0 -76 30t-35 85q-1 42 13 124.5t13 122.5q-7 316 -7 281q0 28 -2 93q-1 75 -3 98q-66 23 -107.5 87.5t-42.5 137.5zM126 1043q0 69 54 131t130 62q135 0 136 -110 q1 -82 -50.5 -133.5t-158.5 -50.5q-111 1 -111 101z" />
<glyph unicode="&#x2000;" horiz-adv-x="834" />
<glyph unicode="&#x2001;" horiz-adv-x="1669" />
<glyph unicode="&#x2002;" horiz-adv-x="834" />
<glyph unicode="&#x2003;" horiz-adv-x="1669" />
<glyph unicode="&#x2004;" horiz-adv-x="556" />
<glyph unicode="&#x2005;" horiz-adv-x="417" />
<glyph unicode="&#x2006;" horiz-adv-x="278" />
<glyph unicode="&#x2007;" horiz-adv-x="278" />
<glyph unicode="&#x2008;" horiz-adv-x="208" />
<glyph unicode="&#x2009;" horiz-adv-x="333" />
<glyph unicode="&#x200a;" horiz-adv-x="92" />
<glyph unicode="&#x202f;" horiz-adv-x="333" />
<glyph unicode="&#x205f;" horiz-adv-x="417" />
<glyph unicode="&#xe000;" horiz-adv-x="899" d="M0 0v900h900v-900h-900z" />
</font>
</defs>
</svg>
