<?xml version="1.0" standalone="no"?>
<!DOCTYPE svg PUBLIC "-//W3C//DTD SVG 1.1//EN" "http://www.w3.org/Graphics/SVG/1.1/DTD/svg11.dtd" >
<svg xmlns="http://www.w3.org/2000/svg">
<metadata></metadata>
<defs>
<font id="cactus_sandwich_fmregular" horiz-adv-x="1024" >
<font-face units-per-em="2048" ascent="1638" descent="-410" />
<missing-glyph horiz-adv-x="500" />
<glyph horiz-adv-x="2048" />
<glyph horiz-adv-x="2048" />
<glyph unicode="&#xd;" />
<glyph unicode=" " />
<glyph unicode="!" horiz-adv-x="669" d="M731 1055l-102 -6q3 -20 3 -38q0 -94 -76 -129l-62 -26q-38 -18 -52 -38q6 -35 16 -109l82 -23l28 -17l-109 17q1 -9 2 -17q1 -35 -10 -109t-9 -92q0 -7 9 -64l79 -79l24 -43l-99 90q9 -60 6 -74q-15 -80 -125 -89q-95 -7 -125 38l-27 -83l3 29l15 70q-51 26 -54 111 q0 29 4 65q9 45 21 139l-147 -16l24 14l124 24q1 10 0 20q-4 133 -10 363l-116 61l-20 24l136 -59q-1 39 -2 69q-67 29 -108 93t-39 134q1 78 52 136l-36 164l20 -32l34 -116q38 35 70 38q1 111 38 155l-42 83l-9 40l66 -107q28 25 67 25q64 3 111 -58q25 -9 46 -33l93 107 l-26 -44l-59 -77q38 -59 40 -167q0 6 -2 -85q12 0 24 -3l30 107l5 -34l-16 -79q28 -12 42 -39q48 -18 59 -92q3 -64 6 -131l76 -1zM606 99l-34 -23l-73 -32q18 -42 0 -111q-16 -66 -76 -105t-147 -37q-60 0 -90 22l-78 -138l5 37l57 114q-6 7 -11 16q-51 29 -55 95 q-1 37 13 76l-73 -7l-29 4l109 21q60 130 186 130q107 0 139 -64q26 -13 41 -37zM544 1046l-99 -4l30 27l69 -3q-1 16 -7 68q-6 42 -5 61q6 69 -21 86l-25 -121l-21 45l25 84q-6 1 -10 1q-48 1 -56 -82q-1 -15 3 -48q6 -38 6 -51q0 -18 -4 -28q-20 -35 -72 -54q0 45 23 233 q12 99 12 203q0 28 -4 54l-97 -129l-4 47l96 110q-4 18 -11 32q-31 72 -85 70q-32 -1 -56 -22l57 -93l-38 7l-33 66q-25 -42 -18 -120q6 -57 6 -272q-39 37 -43 93q-1 22 16 61t15 51q-6 23 -20 27q-32 12 -75 -36l28 -97l-21 -39l-26 114q-25 -38 -23 -69q1 -64 40.5 -127 t109.5 -82q0 -22 3 -119l59 -25l23 -49l-82 42q1 -35 2 -55q0 -51 3 -148q4 -101 4 -146l19 2l56 -20l-75 -9q-3 -34 -16 -109q-12 -63 -10 -97q1 -38 20 -64l21 98l42 38l-48 -151q18 -15 41 -13q89 1 104 82q3 15 -11 89l-55 51l3 38l46 -47q-3 13 -2 21q-1 18 7 74 q10 69 12 107l-69 12l-41 53l110 -31q-7 54 -18 140q15 28 86 71l56 24t41 43q6 13 7 35zM424 38q-7 78 -85 79q-76 1 -125 -37q-15 -12 -34 -39l111 20l-26 -35l-98 -8q-18 -32 -18 -74q0 -54 44 -70l51 101l40 10l-66 -117q9 -1 19 -1q154 -1 181 114q4 18 6 31l-74 -32 l-25 23z" />
<glyph unicode="#" horiz-adv-x="1645" />
<glyph unicode="$" horiz-adv-x="555" />
<glyph unicode="%" horiz-adv-x="2782" />
<glyph unicode="&#x26;" horiz-adv-x="4246" />
<glyph unicode="'" horiz-adv-x="555" d="M522 1014l-90 -3q-15 -34 -33 -59q-99 -148 -199 -162l14 -76l-12 28l-12 46h-7q-47 -1 -91 28q-29 19 -44 44q-41 26 -42 72q0 38 29 67q41 38 82 78q28 29 60 109q13 32 13 75l-66 137l24 -19l42 -74q-7 108 37 136q22 13 49 13q67 1 112 -57l93 75l-16 -25l-64 -60 q70 -60 72 -176q1 -94 -37 -187l58 -3zM383 1287q-1 35 -17 66l-73 -69l-15 25l76 60q-39 51 -83 43q-23 -6 -34 -24q-4 -6 -4 -25q0 -18 3 -44q4 -37 -3 -90l43 -79l-14 -37l-37 78q-35 -129 -124 -193q-45 -34 -50 -50q-4 -19 9 -41q22 -34 78 -31q16 1 29 5l-19 76l23 22 l15 -93q22 10 41 27q45 41 83 95l-89 -3l23 29l81 -4q34 54 47 115q14 69 11 142z" />
<glyph unicode="(" horiz-adv-x="779" />
<glyph unicode=")" horiz-adv-x="665" />
<glyph unicode="*" horiz-adv-x="1774" />
<glyph unicode="," horiz-adv-x="315" d="M549 189l-96 -68q12 -48 14 -121q1 -86 -21 -133l-12 -24l112 -64l-27 4l-95 44q-70 -107 -224 -134l-8 -2l11 -85l-1 -29l-25 111q-28 -3 -53 -3q-110 4 -150 78q-38 28 -52 72l-89 -30h-20l107 47q-1 9 -2 19q0 124 123 130q19 1 52.5 -5t49.5 -6q32 0 46 22q9 18 8 52 q-1 16 -7 65q-6 41 -4 63l-110 58l-13 13l126 -52q15 69 108 68q60 0 91 -55q25 -10 44 -44q9 -18 16 -40l61 37zM374 66l-81 -59l19 53l61 37q-6 47 -12 71q-12 48 -33.5 60t-51.5 6q-29 -6 -42 -25q-3 -6 -4 -16l52 -22l24 -44l-76 41q1 -15 4 -35q13 -97 -3 -129 q-13 -26 -26 -38q-31 -29 -82 -19q-73 12 -85 12q-69 -4 -73 -88l105 46l-17 -40l-88 -29q4 -31 32 -50q34 -22 97 -23q29 0 54 4l9 2l-18 77l32 -25l7 -47q57 15 94 38q31 20 54 47l-64 30l36 20l46 -26q10 16 19 35q17 38 11 136z" />
<glyph unicode="." horiz-adv-x="310" d="M543 9l-114 28q-61 -86 -196 -85q-89 1 -117 51q-51 29 -56 95q-3 64 39 127l-71 65l-28 46l113 -92q63 78 153 78q31 0 54 -5l31 126l-1 -60l-12 -70q47 -15 67 -56q59 -31 59 -102q0 -61 -28 -107l64 -17zM374 142q13 56 -4 89q-13 28 -41 40l-19 -110l-29 34l29 81 q-7 1 -15 2q-76 1 -125 -37q-9 -7 -22 -24l38 -30l-9 -48l-44 57q-18 -26 -22 -42q-6 -28 -6 -49q0 -76 88 -77q85 0 130 33l-101 17l-19 36l136 -38q25 25 35 66z" />
<glyph unicode="0" horiz-adv-x="1040" d="M1173 534l-183 -91q1 -25 2 -51q-1 -140 -41 -253l123 -15l-27 -7l-102 3q-64 -164 -202 -241l105 -113l12 -25l-137 127q-101 -50 -220 -48q-70 0 -133 19l-35 -111l1 28l19 89q-57 19 -103 51q-29 22 -72 67q-29 25 -48 50l-53 -91l4 24l37 83q-61 85 -91 209l-126 -13 l17 8l105 23q-22 98 -22 209v31l-157 42h49l109 -19q6 139 43 265l-73 88l-25 41l107 -100q25 78 60 139l-112 60l-13 13l136 -52q76 118 192 193l-3 38l-53 34l-14 22l66 -37l-9 110l7 -12l13 -105l40 -22q78 38 152 38q59 -1 112 -28l-4 17q-18 73 -17 110q1 86 77 95l4 2 l-11 95l11 -16l17 -79q26 -1 74 -28q23 -12 44 -44q34 -18 56 -72l99 91l-16 -25l-76 -82q22 -61 23 -137q4 -146 -54 -193q45 -82 78 -183l126 -5l27 -7l-147 -7q39 -135 48 -271l161 67zM347 1183l-18 12l3 -20q8 4 15 8zM903 429q1 149 -37 304l-64 -3l7 29l50 -1 q-12 45 -28 89q-6 15 -75 151q66 32 69 128q1 42 -3 71l-67 -72l3 47l58 54q-1 10 -6 36q-12 79 -49 100q-13 7 -44 20l28 -139l-36 36l-13 105q-31 -3 -44 -41q-6 -19 17 -111q16 -63 5 -78q-6 -7 -16 -7t-30 10q-26 13 -36 16q-48 13 -83 12q-48 0 -96 -18l51 -27l-30 -12 l-46 29q-25 -12 -50 -28l10 -85l-17 -43l-9 118q-83 -60 -148 -156l-4 -8l57 -22l7 -44l-79 43q-37 -64 -64 -152l47 -44l-17 -41l-41 48q-29 -110 -33 -230l99 -17l-19 -34l-80 22q-1 -114 22 -219l73 16l28 -26l-95 -11q25 -98 67 -166l22 49l39 11l-46 -82q34 -48 76 -79 q57 -41 137 -59l12 56l42 38l-30 -98q37 -6 73 -6q86 -1 174 36l-56 52l44 7l41 -45q111 57 165 165l-70 1l25 34l58 -7q47 113 53 250l-82 -41l44 51l40 18v0zM847 590l-6 -36l-36 -11q1 -25 1 -50q0 -136 -42 -243q-76 -184 -237 -199q-22 -3 -40.5 10.5t-18.5 33.5 q0 9 3 18q12 29 12 117q0 107 -21 155l-26 -68l-15 44l24 49q-18 13 -32 13q-26 1 -31 -34q-3 -28 13 -107q16 -85 16 -123q0 -76 -41 -89q-7 -1 -17 -1q-45 1 -117 137q-44 83 -44 256q0 53 11 122l-74 13l-19 42l98 -29q31 164 101 279q94 157 228 158q45 0 82 -22l4 50 l25 -22l-6 -44q45 -37 81 -118q66 -155 80 -320zM764 475q0 25 -2 53l-152 -50h-20l171 73q-18 178 -79 324q-19 42 -38 70q-4 3 -9 4l-24 -177l-14 -36l17 221q-15 3 -33 3q-140 -1 -230 -212q-34 -80 -53 -164l112 -34l26 -10l-141 26q-16 -78 -16 -148q0 -152 40 -235 q19 -41 39 -69q10 13 11 59q0 54 -14 108q-25 98 -14 126q19 59 73 57q28 0 50 -13l87 182l-5 -29l-65 -168q10 -10 18 -25q54 -35 72 -146q10 -75 -3 -161q99 28 155 162q40 96 41 209z" />
<glyph unicode="1" horiz-adv-x="743" d="M759 917l-79 -69q1 -15 2 -32q6 -116 -14 -176.5t-80 -88.5q-70 -34 -86 -55q1 -15 1 -29l171 71l24 2l-193 -95q7 -41 17 -120l70 -9l47 76l19 19l-47 -96l63 -8l-26 -7l-44 1l-38 -79q75 -53 73 -175q-1 -92 -57 -149l81 -84l20 -33l-115 102q-26 -22 -60 -32 q-104 -29 -139 -29q-76 0 -101 54q-9 4 -16 8l-78 -118l4 23l58 109q-25 31 -28 96q0 39 9 100q15 91 14 98l-121 -14l16 8l107 23q3 25 1 46l-4 198l-125 -40h-20l143 61q-3 133 -4 224l-114 -103l16 24l98 110v99q-79 35 -122 123l-109 12l-16 7l120 -5q-22 51 -24 107 q-1 70 45 126l-92 59l-14 22l120 -68q41 42 83 50q3 145 70 183l-39 127l14 -13l43 -105q16 4 35 5q64 0 111 -62q7 -4 15 -11l117 94l-16 -25l-87 -83q61 -66 62 -186v-64l61 -18l32 85l-1 -40l-16 -51l39 -12l27 -10l-69 13l-28 -86q28 -12 38 -35q45 -7 56 -102l54 41z M597 1091l-57 11q-1 -47 -3 -90q15 0 29 -3zM597 802q0 19 -2 57q-1 28 -3 54q-4 37 -21 47l-18 -57l-37 -28l34 92q-4 1 -10 1q-48 1 -56 -82q-1 -15 3 -48q6 -38 6 -51q0 -18 -4 -28q-20 -35 -72 -54q0 12 13 139q15 138 18 206q1 32 3 68l-60 11l-15 41l76 -23v82 q0 57 -15 101l-63 -60l3 47l49 38q-37 60 -79 58q-13 0 -27 -4l30 -73h-31l-19 61q-22 -16 -31 -41q-16 -48 -10 -105t6 -272q-39 37 -43 93q0 22 16.5 61t14.5 50q-6 23 -20 28q-26 10 -62 -22l56 -30l-30 -12l-40 26q-42 -48 -41 -89q1 -61 36 -121l165 -6l25 -31l-177 19 q39 -54 101 -70v-98l59 66l10 -46l-69 -61q0 -51 6 -243l70 31l-17 -40l-53 -17l6 -211q1 -18 0 -37l42 9l56 -20l-100 -12q-3 -25 -16 -107q-10 -61 -8 -93q1 -25 11 -46l57 109l15 -46l-56 -86q20 -23 49 -24q15 -1 29 6q44 10 132 44l-60 53l30 19l53 -54q16 18 28 54 q15 44 7 95q-3 26 -10 45l-40 -80l-13 54l35 57l-3 3q-13 13 -39 12q-20 0 -31 -24q-1 -4 -9 -55q-1 -13 -13 -14q-12 0 -13 21q12 41 23 167l-68 1l25 34l42 -6q0 10 -7 70l-49 -23l11 35l35 15q-7 70 -9 119q15 28 86 71q25 13 48.5 27.5t34.5 48t12 76.5l-71 -65l6 40z M584 301l-59 3q1 -29 0 -61q9 -3 19 -7z" />
<glyph unicode="2" horiz-adv-x="1100" d="M1085 581l-60 -82q48 -85 37 -177q-29 -222 -130 -250q-6 -140 -65 -186l81 -86l12 -25l-109 101q-54 -31 -171 -31q-111 0 -253 12l-13 -46l-15 -38l15 85q-158 13 -243 37l-76 -126l4 23l56 109q-42 13 -59.5 29.5t-25.5 30.5q-69 35 -67 143v19l-57 -6l16 7l42 9 q20 88 41 247v6l-123 -9l34 14l91 16q3 88 33 172l-92 50l-13 13l111 -47q26 70 66 120q-80 0 -108 95l-44 -27l-35 -16l74 60q-13 56 -13 159q0 37 3 79l-38 19l-29 20l69 -26l1 19q9 104 62 155l-40 76l-3 27l56 -91q29 23 63 22q95 -3 111 -104q57 41 114 42l-13 182 l12 -25l20 -155q38 -1 105 -28q61 -25 97 -20q13 1 76 16l-15 117l13 -32l18 -81q29 6 51 6q69 -1 119 -67l74 60l-16 -25l-50 -49l2 -1q23 -38 23 -110q0 -88 -118 -247l149 -85l15 -17l-176 86l-25 -34l-68 -108q-47 -64 -104 -64q-20 0 -59 3q-31 3 -47 1l-46 -148l1 30 l28 115q-32 -6 -65 -32q-69 -54 -73 -193l106 -3l29 -4l-135 -14v-4q0 -57 22 -145q28 -10 85 -7q73 4 78 4q7 0 54 -11t68 -11q28 0 34 14q-59 12 -88 90l-140 -23l-19 4l154 41q-15 50 -15 110q1 135 60 140q25 1 54 -32q1 38 32 73t67 37h11l19 121l6 -26l-5 -98 q22 -7 41 -28q13 31 48 43q12 3 24 2q47 0 66 -48q20 -9 38 -32l45 51zM546 889q-26 9 -84 21q-54 6 -96 -51q18 3 38 3q16 0 45 -2.5t44 -2.5q30 0 53 32zM974 372q3 26 -1 57l-59 -79l-3 41l56 64q-25 104 -64 92q-15 -4 -24 -31q-4 -15 2.5 -71.5t2.5 -75.5 q-9 -42 -37 -79q0 164 -28 213q-12 22 -22 27l-6 -107l-32 26l13 85l-1 -2q-32 -3 -48 -40q-22 -51 6 -132q20 -63 -22 -65q-20 0 -43 37q-7 47 -28 108q-10 12 -19 5q-13 -12 -17 -47q-10 -80 14 -136l57 14l-7 -35l-36 -5q29 -53 70 -53q31 0 44 39q6 -50 -22 -105 q-19 -38 -70 -38q-25 0 -76.5 11.5t-68.5 11.5q-20 1 -57 0q-44 -3 -59 -3q-108 0 -127 79q-10 39 -24 110l-46 -4l-38 41l82 -3v16q0 181 90 253q61 50 154 42l16 68l42 38l-33 -109h35q38 0 77 59q31 48 60 97l8 11l-59 30l40 11l35 -20q124 167 123 238v7l-78 -76l3 47 l73 59q-6 42 -45 64q-18 10 -60 0l23 -105l-31 6l-11 93q-25 -7 -78 -17q-35 -4 -85 14q-66 23 -74 25q-25 4 -41 5l9 -69l-22 -35l-8 104q-16 -1 -38 -6q-35 -9 -82.5 -45.5t-70.5 -73.5q25 79 10 144q-10 47 -54 44q-19 -1 -35 -14l49 -85l-30 5l-35 67q-32 -37 -40 -152 l76 -28v-26l-77 36q-4 -108 10 -182l108 87l-1 -43l-101 -66q19 -60 67 -66q41 -7 97 110q20 42 68 77q54 41 103 37q7 0 58 -16q47 -15 82 -15q48 0 88 25q-26 -51 -54 -104q-42 -75 -104 -75q-15 0 -44 2.5t-45 2.5q-105 0 -207 -111q-42 -47 -70 -128l49 -20l23 -44 l-79 42q-23 -72 -29 -143l111 19l-29 -37l-84 -5v-11q0 -59 -14 -127q-12 -53 -24 -104l-1 -6l107 24l55 -21l-165 -19q-12 -78 35 -121q22 -20 108 -37l38 75l40 10l-54 -89q86 -13 215 -22l17 99l25 -22l-22 -79q118 -9 187 -8q89 0 133 17l-84 79l61 -11l48 -53 q34 23 44 77q3 23 9 129q10 -15 23 -14q31 0 69 76q23 44 35 139z" />
<glyph unicode="3" horiz-adv-x="1123" d="M1125 456l-16 -32l-48 -54q28 -41 24 -110q-3 -85 -49 -146q-53 -70 -135 -66q-7 -16 -17 -32l83 -92l12 -25l-109 100q-116 -148 -383 -145q-31 0 -60 3l34 -72l10 -47l-64 120q-10 1 -21 3l-39 -44l-38 -34l63 81q-78 15 -136.5 47t-97.5 82q-7 7 -15 14l-50 -86l5 23 l33 76q-102 118 -107 278l-98 -10l16 7l82 18q3 145 103 140q44 -3 102 -45l48 117l-10 -61l-23 -68q15 -12 26 -24q72 -75 66 -117q-4 -23 -3 -43l114 -26l26 -12l-137 22q4 -28 19 -51q45 -29 124 -31q45 0 85 12q-60 41 -61 114q0 25 7 53l-120 83l25 -7l101 -60 q26 64 86 65q32 1 52.5 -21t19.5 -65q-1 -15 7 -14q-3 102 -22 149q-26 64 -101 105l-68 -25l-41 -6l90 41q-28 12 -63 25q-73 26 -73 88q0 34 28 61l-70 50l-26 26l108 -64q13 10 30 19q-13 29 -13 70q0 76 37 139q39 70 101 73q69 3 83 -45q35 -9 44 -45q18 54 16 108 q0 26 -4 47q-193 3 -302 -126q-10 -12 -23 -23l16 -97l-12 28l-14 60q-57 -44 -119 -44q-64 -1 -93 54q-53 31 -56 108q-1 47 3 92l-98 50l-13 13l114 -48q12 88 47 142l-70 136l26 -26l57 -92q45 56 115 57q92 1 103 -60q28 15 58 27l25 129l8 -32l-9 -88q89 31 178 32 q20 0 40 -1l-15 118l12 -16l22 -104q127 -15 194 -96q20 -15 38 -35l85 69l-16 -25l-60 -56q45 -57 57 -134q6 -38 9 -71l61 21l40 6l-100 -46q1 -26 2 -51q-3 -116 -59 -200l62 -8l28 -7l-97 3q-32 -45 -82 -86q-41 -34 -69 -50q91 -63 116 -167q6 1 19 3q13 0 25 -4l28 66 l20 33l-35 -104q25 -12 40 -39q16 -6 27 -19zM1002 307l-76 -83l9 42l64 65q-9 48 -31 64l-10 -32l-35 -25l28 64q-9 3 -19 2q-28 -6 -35 -30q3 -32 -6 -93q-10 -29 -45 -53q12 72 8 176q-3 82 -44 142q-56 79 -144 108q98 45 158 101l-97 3l31 28l86 -11q78 85 95 198 l-102 -46l-2 40l107 35q0 9 2 18q0 32 -14 115q-4 35 -14 60l-70 -66l-15 25l76 60q-18 32 -50 66q-38 41 -115 53q-7 1 -15 1l18 -85l-31 6l-10 81q-78 1 -139 -12q-25 -6 -90 -24l-2 -24l-34 -28l7 41q-82 -38 -127 -103q39 92 36 119q-3 26 -58 25q-26 0 -61 -21 q-18 -9 -33 -30l60 -97l-13 -44l-60 117q-16 -35 -28 -115l63 -27l15 -32l-79 40q-4 -35 -3 -69q1 -41 13 -58.5t57 -14.5q67 6 123 73l-9 35l24 22l6 -34q44 45 136 81q64 23 174 20q75 -3 83 -123q6 -88 -32 -178q-10 -25 -43 -60q-20 -23 -43 -24q-25 0 -34 24 q-9 23 9 86q12 47 -6 67q-12 15 -37 14q-26 -1 -42 -17q-38 -35 -47 -124q-9 -97 40 -115q-23 -9 -65 -27l48 -28l-36 -5l-31 22q-18 -16 -17 -40q0 -23 23 -33.5t45 -20.5q50 -22 71 -35l74 33l31 -17l-83 -29q20 -15 42 -34q39 -37 66 -127q13 -48 7 -110q-1 -20 -4 -26 q-9 -18 -37 -19q-26 0 -50 23q-6 7 -5 36.5t-5 33.5q-18 13 -39 3q-18 -7 -28 -35l-2 -4l59 -35l-31 -11l-33 24q-7 -32 6 -64.5t42 -43.5t45 -11q25 0 43 24q0 -42 -47 -66q-67 -34 -176 -32q-139 1 -186 86q-13 23 -20 51l-47 8l-14 27l55 -13q-7 41 -3 73q1 15 -22 43 l-17 -52l-24 6l25 62q-47 44 -86 47q-45 1 -51 -66q0 -10 -2 -21l66 15l38 -22l-104 -12q-1 -83 25 -146q19 -45 56 -91l26 59l39 10l-49 -88q34 -38 63 -54q78 -42 150 -50l-38 74l34 -9l31 -66h41h4l88 114h41l-101 -113q243 12 332 126l-60 56h51l26 -29q13 25 21 52 q15 -13 38 -13q41 0 83 40q29 26 46 87q5 18 4 44z" />
<glyph unicode="4" horiz-adv-x="1088" d="M1084 999q0 -41 -9 -88q-12 -54 -53.5 -88.5t-95.5 -29.5q-7 -26 -13 -54l76 -6l28 -7h-107q-13 -59 -41 -259l70 -16l31 -17l-103 18q-19 -126 -40 -238l119 35l-39 -27l-85 -30q-22 -99 -54 -198q15 -3 26 -10l62 55l35 20l-84 -87q42 -39 43 -130q0 -91 -60 -149 l66 -69l11 -25l-90 82q-38 -31 -132 -36l37 -87l4 -38l-58 123q-23 -1 -43 -1q-105 1 -126 57q-56 23 -55 99q0 50 22 132q45 159 70 272l-83 -22l-44 -4l131 43q7 34 13 66q-72 -18 -134 -16q-59 1 -114 12l-63 -110l4 24l43 90q-124 31 -164 100q-23 16 -38 39l-120 -71 l-47 -19l157 108q-32 63 -31 156q0 35 10 104l-133 -14l28 10l108 23q0 4 4 236v11l-105 53l-13 13l120 -49q6 138 76 193l-94 147l32 -26l78 -110q37 22 73 22q91 1 108 -88q13 29 53 47l-25 94l19 -26l24 -60q20 6 36 4q51 -1 68 -45q28 -9 36 -33q18 26 42 34l-13 161 l13 -42l20 -116h1q34 0 53 -28q13 91 125 92q28 0 55 -8l109 143l-22 -48l-68 -104q15 -9 27 -21q22 41 74 43q13 0 27 -5l25 128l5 -30l-14 -105q28 -13 46 -42q70 -37 70 -157zM630 832q-31 7 -58 30q-38 29 -51 73q-15 -111 -81 -152q-16 -10 -44 -21l15 -92l-12 28 l-14 61q-19 -6 -56 -22q-6 -39 -10 -79q-9 -64 -6 -96q23 -12 76 -12q98 1 187 45q1 34 8 71l-73 49l-15 22l91 -54q14 74 43 149zM998 1020q6 31 -3.5 71t-31.5 59l-9 -82l-28 10l18 84q-9 3 -17 4q-32 3 -39 -29q-4 -13 2.5 -53.5t1.5 -56.5q-10 -32 -11 -34 q-7 -12 -31 -20q4 25 4 48q0 98 -54 130l-44 -66l-16 27l37 48q-16 4 -34 3q-42 -3 -61 -34q-26 -41 6 -102q25 -48 -25 -50q-25 0 -52 28q-7 9 -10 42t-8.5 38t-14.5 6l16 -95l-31 6l-7 89q-22 -12 -26 -33q-10 -57 20.5 -102t54.5 -56t46 -11q37 0 51 31q3 -18 -14 -61 q-12 -29 -24 -59q-16 -45 -38 -139l69 -41l-37 -6l-35 24q-4 -37 -4 -69q-104 -63 -234 -63q-67 0 -117 24q-42 20 -43 102q0 37 9 99q9 57 7 68q9 18 43 29q25 9 48 16q9 3 28 12l-15 57l24 22l10 -68q26 18 40 43.5t18 145.5q3 69 -12 77t-40 2l19 -50l-24 -23l-17 63 q-4 -3 -9 -9q-25 -34 -23 -57q4 -73 -12 -95q-20 -29 -67 -47q-7 54 5 149q9 67 -29 88q-39 23 -85 -1l56 -79h-34l-41 66q-23 -19 -41 -69q-16 -44 -16 -79v-27l57 -23l15 -32l-72 36q4 -165 -3 -215l30 6l38 -22l-72 -8q-12 -64 -10 -109q0 -64 23 -130l63 44l32 -16 l-85 -50q51 -67 199 -86l24 50l39 10l-36 -63q18 0 33 -2q132 0 234 60q1 -41 -29 -179l47 16l31 -18l-82 -20q-18 -83 -41 -176q-25 -80 -56 -227q-3 -37 17.5 -63.5t51.5 -26.5q13 0 35.5 5.5t34.5 5.5l-48 101l31 -10l38 -89q26 0 68 7q16 6 25 12l-128 115l61 -11 l86 -90q12 12 24 36q19 37 19 83q-1 19 -3 34l-28 -28l-32 4l52 47q-13 28 -46 31q-19 3 -33 -16q-1 -4 -14 -49q-3 -13 -13 -11q-12 1 -11 19q50 133 76 234l-70 -25l6 36l73 21q29 114 53 263l3 22l-97 16l22 24l79 -19q9 72 29 235h-89l31 28l63 -4q15 45 39 144 q18 -12 41 -11q45 0 78 41q10 15 28 98z" />
<glyph unicode="5" horiz-adv-x="1132" d="M1169 1050l-95 -7q3 -281 -97 -338l25 -66l67 30l30 4l-93 -48l31 -79l-26 38l-16 35l-50 -27q82 -124 88 -260q3 -57 11 -130l106 -12l-27 -7l-77 1q18 -145 17 -164q0 -110 -77 -156l58 -64l12 -25l-88 80q-59 -26 -275 -32q-173 -4 -197 -3l-16 -104l-15 -38l10 142 q-165 6 -242 48l-46 -77l5 23l27 63q-26 18 -39 41q-34 19 -50 54q-22 42 -22 114l-130 -14l31 11l99 22l2 28q-108 39 -109 259q0 151 56 217l-34 162l16 -25l34 -120q31 22 69 7q39 -16 45 -58q22 22 56 20q-3 4 -12 18q-45 20 -45 76q0 15 3 31q29 167 16 267l-2 17 l-109 58l-14 13l120 -50q-9 66 -7 103q3 110 83 146l5 3l-15 116l12 -16l20 -96l18 2q22 0 80 -22q54 -20 91 -18l-110 81l-26 29l162 -105l6 1q44 12 128 25q80 1 155 -64q15 114 101 114q16 0 33 -6l72 117l-7 -29l-47 -98q22 -15 36 -40q79 -45 84 -196v-13l67 -1z M987 633l-27 63q-13 -4 -28 -6q-53 -4 -100 49q-32 35 -45 71q-38 105 -66 129q-31 16 -73 5q-19 -6 -34 -9l40 -62l-32 24l-27 35q-50 -9 -89 0q-1 -64 -1 -62q159 -22 183 -29q89 -31 162 -132q16 -18 47 -52q20 -25 35 -47zM986 1062q4 168 -53 206l-48 -101l-13 46 l39 64l-3 2q-44 7 -57 -44q-19 -67 0 -154q-20 41 -64.5 84t-79.5 54q-45 16 -98 10q-16 -3 -47 -12l66 -44l-30 -11l-63 46q-53 -16 -89 -10q-48 20 -130 41h-9l21 -97l-31 6l-10 85q-42 -18 -49 -102q-3 -39 9 -126l53 -22l23 -44l-73 40q10 -86 5 -150q-1 -23 -13 -73.5 t-12 -69.5q0 -35 46 -38l11 44l14 41l-10 -85q70 -1 141 -1q94 -4 146 -22l17 92l27 -16l-24 -84q22 -9 37 -20q102 -83 130 -190l78 33l-18 -39l-54 -18q6 -29 6 -60q3 -123 -6 -171q-16 -82 -123 -77l-6 -79l-35 -6l15 86q-35 6 -103 12q-18 0 -70.5 -7.5t-78.5 -7.5 q-75 0 -92 45q-23 61 -15 115q10 -45 44 -46q45 0 89 87q25 48 21 137q-1 38 -15 50q-9 9 -20 -3q-10 -45 -34 -113q-25 -38 -45 -36q-42 4 -16 70q32 83 13 140q-6 20 -19 34l-9 -73l-38 -10l23 98h-1q-31 7 -54 -36q-28 -47 -38 -219q-26 41 -32 86q-3 22 7 82t7 76 q-7 29 -20 35q-19 7 -38 -19l23 -81l-22 -41l-19 92q-32 -70 -28 -133q6 -102 25 -151q32 -86 66 -86q12 0 22 14q-1 -25 -1 -71l55 13l35 -28l-92 -10q1 -127 92 -158l30 67l38 6l-46 -79q34 -7 80 -11t137 -5l9 107l32 -18l-15 -89q271 -3 377 22l-105 96l50 8l85 -96 q22 10 41.5 39t19.5 73q0 28 -13 134l-110 2l12 35l94 -12q-12 95 -15 161q-4 104 -51 192l-98 -52l4 41l81 34q-20 35 -65 97q-88 121 -219 136q-60 4 -149 16q-28 6 -31 77v97q-1 26 -10 39q53 -42 124 -33l-57 74l44 -6l41 -64q29 9 74 18q50 1 101 -47q44 -41 62 -89 q47 -127 88 -125q19 1 33 10l-35 78l22 29l34 -88q20 29 30 88q13 73 17 142l-78 -6l6 34zM733 322q0 25 -3 48l-124 -41h-21l141 62q-13 63 -52 108q-41 29 -95 45l-28 -101v35l14 69q-35 9 -75 10q-22 1 -60 0q-50 -1 -63 -1q-39 0 -55 3q56 -12 49 -62q34 35 69 0 q9 -9 16 -23q9 -3 31 -19q31 -31 29 -116q-1 -67 -28 -130q-29 -67 -73 -92q20 1 66 9q37 6 50 6q38 -1 108 -8l21 133l13 36l-12 -170q73 -4 85 67q0 5 -3 132z" />
<glyph unicode="6" horiz-adv-x="1067" d="M1121 218l-27 -7l-92 3q-44 -195 -177 -292l104 -111l12 -25l-134 123q-117 -76 -294 -79q-42 0 -86 5l-25 -152l-14 -38l14 193q-127 19 -212 79l-57 -98l9 35l32 76q-32 26 -45 47q-70 70 -98 149l-106 -12l27 12l73 17q-18 60 -19 125q-1 92 41 282l-103 42l-14 12 l120 -36q20 98 70 289l-60 60l-15 29l82 -70q56 164 157 281l-13 168l17 -35l16 -109q102 108 256 172q29 13 62 15q16 0 30 -2l103 110l-19 -39l-57 -75q54 -15 83 -56q51 -34 54 -76q3 -34 -29 -67q7 -1 15 -4l118 67l-28 -32l-68 -49q38 -29 35 -89q-4 -67 -52 -123 q-53 -63 -137 -73q73 -23 133 -70l114 20l29 -1l-127 -34q13 -10 24 -22q59 -45 103 -125l68 109l29 32l-86 -160q59 -114 63 -226q1 -72 -15 -152zM530 881q-31 15 -52 14q-28 0 -46 -28q61 13 98 14zM926 329q18 121 -7 208l-52 -95l-8 39l49 85q-50 133 -141 196l-98 -25 l23 34l48 7q-89 53 -209 54q-107 1 -187 -38q-13 -6 -24 -3q-12 3 -11 22q10 78 64 147q19 23 57 23q26 0 77.5 -18.5t89.5 -18.5q61 0 104 33q69 50 68 130l-45 -32l-41 13l82 47q-10 34 -50 38q-37 4 -52 -22q-9 -15 -18.5 -62t-76 -25t-116.5 -3q26 66 148 112 q129 47 129 90q0 20 -27.5 38.5t-49.5 21.5l-45 -60l-45 5l51 54q-18 -3 -35 -10q-60 -26 -144 -84q-73 -50 -122 -105l11 -83l-28 -49l-7 103q-22 -26 -42 -59q-39 -60 -82 -191l74 -65l-29 -12l-52 53q-23 -73 -63 -268l64 -19l28 -41l-97 40q-18 -79 -41 -218 q-7 -76 22 -162l84 19l38 -30l-113 -13q41 -104 117 -149l23 53h38l-38 -66q79 -38 191 -48l4 64l35 -18l-7 -48h28q91 1 168 25q47 15 89 41l-61 57l48 1l39 -42q39 29 71 66q54 61 79 151l-91 1l25 34l73 -9q10 38 16 86zM848 391l-17 -40l-50 -16l-3 -20 q-16 -124 -101 -201t-207 -73q-86 4 -129 20q-61 25 -94 91q-20 39 -23 100l-47 -19l-29 29l74 23v9q4 180 87 306q51 78 131 107l2 42l36 23l-7 -57q28 6 57 6q157 -3 231 -148q29 -59 29 -140q0 -32 -4 -70zM737 342q20 152 -25 224q-10 16 -22 31q-50 34 -127 35 q-63 1 -110 -32l-19 -122l-2 30l2 79q-23 -22 -45 -56q-44 -66 -70 -214l130 43l40 4l-174 -73q-1 -13 -3 -25q-13 -85 30 -156q37 -20 129 -25q70 -1 138 33q105 56 125 202l-123 -41h-20z" />
<glyph unicode="7" horiz-adv-x="1072" d="M1059 459q-1 -50 -34 -87q-35 -42 -92 -49q-31 -4 -66 5q-1 -18 -4 -35l133 -17l-26 -7l-111 3q-7 -37 -16 -72q51 -16 79 -73q25 -47 23 -99q0 -28 -6 -54l57 -54l12 -25l-75 58q-35 -108 -133 -130q-67 -15 -110 -16q-80 -3 -112 36l-59 -100l5 23l42 94q-1 3 -3 7 q-41 12 -51 72q-4 18 -3 38q0 47 23 140l-106 -35h-21l133 57q12 88 44 263q-95 34 -127 85q-15 10 -26 24l-106 -12l21 9l73 16q-39 54 -37 206v16l-64 38l-15 16l82 -35q19 101 111 105q70 3 100 -54q50 -23 54 -76q9 50 21 167l-65 41l-26 29l91 -48q-1 56 -17 91 q-50 23 -140 23q-53 0 -88 -7l-10 -71l-15 -38l8 103q-47 -16 -103 -91q-50 -67 -111 -72q-22 -1 -58 6q-48 12 -68 53q-15 7 -25 19l-109 -67l60 54l38 26q-28 42 -28 129q0 26 3 69.5t3 56.5q1 105 64 133l-39 137l26 -45l31 -85q28 7 68 7q99 0 107 -98q37 13 78 24 l23 102l15 34l-19 -133q83 18 167 16q88 -1 160 -25l-17 138l15 -25l24 -122q67 -25 112 -70q9 -6 43 -44q20 -22 36 -47l141 59l-23 -19l-108 -57q37 -67 36 -176q-1 -76 -24 -202l79 -3l27 -7l-109 -6l-18 -92q19 4 44 -3q18 -6 31 -17l46 26l24 4l-59 -41q7 -9 14 -19 q55 -25 55 -98zM971 496q3 35 -17 54l-114 -82l11 47l84 47q-16 4 -41 -7.5t-41 -11.5q-34 1 -50 23q0 7 21 129l-79 -3l30 28l52 -2q7 39 11 60q10 57 22 185q1 54 -9 96l-63 -34l15 44l41 18q-31 94 -121 134l11 -54l-30 6l-8 59q-76 26 -196 28q-66 1 -143 -17l-7 -54 l-30 -11l14 60q-95 -26 -125 -59q20 59 9 108q-7 29 -59 30q-31 0 -52 -6l36 -100l-23 -32l-35 123v0q-31 -18 -32 -91q-3 -39 -6 -79q-4 -56 4 -94.5t16 -52.5l87 59l57 2l-129 -78q12 -7 54 -13q51 -6 107 75q47 70 118 89q18 6 54 9l6 86l25 -22l-9 -61q31 3 55 1 q67 -3 119 -20q97 -34 100 -157q0 -23 -2 -48l77 -40l-22 -21l-56 35q-10 -70 -23 -176q-9 -78 -16 -108q-63 -10 -107 35q-15 15 -5 85q9 64 -2.5 82.5t-41.5 24.5q-29 6 -51 -8q-31 -16 -38 -67l62 -26l8 -44l-71 42q-1 -80 10 -130q7 -34 31 -57l92 20l34 -26l-103 -12 q16 -10 47 -23q72 -29 105 -31q-13 -54 -33 -200q-4 -41 -18 -101l75 32l-18 -39l-64 -21q-13 -56 -30 -151q-1 -53 34 -81l38 81l40 11l-60 -104q23 -9 48 0q45 7 123 29q60 28 76 100l-64 49l10 46l60 -57q1 16 0 30q-6 94 -65 95q-20 1 -32 -20q-3 -4 -13 -56 q-3 -13 -13 -13q-13 0 -12 22l40 161l-73 1l24 34l55 -6q19 79 19 130q37 -28 93 -24q38 1 60 23q28 28 32 63z" />
<glyph unicode="8" horiz-adv-x="1198" d="M1189 1201q3 -113 -19 -164q-34 -73 -131 -89q7 -130 5 -158l100 -4l28 -8l-129 -6q-15 -139 -136 -216q39 -18 72 -53l117 72l23 4l-123 -95q95 -118 95 -301q0 -59 -11 -111l105 -13l-26 -6l-82 1q-44 -167 -198 -250l75 -78l11 -24l-103 92q-113 -54 -258 -54 q-69 0 -131 10l-55 -69l-30 -25l64 97q-139 28 -218 101l-63 -110l5 23l43 100q-29 32 -43 69q-60 1 -109 58q-60 70 -60 163q0 92 50 140l-25 95l10 -15l27 -70q32 26 76 19q10 -1 32 -10q28 108 98 168l-92 51l-24 24l139 -57q26 18 56 30q-9 7 -64 65q-102 102 -104 231 q0 56 16 123l-95 102l-21 32l123 -106q7 28 19 63q15 45 29 90q18 38 65 75l-79 165l28 -28l67 -125q53 38 136 49l51 152l-4 -48l-25 -101q42 4 88 2q85 -6 193 -41l-21 161l12 -16l32 -153l6 -1q42 -13 56 -13q42 0 42 44q0 12 -6.5 52.5t-6.5 62.5q0 82 58 98l-38 91 l19 -22l37 -66l20 2q35 0 94 -33q29 -18 44 -43q45 -26 58 -87q5 -22 6 -108zM1099 1318q-1 61 -40 82q-20 13 -67 28l58 -107l-38 -3l-45 107q-18 -7 -29 -27q-10 -15 1 -95q10 -73 0 -90q-22 -32 -41.5 -39.5t-62.5 -1.5q-10 0 -25 4l8 -34l-31 6l-4 37q-51 19 -126 38 q-38 3 -78 6q-63 4 -89 0l-4 -2l-19 -79l-27 22l18 50q-76 -22 -100 -39l33 -60l-14 -31l-36 76q-37 -32 -49.5 -68t-20.5 -70q-10 -26 -28 -79l57 -49v-53l-64 69q-6 -29 -5 -63q3 -138 91 -227q23 -25 48 -48q37 -35 81 -54q-54 -18 -101 -44l49 -21l-30 -27l-50 27 q-79 -54 -104 -174q-22 -105 -22 -177q-32 22 -34 54q9 39 6 100q-4 9 -27 20q-29 6 -53 -20l26 -70l-13 -59l-26 107q-25 -48 -24 -88q3 -67 31 -98q37 -39 76 -39q22 0 38 13q6 -66 50 -110l13 31l39 10l-33 -58q79 -63 241 -72l29 44l34 -6l-32 -40h26q111 0 217 43 l-43 38h46l25 -25q126 60 168 171l1 3l-99 3l26 34l82 -11q20 66 21 144q0 132 -59 219l-63 -50l-7 44l51 31q-73 83 -151 100q28 20 73 57q75 75 94 140l-57 -3l31 32l32 -1q1 12 3 25q-1 42 0 108v64q0 23 13 40q66 6 95 38q23 23 35 83q8 28 5 164zM878 1017l-16 -41 l-35 -9q4 -25 5 -73q3 -146 -133 -244q-31 -22 -74 -22q-50 1 -50 39q0 6 1 13q10 47 12 101q0 54 -15.5 71t-48.5 17q-42 0 -44 -29q-3 -29 5.5 -60t8.5 -47q0 -70 -41 -70q-56 -1 -77 92q-12 45 -10 105q1 101 35 168q41 82 120 87q135 7 240 -52q42 -25 58 -68zM948 274 l-18 -40l-60 -19q-3 -127 -82 -209q-85 -88 -217 -92q-135 -4 -202 38q-25 16 -40.5 49t-11.5 56q13 -29 49 -29q60 0 90 63q18 37 8 95q-4 25 -18 33q-10 4 -20 -4q-7 -31 -28 -77q-23 -28 -45 -27q-56 0 -43 47q4 19 9 79q3 41 26 80q31 51 82 77q54 19 107 39 q48 19 83 28l8 35l42 31l-20 -62q9 1 16 2q45 1 73 -18q127 -91 133 -209zM788 892q-1 45 -4 63l-118 -30l-28 4l139 51q-1 3 -3 6q-13 7 -50 20q-66 26 -156 21q-76 -3 -106 -126q-3 -9 -4 -22q18 28 61 28q82 0 101 -54q51 -15 53 -104q1 -39 -7 -69q18 15 64 54 q59 51 58 158zM825 221q1 48 -20 92q-13 26 -31.5 43.5t-28.5 20.5q-19 4 -74 -4q-23 -4 -60 -19l-35 -104l3 29l15 68q-29 -12 -87 -29t-87 -44q-22 -20 -18 -36q12 20 31 21q37 1 57 -38q47 -22 47 -95q0 -51 -26.5 -98.5t-67.5 -61.5q29 -13 125 -8q140 4 201 90 q53 73 56 149v2l-114 -37h-21z" />
<glyph unicode="9" d="M1042 791l-74 -64q18 -85 17 -177q0 -85 -24 -208l81 -10l-27 -6h-57q-54 -268 -137 -392l-6 -10l79 -86l12 -25l-103 95q-70 -99 -167 -170l15 -41l4 -29l-29 61q-124 -86 -221 -87q-75 -1 -124 30l-50 -86l5 23l32 74q-13 13 -18 26q-47 23 -47 61q0 41 59 79 q7 4 95 50l-110 108l16 -7l113 -91q143 83 222 229q-54 -12 -108 -12q-154 3 -265 80q-35 23 -67 62q-42 39 -67 79l-73 -8l-19 5l81 19q-70 120 -73 285v29l-82 46l-24 23l108 -48q12 238 142 349l-79 170l27 -32l71 -123q101 72 259 95l26 139l3 -34l-10 -102q35 4 68 4 q38 0 74 -4l111 94l-16 -25l-74 -73q126 -26 207 -129q15 -13 28 -28l98 44l27 6l-114 -64q76 -94 108 -242l55 38zM897 594q0 35 -2 69l-82 -72l22 60l57 41q-3 20 -6 48q-18 124 -74 220l-63 -35l15 38l35 16q-85 124 -226 139l-51 -50l-41 1l60 52h-25q-31 0 -73 -6 l-7 -76l-26 16l10 55q-42 -6 -72 -14q-102 -32 -156 -72l32 -56l-21 -33l-33 70q-92 -86 -111 -259q-4 -31 -6 -67l79 -35l1 -37l-80 44v-15q1 -99 22 -156q25 -64 51 -108l51 11l25 -26l-62 -6q29 -39 66 -66q98 -67 262 -70q91 -1 182 42q13 7 21 5q13 -3 14 -22 q-13 -86 -72 -161q-23 -37 -79 -104q-51 -53 -120 -95l47 -38l-37 -10l-33 33q-42 -19 -87 -39q-56 -28 -55 -51q0 -22 44 -37l23 53l39 10l-39 -69q23 -4 47 -3q42 0 79 16q48 20 136 82l-43 90l41 -11l22 -63q69 51 128 137l-52 48l18 32l51 -56q61 97 117 324h-93l24 33 l75 -8q31 134 31 241zM799 750l-5 -32l-68 49q10 -47 10 -82q0 -70 -38 -76q-13 -1 -27 -2q-56 0 -96 29q-47 32 -47 85q1 12 7 56q6 35 3 55q-10 6 -19 6q-34 0 -33 -85q0 -108 38 -137q18 -15 67.5 -34.5t69.5 -19.5q54 0 43 -53q-19 -89 -93 -137q-67 -44 -155 -41 q-44 1 -84 14l-21 -54l-38 4l32 60q-70 32 -108 94q-47 75 -48 217q0 70 10 120l-44 32l4 32l46 -41q28 95 121 146q83 45 190 41q130 -4 182 -133q10 -23 20 -66zM690 652q1 64 -20 154l-56 40l-14 21l64 -38q-10 32 -29 59q-31 19 -76 20q-89 4 -152 -29 q-104 -54 -120 -143l71 -66l-24 15l-50 36v-1q-7 -51 -6 -109q3 -132 48 -197q18 -13 38 -20l68 124l16 23l-60 -155q32 -9 82 -10q136 -3 180 111q-22 6 -59.5 20.5t-47.5 20.5q-25 18 -35 47q-44 25 -54.5 73t-8.5 138q1 66 39 86q20 13 51 7q44 -9 44 -44q29 -6 41 -24 t3 -82q-7 -47 -6 -65q41 -18 73 -12z" />
<glyph unicode=":" horiz-adv-x="544" d="M455 430q-26 -107 -149 -135l-13 -77l-2 29l3 46q-29 -4 -61 -5q-89 1 -117 51q-53 29 -56 95q-6 113 94 186l-33 114l-1 37l47 -142q47 29 98 29q48 0 79 -10l88 173l-5 -40l-60 -145q25 -15 38 -42q59 -31 59 -102q0 -28 -9 -62zM455 -53q-26 -101 -140 -131l32 -44 l13 -25l-62 64q-31 -6 -65 -6q-89 1 -117 52q-29 16 -43 45l-44 -29l-26 -8l63 52q-4 16 -6 35q-6 121 105 194l-68 113l17 -10l66 -94q41 20 85 21q70 0 107 -25l38 44l19 13l-44 -68q12 -13 20 -29q59 -31 59 -102q0 -28 -9 -62zM373 478q13 56 -3 90q-7 16 -20 27 l-21 -48l-42 -13l38 75q-15 6 -31 5q-72 1 -113 -27l31 -95l-13 -33l-32 116q-44 -39 -56 -85q-6 -28 -6 -48q0 -76 88 -78q64 0 107 21l6 83l29 13l-13 -85q39 29 51 82zM373 -4q18 69 -13 105l-54 -83l-22 29l58 70q-20 15 -48 15q-61 0 -88 -14l28 -39l-10 -31l-35 60 q-9 -6 -19 -13q-45 -35 -59 -88q-7 -35 -6 -60l79 63l34 -10l-108 -73q16 -44 83 -45q19 0 38 1l-47 50l41 -5l32 -41q96 20 116 109z" />
<glyph unicode=";" horiz-adv-x="605" d="M528 430q-16 -66 -76 -104.5t-146 -37.5q-44 0 -72 12l-48 -63l-15 -12l48 82q-19 12 -30 32q-51 29 -54 95q-3 57 30 116l-99 63l-41 38l153 -80q64 88 161 87q32 0 56 -4l44 149v-48l-24 -107q44 -15 63 -54q59 -31 59 -102q0 -28 -9 -62zM654 -61l-116 -9q1 -20 2 -47 q1 -86 -21 -133q-19 -41 -46 -72l90 -117l6 -22l-113 122q-66 -63 -182 -85q-41 -9 -77 -8q-56 1 -96 25l-38 -121l1 29l22 103q-26 18 -39 42q-56 41 -56 108q0 124 123 130q20 1 41 -2l25 -5l-40 215l17 -32l51 -186q4 -1 9 -1q32 0 45 22q10 18 9 52q0 16 -8 65 q-6 41 -4 63q4 70 83 84q60 12 95 -21l132 105l-16 -25l-101 -98q4 -6 9 -13q25 -10 44 -44q23 -44 30 -114l91 -3zM448 478q13 56 -3 90q-13 26 -40 38l-25 -114l-23 30l26 91q-7 1 -14 1q-76 1 -125 -36q-12 -9 -26 -28l82 -42l-45 -14l-52 33q-25 -38 -25 -85 q0 -70 77 -76l38 64l52 18l-63 -84q140 4 166 114zM449 -76l-64 -4l13 33l50 -1q-3 41 -9 76q-6 41 -18 61l-58 -55l3 46l36 30q-22 13 -52 7q-38 -7 -46 -37q-4 -16 3 -64q15 -97 -3 -129q-13 -26 -26 -38q-22 -20 -57 -22l10 -38l-29 -33l-13 74q-63 13 -78 12 q-66 -4 -72 -73q-7 -79 60 -101l11 50l42 38l-29 -94q20 -4 44 -4q28 0 54 4q78 15 124 45q22 13 38 31l-57 60l46 9l33 -44q18 22 31 50q16 33 13 111z" />
<glyph unicode="?" horiz-adv-x="747" />
<glyph unicode="@" horiz-adv-x="1423" d="M1475 606l-94 -49q0 -73 -31 -133q-32 -66 -99 -112q44 -18 44 -62l125 -14l-26 -8l-102 3q-12 -42 -78 -108q-57 -57 -121 -98l67 -75l12 -25l-100 88q-142 -83 -386 -83q-54 0 -104 4l3 -88l-7 -51l-18 141q-171 18 -286 86l-65 -110l5 24l42 96l-9 6q-56 38 -93 83 q-42 38 -76 94l-120 -13l16 7l95 21q-42 78 -56 177l-101 -25h-20l118 45q-4 41 -4 85q0 97 39 208l-112 60l-13 13l131 -56q37 95 95 182l-13 169l12 -22l19 -122q72 99 155 159q73 54 139 88l-82 57l-22 25l126 -71q130 63 276 72l-20 161l12 -16l30 -143h32 q133 0 239 -55q20 35 42 36q31 0 62 -40l4 -4l63 115l-6 -29l-44 -108q39 -61 94 -170q37 -75 63 -151l105 -4l28 -7l-127 -8q45 -142 48 -278l61 27zM1118 638q0 276 -106 404q-60 42 -142 42q-120 -1 -209 -63q20 3 37 3q123 0 191 -57l30 89l-3 -38l-13 -63q4 -3 7 -7 q23 -16 45 -40q76 -83 76 -285q0 -73 -10 -155q66 16 85 63q12 29 12 107zM1293 600q0 124 -35 247l-75 -4l8 33l58 -3q-31 98 -68 173q-10 20 -37 79l-25 -60l-28 28l37 67q-22 47 -32 47q-9 0 -13 -26q-1 -12 -14 -12q-12 0 -44 16q-37 19 -49 22q-86 25 -166 25h-23 l10 -47l-30 6l-5 39q-124 -7 -234 -54l41 -23l-23 -24l-47 33q-73 -34 -155 -94q-95 -69 -171 -187l14 -91l-29 -34l-6 90q-32 -56 -58 -126l45 -19l23 -44l-77 41q-35 -99 -35 -186q0 -35 3 -69l68 25l-5 -35l-59 -15q15 -101 59 -178l70 15l38 -24l-95 -10 q54 -83 152 -133l13 29l40 10l-30 -51q101 -47 246 -56l-7 66l33 -19l2 -48q31 -1 64 -1q219 0 348 67l-49 44l49 9l31 -36q88 56 152 132l-61 2l25 33l57 -7q13 20 13 32q0 19 -43 25q-41 6 -86 -45q-149 -171 -389 -172q-66 0 -79 5q25 26 25 38q0 10 -25 10 q-12 -1 -72.5 -10t-100.5 -9q-60 0 -98 21q-73 39 -124 144q-26 56 -25 223q0 25 3 51l-64 -22l13 35l55 13q31 164 180 337l-41 55l-14 31l69 -73l4 6q190 212 436 209q190 -1 266 -177q64 -154 65 -351q0 -80 -9 -110q-20 -67 -95 -94q-42 -16 -104 -20q-16 -1 -24 1 q-15 6 -10 25q23 95 24 227q0 113 -21 170q-13 37 -31 63l-19 -93l-25 30l27 83q-29 31 -72 44q-47 16 -105 16q-34 0 -104 -17q-54 -15 -92 -88q13 54 10 66q-7 22 -38 22q-12 0 -40 -17q-12 -7 -17 -24l56 -59l-12 -35l-47 61q-3 -83 -1 -95q12 -53 52 -51q72 4 97 34 q6 7 16 45q19 73 104 73q72 0 101 -25q54 -45 54 -143q0 -37 -8 -70q-25 -6 -30 23l-3 46q1 26 -2 60q-19 20 -32 17q-26 -4 -42 -18t-16 -55q0 -45 19 -94q23 -60 60 -60q16 0 33 11q3 -6 -11 -71q-13 -56 -93 -114q-69 -50 -125 -52q-95 -4 -100 64q-4 47 26 80 q60 64 142 79q50 9 50 52q0 48 -54 41q-127 -15 -221 -116q-50 -53 -50 -135q0 -10 2 -19l80 104v-48l-77 -80q26 -116 169 -116q133 0 259 116q-3 -7 -3 -17q0 -37 37 -51l13 78l38 16l-31 -97q38 0 94 9q67 12 113 25q158 47 203 170l-82 -41l15 36l74 32q9 33 9 68z M764 535q-25 6 -46 27q-60 -26 -118 -54q-73 -35 -70 -91q3 -25 35 -25q48 0 116.5 44.5t80.5 90.5zM933 217q-7 -3 -23 -3q-35 0 -63 23l-20 -61l1 29l9 42q-3 1 -5 5q-82 -56 -165 -75q10 -13 12 -31q147 1 254 71zM493 189q-48 22 -82 66q-44 35 -60 80l-47 -47l13 27 l30 35q-10 35 -11 65q0 149 154 243q-51 3 -69 51q-37 3 -45 55q-45 -67 -70 -136l79 19l28 1l-113 -38q-22 -67 -22 -130q-1 -184 51 -265q44 -37 119 -35q11 3 45 9z" />
<glyph unicode="A" horiz-adv-x="1201" d="M1179 699l-114 -4q15 -86 15 -199q0 -67 -14 -184l96 -28l-24 1l-73 13q-3 -35 -7 -71q37 -12 55 -43q61 -28 59 -125q-4 -118 -94 -179l24 -26l14 -24l-47 44q-28 -16 -61 -22q-64 -10 -101 -10q-85 0 -123 76q-129 -95 -268 -133v-75l-3 -29l-8 101q-63 -16 -119 -16 q-171 0 -246 88l-49 -107l4 22l32 101v1q-118 82 -118 250q0 83 30 160l-95 45l18 -3l83 -29q82 178 283 252q54 20 99 22q129 6 149 -119q3 -18 3 -32q0 -108 -114 -138q-22 -6 -42 -16l33 -54l12 -26l-55 73q-98 -61 -98 -168q0 -10 1 -19q26 -16 78 -13q83 3 193.5 84 t127.5 158q13 57 14 55q-10 -3 -21 -3q-78 0 -124 118q-35 91 -35 176q0 25 2 45l-45 32l-13 13l60 -35q19 91 127 111q34 6 57 -11q-34 34 -139 33q-85 0 -113.5 -60t-55.5 -120q-51 -66 -189 -73q-89 -4 -117 62q-61 32 -63 150l-53 9l-14 6l67 -4q0 101 6 137 q16 80 69 114l-69 132l9 -6l70 -118q29 15 63 14q64 0 98 -50q89 76 266 81l-18 135l9 -17l27 -118q214 -1 321 -116q10 -7 19 -16l91 62l-17 -21l-62 -50q89 -86 120 -251l89 -7zM1087 73q7 57 -9 86q-10 18 -34 25q-20 7 -36 -11q-4 -3 -26 -50q-7 -13 -22 -9t-11 24 q13 73 25 177l-85 16l34 24l54 -16q15 130 15 201q0 114 -5 152l-64 -3l12 37l50 -5q-19 124 -84 211l-92 -75l-15 25l95 64q-51 60 -131 90q-66 23 -158 26l16 -72l-31 6l-9 66q-54 0 -166 -31q-92 -25 -155 -146q23 91 17 110q-12 37 -64 36q-19 0 -40 -10l50 -85l1 -48 l-64 124q-47 -29 -47 -96q-1 -9 -5 -50.5t-2 -66.5l123 -11l20 -29l-143 25q1 -18 6 -32q18 -89 88 -85q118 6 158 56q12 13 28.5 76.5t80.5 97.5q45 23 92 23q118 0 170 -42q89 -76 89 -239q0 -60 -11 -117q-44 -9 -53 40q-1 1 -3 74q1 45 -4 101q-31 34 -53 30 q-44 -7 -73 -34q-20 -18 -24 -57l100 -59l6 -35l-106 76v-14q-1 -76 31 -155q38 -98 101 -98q25 0 56 16q3 -10 -21 -119q-22 -92 -155 -189q-114 -83 -209 -87q-158 -9 -167 106q-1 28 15.5 75.5t38.5 72.5q37 42 73 66l-48 64l32 2l35 -56q31 18 71 25q79 18 82 84 q1 32 -23 54t-67 16q-157 -19 -302 -176q-25 -25 -44 -67l85 -31l17 -41l-111 54q-29 -72 -29 -139q0 -136 89 -206l17 56l37 1l-34 -71q72 -47 180 -47q72 0 154 28l-6 74l25 -20v-47q146 56 259 158q-4 -13 -5 -27q0 -37 28 -63.5t66 -26.5q34 0 95 10q12 1 32 7l-120 110 l62 -12l79 -89q12 9 31 25q36 35 45 92z" />
<glyph unicode="B" horiz-adv-x="1070" d="M1142 379l-21 -5l-90 -8v-18q0 -215 -112 -352l98 -75l19 -19l-129 79q-135 -148 -370 -148q-29 0 -73 6v-79l-3 -29l-10 111q-113 18 -167 1q-54 -18 -85 -17q-94 0 -133 76q-6 4 -10 7l-75 -64l13 19l51 57q-37 42 -36 95q0 20 6 41q10 37 11 86l-153 -16l48 19l107 22 v33v29q0 39 4 114l-155 74l18 -3l139 -49q4 64 14 210l-128 -63l-18 -1l146 85q4 73 5 152l-100 18l-14 5l114 -8v106q-1 69 -2 85q0 83 -9 199l-131 98l10 -1l120 -81l-10 132q-9 118 108 151l-13 108l9 -16l20 -89q15 3 29 2q72 1 109 -48q9 -10 29 -67q54 19 69 17 q57 0 82 -52q23 -6 38 -29l87 60l-17 -21l-65 -53q10 -26 11 -68q0 -51 -17.5 -140.5t-155.5 -142.5v-71q94 39 190 41q67 0 127 -18l65 80l20 19l-63 -106q72 -25 154 -97q16 -10 45 -39l133 98l-14 -18l-105 -96q116 -129 124 -327zM944 392q0 138 -47 225q-16 29 -31 53 l-41 -38v42l25 18q-64 88 -179 130l-45 -76l-25 29l43 56q-38 10 -87 12q-63 1 -147 -25q-13 -4 -109 -46q-34 -15 -36 12v82q1 61 1 105q23 7 72 28q82 37 95 100.5t15 110.5l-62 -50l-14 25l76 51q-4 54 -35 73q-13 7 -30 8q-38 0 -54 -27q-10 -16 -1 -76q9 -67 -3 -82 q-26 -28 -65 -35q0 47 4.5 118.5t4.5 80.5q0 80 -21 104.5t-84 14.5l23 -104l-30 6l-12 93q-47 -13 -65 -52q-9 -22 -2 -81q7 -75 11 -137l68 -44l21 -43l-87 66q7 -127 6 -358l73 -6l20 -29l-93 16q0 -61 -3 -120l45 26l35 -9l-82 -41v-11q-1 -41 -16 -237l32 -11l18 -41 l-51 25q-3 -59 -3 -93v-53l73 16l-13 -39l-60 -6q-1 -57 -15 -104q-15 -48 18 -89l60 67l33 -15l-79 -68q29 -25 66 -25q23 0 73 14q45 15 79 13q47 -6 136 -17l-6 82l25 -21v-63q18 -1 31 -1q116 0 202 40q67 31 118 77l-61 38l61 2l22 -18q25 26 44 57q59 92 63 240 l-73 -7l25 32h50v10zM796 214l-53 39q-26 -69 -96 -120q-48 -35 -91 -45q-32 -7 -108 -8q-70 0 -117 68q-38 54 -38 133q0 37 2 70l-54 9l-8 31l64 -17q9 120 37 180q18 37 39 62l-64 47l30 10l47 -41q56 51 146 48q110 -4 173 -79q54 -66 54 -244q0 -47 -10 -83l41 -25z M726 357q0 161 -50 221q-48 29 -104 29q-64 0 -113 -38l47 -42l19 -22l-76 55q-28 -25 -45 -61q-22 -48 -32 -144l106 -26l27 -14l-135 23q-4 -48 -4 -101q0 -54 28 -102q29 -20 54 -21q73 0 101 6q35 9 77 39q67 50 88 115l-110 79l-13 13l129 -75q6 28 6 66z" />
<glyph unicode="C" horiz-adv-x="1293" d="M1201 236l-94 -5v-41q-1 -170 -139 -297l84 -92l11 -25l-111 103q-42 -37 -90 -60q-138 -70 -278 -78l29 -70l4 -28l-48 98q-25 -1 -58 -1q-189 0 -315 125l-50 -84l5 23l33 75q-16 18 -29 36q-107 116 -136 299l-99 -11l16 8l82 17q-7 50 -8 101q0 146 50 271l-126 63 l-13 13l146 -62q63 148 199 258l-89 171l12 -7l89 -155q99 78 231 133q34 13 73 16l-19 155l12 -16l29 -138q66 0 123 -25q3 42 37.5 71t78.5 29q60 0 90 -29q18 -20 37 -40l99 79l-16 -25l-68 -64q54 -42 54 -113q0 -15 -3 -29q-9 -47 -3 -118l88 -5l27 -7l-115 -5 q6 -50 4 -68q-1 -86 -107 -94q-76 -6 -158 77.5t-124 83.5q-28 0 -60 -19q-70 -42 -115 -79l14 -94l-10 27l-15 58q-133 -114 -133 -266q0 -16 2 -34l49 -13l28 -10l-77 12q9 -140 61 -229q9 -7 15 -13l85 107l-11 -38l-55 -85q42 -28 92 -28q195 0 268 91l-173 75l54 -9 l133 -40q7 23 7 57q0 51 -13 96q-20 67 -20 92q0 23 9 46l-84 59l-28 29l123 -66l5 8q34 60 98 60q61 0 102 -56q13 -9 24 -19l77 91l34 29l-94 -137q34 -39 54 -110q9 -28 12 -92l56 -5zM1015 313q-7 61 -11 85l-37 -53l-44 8l69 80q-32 70 -94 66q-44 -4 -63 -38l-3 -6 l85 -45l-39 -22l-53 36q-6 -39 18 -86q16 -34 17 -129q0 -31 -13 -60l60 -17l-31 -34l-47 20q-37 -48 -139 -90q-64 -26 -172 -27q-67 0 -119 31l-41 -63l-41 6l59 73q-111 89 -132 296l-101 16l22 23l78 -19q-1 26 -2 56q0 139 90 243q32 38 103 89l-13 47l24 23l8 -55 q38 26 69 45q56 34 116 19q67 -16 110 -78q57 -83 136 -77q70 4 70 48q0 10 -3 24l-59 -3l31 27l23 -1q-18 72 3 167q6 32 -1 54l-67 -63l-15 25l72 57q-9 13 -27 23q-47 28 -68 28q-19 0 -42 -12.5t-27 -26.5q-13 -42 19 -117q-73 82 -180 81l12 -52l-31 6l-6 45 q-38 -3 -61 -13q-146 -61 -229 -126l31 -53l2 -48l-46 89q-114 -97 -175 -238l30 -13l15 -33l-54 28q-47 -117 -47 -250q0 -48 6 -92l70 16l37 -22l-106 -13q28 -181 144 -291l26 58l40 11l-49 -85q99 -83 245 -84q34 0 60 2l-31 61l32 -10l21 -51q124 9 250 72q37 20 74 51 l-55 51l61 -12l16 -19q20 19 44 46q47 50 66 144q4 20 7 65l-80 -5l28 40l55 -5q1 37 0 56z" />
<glyph unicode="D" horiz-adv-x="1179" d="M1173 534l-136 -67q-4 -53 -6 -93q-3 -78 -8 -232l130 -16l-27 -6l-103 1q-3 -54 -6 -98q123 -25 125 -169q1 -120 -70 -185l75 -80l12 -25l-101 94q-18 -12 -35 -15q-29 -4 -93 -20q-41 -15 -79 -15q-76 0 -128 37q-57 39 -59 100q-66 -15 -129 -14h-23l-15 -110 l-14 -38l11 149q-154 13 -263 114l-60 -102l5 23l41 93q-23 23 -46 51q-88 88 -130 216l-95 -10l16 7l75 16q-28 91 -28 182q0 126 55 227l-111 60l-13 13l133 -56q88 148 261 189l-15 200l7 -11l24 -186q47 10 98 10q143 1 304 -89q3 25 10 108l-6 1q-154 34 -153 182v9 l-91 58l-15 22l107 -60q12 124 89 192l-14 111l11 -16l18 -84q13 9 26 12q38 7 73 -12q25 79 79 101q50 19 81 -5q16 -23 48 -74l29 -42l94 75l-16 -25l-67 -65q35 -53 44 -73q15 -38 3 -85q-16 -70 -34 -222l76 -1l28 -8l-107 -6q-15 -133 -26 -286l111 46zM1065 -140 q9 64 -9 96q-12 19 -38 28q-20 6 -39 -15q-4 -3 -30 -54q-6 -10 -17 -10q-22 0 -18 26q1 23 13 132q1 25 5 61l-88 3l25 32l64 -7q1 79 11 269l-125 -61l44 51l82 35q15 123 34 323l-94 -4l31 28l63 -3q4 136 36 273q9 37 -3 63l-80 -79l3 47l66 53q-4 9 -16 26 q-13 31 -27 61.5t-36 30.5q-9 0 -19 -3q-50 -20 -60 -108q-3 -63 -15 -208q-48 -6 -63 30q-6 16 25 76q29 56 26 73q-4 22 -27.5 36t-45.5 9q-13 -1 -25 -11l22 -107l-31 6l-10 80q-10 -15 -17 -34q-16 -41 -37 -127l67 -38l-29 -12l-38 25q1 -37 24 -63l38 -36t103 -31 q-6 -70 -17 -186q-6 -28 -38 -8q-25 19 -103 60q-92 38 -204 36q-51 0 -93 -9l6 -48l-17 -44l-6 89q-83 -22 -161 -90q-37 -31 -63 -73l45 -19l24 -44l-81 42q-53 -97 -52 -200q1 -83 29 -179l78 18l55 -21l-127 -14q42 -129 155 -220l16 37l39 10l-35 -61q76 -57 155 -72 q44 -9 87 -9l7 105l25 -20l-10 -83q37 3 98 17q98 20 82 21q16 0 16 -24q-19 -47 -15 -76q9 -61 102 -61q31 0 65 11q41 16 56.5 17t48.5 8l-93 87l61 -12l57 -62q7 6 15 14q39 37 48 101zM799 244l-18 -39l-66 -22q-1 -22 -4 -45q-7 -67 -47 -120q-31 -42 -120 -38 q-63 3 -134 38q-114 53 -160 210l-58 10l-41 53l92 -28q-9 38 -9 72q0 94 60.5 166t153.5 68q39 -1 84 -19l9 40l43 38l-28 -87q118 -53 143 -127q25 -69 18 -205zM671 189q10 145 -13 210q-4 12 -13 24q-48 38 -110 52l-42 -131l3 29l22 105q-15 3 -28 3q-98 4 -149 -101 q-18 -37 -19 -85q0 -28 4 -57l104 -32l26 -10l-125 21q15 -66 54 -126q13 -20 44 -34q64 -31 118 -34q70 -3 98 40q18 29 25 105l-108 -35h-21z" />
<glyph unicode="E" horiz-adv-x="1199" d="M1286 268l-24 -12l-99 -25q-18 -129 -117 -181q-20 -10 -41 -12q-20 -60 -51 -105l102 -111l7 -28l-124 120q-98 -120 -320 -120h-32l17 -136l-4 -40l-32 177q-187 19 -325 116l-97 -171l5 23l76 159q-32 25 -56 53q-102 83 -142 220l-128 -14l16 8l108 23 q-19 73 -18 157q1 116 40 232l-120 63l-21 24l148 -63q35 95 88 172q28 41 75 85l-44 198l20 -33l45 -144q67 57 142 98l-35 32l-20 35l74 -57q113 57 208 55l37 139l4 -19l-20 -121q56 -6 99 -35q50 -32 110 -95l117 128l-12 -26l-89 -118q86 -98 129 -217l92 -3l28 -7 l-115 -4q22 -66 19 -116q-3 -47 -41 -86q15 7 33 10l3 1l93 65l53 20l-111 -88q35 -9 48 -45q85 -32 80 -183v-14zM698 688q0 41 -28 79q-19 10 -48 7q-50 -6 -119 -57q22 -15 53 -59q7 -1 17 -1q84 0 125 31zM1077 276q6 32 -2.5 82t-25.5 71q-23 28 -43 24q-41 -9 -41 -48 q0 -12 5.5 -42.5t5.5 -45.5q0 -10 -3 -17q-10 -35 -43 -64q0 120 -24 158l-72 -56l9 48l45 32q-18 20 -47 18q-38 -3 -55 -34q-26 -44 5 -108q25 -53 -24 -54q-18 0 -26 12.5t-15 23.5q-7 31 -33 81q-15 16 -32 6q-18 -10 -23 -44q-7 -44 31 -111l65 11l-26 -35l-26 -1 q22 -38 67 -38q42 0 57 35q6 -61 -82 -132q-38 -29 -105 -29q-202 0 -300 126q-48 60 -63 153l-44 8l-41 52l81 -24q-3 32 -3 68q0 80 33 180q37 111 100 171q101 99 187 107q72 7 124 -55q48 -56 49 -117q0 -32 -31 -46q-16 -6 -70 -19q-83 -19 -101 -13q-6 16 -25 47 q-22 25 -40 20q-22 -6 -30 -17q-16 -19 -16 -79q0 -63 27 -85q23 -19 79 -21l15 69l42 38l-33 -107h17q116 3 275 75q66 29 68 69q1 29 -9 64l-95 -4l31 28l58 -2q-37 107 -82 171l-38 -51l-4 47l25 28q-91 113 -186 120l-12 -71l-26 18l14 53q-69 0 -156 -40l64 -50 l-29 -11l-57 51q-95 -47 -165 -111l20 -66l-25 -45l-19 86q-85 -88 -136 -225l54 -24l24 -50l-87 46q-35 -105 -32 -205q1 -82 21 -154l39 9l56 -20l-89 -11q45 -151 172 -228l32 67l40 11l-51 -89q132 -72 280 -79l-13 71l30 -14l7 -57q206 0 287 105l-69 64l61 -12l25 -26 q44 69 51 125q10 -12 27 -12q39 0 93 79l-64 -16l16 39l66 9q5 14 9 39zM723 105q-56 12 -94 73l-151 -14l-19 6l160 29q-23 45 -24 92q-1 82 60 108q-19 -7 -45 -7q-45 0 -76 4l-31 -98l2 28l14 73q-66 15 -85 57q-56 23 -54 107q-44 -101 -44 -205q0 -26 3 -51l112 -33 l26 -11l-136 22q13 -94 53 -153q80 -69 225 -69q60 0 104 42z" />
<glyph unicode="F" horiz-adv-x="1097" d="M1164 1059l-109 -31q26 -86 26 -212q0 -25 -1 -45l38 -22l20 -29l-63 30q-20 -94 -120 -118q-78 -19 -126 3l-33 -149v49l16 112q-19 15 -28 36q-53 28 -53 97q0 29 12 64q32 107 32 129q0 9 -4 22q-29 13 -102 13q-83 0 -132 -50l54 -33l41 -41l-108 58 q-50 -64 -57 -205q19 37 80 49q19 4 35 4q60 0 88 -48q69 -29 70 -163q1 -69 -16 -152q-6 -31 -20 -57l74 -35l44 -35l-130 53q-50 -70 -183 -106q7 -44 10 -101l133 94l-14 -22l-116 -95q1 -42 6 -129q28 18 70 9q50 -12 73 -51q63 -31 59 -113q-4 -51 -45 -98l73 -70 l20 -35l-105 93q-91 -91 -259 -101q-78 -4 -138 6l-57 -99l5 23l38 81q-92 20 -127 79q-45 28 -62 85q-4 19 -4 36q0 56 47 85l-72 105l-6 19l95 -115q22 9 45 8q45 1 84 -23q-12 104 -35 259q-18 -3 -32 -3q-83 0 -123 69q-63 35 -66 124v19l-85 31l20 7l68 -19 q16 82 85 82q26 0 57 -14q25 -13 39 -8v47q0 -7 -14 114l-117 62l-21 23l135 -57q-6 59 -5 120q1 64 10 126l-162 -11l34 18l133 19q29 157 120 246l-98 89l-21 35l135 -110q98 88 263 104l31 114l4 -19l-16 -93q29 1 59 1q99 0 169 -26l87 93l-12 -26l-56 -74 q57 -25 97 -69q72 -51 105 -148l87 16h27zM993 860q0 86 -11 148l-94 -26l23 35l65 11q-12 50 -35 95q-32 64 -120 98l-76 -99l-5 47l56 61q-61 19 -136 19q-34 0 -66 -3l-18 -96l-26 17l21 76q-111 -13 -176 -51q-20 -13 -42 -33l68 -56l-29 -12l-57 51q-66 -72 -95 -171 q-6 -20 -10 -39l44 6l42 -28l-92 -6q-13 -63 -13 -124q-1 -73 7 -147l60 -24l23 -50l-79 41q12 -83 12 -88q0 -32 -1 -66q-16 -26 -56 -28q-16 -1 -41 11.5t-37 12.5q-41 0 -51 -48l84 -24l41 -42l-126 45q0 -45 35 -82q26 -26 75 -26q59 0 96 28q23 -151 62 -457 q-7 -22 -18 -22q-7 0 -18 16q-7 10 -14 22q-31 32 -38 37q-20 15 -51 9q-6 0 -12 -2l53 -64l-44 6l-33 49q-39 -19 -24 -73q12 -44 61.5 -68t122.5 -28l55 117l40 10l-72 -127q12 0 47 -2q105 -3 202 51q13 7 29 27l-77 67l32 7l57 -57q19 29 22 50q18 85 -47 100 q-23 4 -43.5 -11.5t-33.5 -44.5q-19 -47 -33 -47q-10 0 -20 18q-7 53 -15 181l-63 -51l38 69l22 16q-9 149 -25 235q38 0 117 35q32 15 55 34l-134 54l47 16l107 -50q23 28 31 65q19 92 17 155q-1 76 -42 101q-25 15 -57 7q-34 -7 -48 -31q-12 -18 -2 -92q12 -82 -3 -98 q-50 -53 -121 -41q-3 13 -3 114v37q-1 32 -3 51q-4 228 53 310l-84 46h68l35 -22q28 31 73 55t104 24q67 0 114 -15q80 -25 80 -108q0 -29 -35 -142q-10 -32 -4 -66q4 -35 20 -44q7 -4 21 -6l11 78l43 38l-27 -117q32 -1 52 4q69 18 86 75l-59 29l-8 38l73 -41q1 18 1 41z " />
<glyph unicode="G" horiz-adv-x="1089" d="M1202 -164l-152 24v-12q3 -177 -104 -294l90 -97l7 -28l-113 107q-120 -117 -321 -123l16 -127l-5 -39l-30 166q-271 0 -350 125l-3 3l-88 -158l3 38l66 137q-34 35 -48 82q-92 -1 -129 91l-143 -76l19 26l117 75q-9 29 -9 63q0 63 26.5 110.5t71.5 55.5 q-108 60 -108 208q0 15 1 29l-124 -8l29 13l98 22q22 126 146 183q-67 101 -55 212l-110 58l-20 24l133 -57q15 59 44 182q13 50 40 88l-71 146l35 -41l51 -87q61 67 171 85l-73 87l-20 35l121 -120q37 3 73 0q72 -6 138 -24l41 153l4 -19l-23 -142q16 -4 51 -15.5t47 -11.5 q22 0 38 23q1 13 -5 55q-7 51 -7 75q0 101 94 101q47 0 89 -32q12 -9 19 -15l92 101l-12 -26l-63 -85q6 -4 14 -9q42 -28 52 -90q1 -13 5 -110q1 -61 -9 -106l63 -13l32 -20l-100 14q-29 -104 -128 -122q-1 -19 0 -44l79 -3l41 -15l-120 -1q4 -151 -27 -214l131 -54l45 -34 l-186 68q-29 -47 -85 -88q-15 -10 -51 -60q80 -18 146 -88l154 63l-19 -18l-117 -60q126 -101 142 -291l95 -25zM965 1088q0 35 -8 53l-66 -86l-5 47l55 60q-42 34 -79 33q-29 0 -47 -29q-9 -15 3 -92q9 -72 -2 -89q-31 -48 -96 -40q-22 1 -84 25l-13 -81l-23 47l11 43 q-44 16 -58 16q-29 3 -100 7l41 -39l-11 -41l-68 80q-12 0 -19 -1q-82 -15 -122 -47q-23 -18 -38 -37l36 -63l-12 -41l-41 82q-1 -3 -29 -90q-18 -44 -36 -154l65 -28l24 -50l-89 47q6 -132 84 -207q-26 -7 -48 -18q-54 -23 -79 -54q-37 -44 -47 -85l38 7l47 -32l-90 -6v-32 q0 -78 46 -137q34 -42 122 -60l-46 178l22 -45l43 -138q18 -1 32 -1q80 1 177 32q64 29 190 61q31 1 64 -20q26 -19 33 -25q19 -18 35 -53q19 -41 19 -108q0 -83 -53 -159q-59 -85 -189 -90q-102 -4 -159 28q-41 22 -32 65q12 -22 33 -22q16 0 49 13q28 10 45 44 q12 20 15 42l-76 -61l7 41l70 51q-4 41 -23 50t-38 -5q-6 -4 -9.5 -33.5t-12.5 -36.5q-25 -23 -49 -23q-23 0 -26 11q-3 6 3 31q9 48 -1 79q-9 26 -49 35q-22 6 -38 2l18 -59l-19 -25l-18 72q-12 -9 -20 -24q-20 -32 -21 -128q-15 12 -30 54q-3 6 -3 14q0 10 5 35t5 34 q0 29 -29 34q-23 4 -46 -16q-38 -38 -38 -107q0 -4 8 -42l29 19l57 -5l-81 -42q9 -26 35.5 -47.5t52.5 -21.5q20 0 35 13q4 -54 35 -95l38 81l43 7l-60 -110q85 -79 288 -79q13 0 26 2l-14 79l29 -15l9 -63q104 10 197 62q31 16 60 43l-82 78l62 -12l41 -44q41 44 58 93 q26 72 30 150l-56 9l-41 53l97 -25q-6 152 -97 246l-94 -50l6 42l68 27q-76 70 -164 70q-59 0 -107 -13l39 -62l-35 -4l-30 58q-9 -3 -69 -25q-110 -37 -155 -41q-39 -3 -65.5 17t-26.5 54t30 57q37 28 95 25q86 -23 148 -25h9l-95 164l38 -44l80 -117q67 10 104 41 q18 28 82 89q34 25 53 45l-87 32l47 18l59 -25q26 42 32 113q1 26 0 57l-92 -2l31 28l61 -1q-1 15 0 23v63q0 23 13 39q75 7 101 55l-102 14l38 22l74 -15q4 16 10 42.5t3 159.5zM452 238q-23 1 -88 14q-66 0 -60 -28q4 -18 32 -18q22 0 116 32zM750 -114q1 66 -30 107 q-26 15 -46 16q-19 1 -87 -24q-44 -18 -90 -35q-64 -19 -105 -25q3 -9 4 -51q13 54 75 56q31 0 51 -27q22 -13 35 -36l65 45l41 13l-97 -77q10 -26 12 -59q0 -80 -43 -120q116 -9 172 74q42 61 43 143zM676 673q1 -104 -56 -155q-26 -23 -52 -48q-19 -15 -50 -14 q10 48 9 119q-1 78 -30.5 94.5t-81.5 16.5q-35 0 -54 -32q-4 -7 6 -82q9 -72 -7 -83q-22 18 -31 58q-20 89 0 177q28 118 98 123q86 4 148 -20q70 -29 85 -55t16 -99zM632 671q-1 44 -6 53q-9 16 -55 35q-53 22 -129 18q-37 -1 -48 -50q7 3 21 3q101 0 135 -57 q25 -44 21 -151q37 44 43 60q19 35 18 89z" />
<glyph unicode="H" horiz-adv-x="1143" d="M1138 398l-153 -35q3 -133 -6 -209q45 -9 64 -53q59 -32 60 -113q1 -88 -61 -156l64 -95l3 -35l-84 114q-44 -39 -99 -49q-69 -12 -107 -11q-53 0 -93 35l-85 -151l3 32l65 133q-9 10 -16 22q-57 41 -60 107q-1 23 6 47q13 42 25 181l-115 -10l-21 5l138 24q18 218 3 286 q-6 22 -18 41q-18 7 -38 5l-60 -191v58l34 129q-25 -10 -47 -32q-98 -107 -95 -363l102 -29l34 -19l-136 22q4 -116 29 -199q6 -22 6 -41q0 -79 -91 -113l18 -63l8 -79l-43 136q-37 -10 -79 -10q-104 0 -172 54l-83 -147l3 38l63 124q-12 13 -22 28q-60 50 -70 127 q-4 23 -3 45q3 54 30 86.5t65 32.5q15 0 29 -6q-12 91 -15 225l-118 -13l32 18l86 16q-1 113 3 289l-103 57l-21 24l124 -57q4 196 5 241q0 37 -6 92l-76 -42l-40 -9l113 75q-20 173 -16 218q6 60 85 118l-40 177l21 -32l41 -130q41 23 77 25q75 1 92 -97q15 76 104 70 q37 -3 57 -27l132 156l-9 -38l-101 -132q59 -48 72 -181l83 22l-33 -25l-49 -16q7 -107 -15.5 -159.5t-90.5 -79.5q-76 -29 -97 -58v-26v0q50 34 167 33q7 0 14 -1l185 196l-12 -28l-142 -170q102 -12 173 -68q51 -28 88 -75l84 51l28 9l-104 -73q72 -102 72 -209v-78 l105 18zM1011 -6q7 60 -10 91q-10 19 -36 26q-20 7 -38 -13q-3 -3 -27 -51q-4 -10 -18 -10q-23 0 -16 24q22 80 31 211q1 29 1 72l-99 -22l30 41l69 11q-3 133 -3 135q-6 76 -35 130l-79 -57l10 40l59 35q-45 75 -120 110q-50 22 -123 23l-58 -70l-72 -30l92 98 q-56 -3 -99 -17q-25 -12 -85 -38q-32 -15 -35 12q0 19 -4 59t-4 80q15 29 91 73q28 12 57 25t44 46q10 22 12 66l-69 -23l1 31l68 19q0 57 -9 114q-4 29 -10 46l-50 -64l15 64l21 25q-19 22 -54 15q-25 -6 -36 -25q-4 -7 -5 -26q0 -19 5 -46q12 -95 -3 -122q-23 -39 -75 -59 q0 44 -4.5 115.5t-4.5 83.5q0 76 -20 99q-6 6 -19 6q-29 0 -76 -25l25 -79l-25 -45l-25 108q-34 -23 -45 -51q-9 -22 -5 -79q6 -42 16 -129l84 56l-19 -50l-62 -33q4 -60 5 -119q0 -132 -2 -263l101 -47l24 -50l-125 69q0 -22 -1 -127q-1 -78 -2 -129l46 9l55 -21l-101 -11 q1 -76 3 -122q6 -118 27 -194q9 -31 -6 -31q-12 0 -18.5 13t-25.5 41q-26 31 -47 25q-44 -15 -47 -72q0 -18 3 -41q9 -53 56 -98q10 -9 19 -16l45 89l40 11l-65 -113q18 -10 54 -16q34 -6 112 4q15 1 27 8l-29 93l29 -14l19 -68q31 23 31 62q0 13 -4 29q-20 69 -27 180 l-45 7l-41 53l85 -23q-1 22 -2 42q1 183 40 262q76 161 178 158q18 -1 33 -5l11 46l44 38l-29 -94q57 -29 76 -108q10 -44 10 -86q0 -37 -4 -101q-6 -70 -6 -100l94 18l-27 -35l-69 -6q-4 -120 -27 -199q-4 -15 -5 -29q1 -59 57 -85l43 86l39 10l-60 -105q29 -6 119 9 q53 9 89 45l-78 107l62 -32l34 -52q23 37 29 72z" />
<glyph unicode="I" horiz-adv-x="778" d="M585 954l-114 28q-61 -86 -196 -85q-89 1 -117 51q-51 29 -56 95q-3 64 40 129l-72 63l-20 35l105 -81q63 78 154 78q31 0 54 -5l28 103l1 -37l-12 -70q47 -15 68 -54q59 -32 58 -104q0 -61 -28 -107l57 -16zM869 837l-157 -123q34 -38 36 -120q3 -60 -14 -142l68 -1 l29 -18l-100 -1l-1 -6q-26 -124 -219 -179q9 -50 13 -115l120 108l-21 -41l-98 -100q3 -39 7 -121q37 32 90 18q50 -13 64 -52q57 -25 54 -83q-1 -47 -38 -98l46 -39l7 -28l-66 51q-61 -70 -196 -105l22 -52l12 -58l-53 105q-64 -15 -126 -13q-105 1 -183 47q-37 22 -54 47 l-96 -78l17 32l63 62q-39 37 -39 85q-1 51 39 92.5t92 41.5q37 0 70 -23q-13 89 -35 248q-15 -1 -27 -1q-70 0 -112 45l-83 -96l13 45l56 72q-19 19 -37 39q-26 35 -26 90q-1 113 85 115q28 0 60 -14q28 -15 41 -8q1 37 -6 79l-133 70l-21 24l148 -63q-12 47 -31 145 q-6 45 25 86l-127 126l32 -19l108 -91q56 56 132 59q79 3 105 -56q41 -18 51 -77q38 45 116 42q61 -1 88 -51q7 -3 14 -8l123 85zM417 1087q13 56 -4 89q-13 28 -41 40l-18 -106l-20 40l19 71q-7 1 -15 2q-76 1 -126 -37q-9 -7 -22 -24l38 -30l-29 -11l-23 20 q-18 -26 -22 -42q-6 -26 -6 -49q0 -76 88 -77q85 0 130 33l-71 18l-49 35l136 -38q25 27 35 66zM655 635q0 22 -1 34l-98 -77l9 49l85 60q-7 28 -29.5 39.5t-64.5 2.5q-41 -7 -57 -34q-10 -18 0 -92l12 -58q3 -25 -8 -37q-50 -53 -111 -42q-10 102 -10 121q0 51 7 144 q9 95 -58 95q-16 0 -37 -8q-51 -19 -73 -38l57 -48l-3 -41l-72 72q-15 -22 -11 -51q15 -53 33 -151l3 -21l44 -19l23 -49l-62 33q6 -54 0 -73q-16 -26 -56 -28q-16 -1 -41 11.5t-37 12.5q-28 0 -41.5 -25t-10.5 -53q4 -41 35 -73q7 -7 15 -12l38 49l55 20l-69 -79 q16 -4 33 -4q60 -1 99 28q7 -101 29 -249q25 -184 24 -206q-13 -20 -24 -21q-7 0 -14 16q-4 10 -9 22q-22 34 -29 40q-16 13 -47 10q-35 -4 -54 -18q-29 -20 -28 -64q0 -29 26 -57l62 60l45 -10l-83 -68q61 -35 165 -35q56 0 113 15l-49 96l35 6l40 -96q44 13 89 33 q26 12 60 46l-72 55l62 -11l29 -25q35 38 24 88q-6 25 -37 33q-22 6 -46 -9.5t-45 -42.5q-32 -45 -44 -46q-10 0 -16 18q-4 41 -13 146l-51 -51l9 57l39 35l-3 28q-10 184 -25 238q38 0 117 35q64 28 91 69l-108 -1l31 27l90 -1q22 56 19 180z" />
<glyph unicode="J" horiz-adv-x="842" d="M818 272q-3 -107 -100 -146l40 -50l20 -41l-76 85q-35 -10 -80 -10q13 -98 35 -307l107 77l43 15l-149 -116q6 -66 6 -121q0 -281 -126 -413l91 -99l7 -28l-115 111q-25 -23 -56 -42q-120 -73 -282 -73q-39 0 -75 4l13 -107l-4 -39l-28 149q-140 25 -213 121 q-29 26 -52 60l-84 -150l4 23l70 146q-61 110 -61 294q0 152 64 190l-60 94l-9 28l85 -114q32 13 79 10q79 -6 139 -72l89 87l-11 -25l-65 -76q37 -44 37 -100q-1 -34 -19.5 -99.5t-18.5 -93.5q0 -12 3 -22q37 -16 104 -13q211 7 197 301l-187 -117l31 38l155 103 q-10 88 -30 234l-1 19l-140 -13l-19 6l156 27q-6 57 -7 119q-140 3 -205 111q-45 45 -67 116l-88 42l-21 23l103 -44q-12 50 -12 110q0 116 79 151l-38 172l21 -32l41 -131q29 9 46 8q50 0 78 -49q20 -6 36 -30q-9 95 65 110q-76 25 -89 79q-44 28 -38 104q4 51 39 95 l-58 60l-21 35l91 -82q53 51 120 51q59 1 123 -40l71 122l-16 -54l-42 -79q18 -13 30 -28q75 -51 74 -137q0 -39 -19 -80q-34 -73 -106 -81q10 -12 18 -26q23 -12 38 -32l130 83l-19 -22l-102 -75q26 -48 14 -147q0 -3 -1 -15q39 39 96 31l76 140l-10 -28l-50 -117 q22 -7 36 -26q73 -31 70 -142zM566 844q0 54 -44 92l-45 -86l3 51l28 47q-59 35 -101 34q-50 -3 -88 -37l111 -99l-64 23l-60 61q-26 -34 -27 -79q0 -54 66 -93q59 -34 117 -34q45 0 74.5 36.5t29.5 83.5zM733 322q0 67 -37 77l-32 -74l-7 47l16 29q-6 -1 -16 -3 q-26 -4 -39.5 -32t-39.5 -32q-38 -6 -54 27q-3 4 -13 65q3 -18 7 99l-82 -60l26 50l56 36q-3 86 -100 93q-34 1 -57 -14q-29 -16 -25 -49q15 -47 34 -211q-75 -26 -123 10q-13 10 -13 40q0 32 2 66q1 41 -8 92q-29 34 -52 29q-10 -1 -25 -7l25 -79l-25 -46l-25 113 q-34 -18 -43 -42q-4 -16 -4 -62q0 -67 22 -133l83 -35l38 -44l-111 53q37 -86 129 -108q63 -16 124 -5q-1 -76 12 -196l75 13l-27 -35l-45 -3l1 -19q9 -70 25 -212l31 21l58 8l-86 -54q6 -75 5 -121q-7 -155 -141 -225q-44 -23 -102 -24q-67 0 -114 15q-80 25 -81 108 q0 31 29 127q9 26 8 60l-68 -77l-8 39l71 70q-6 22 -13 33q-38 42 -96 42q-18 0 -37 -7l59 -79l-41 10l-37 58q-45 -32 -45 -149q0 -140 41 -243l38 79l39 11l-66 -117q56 -114 224 -139l-17 101l29 -15l12 -89q20 -1 42 -2q151 0 260 68q23 15 46 32l-79 74l61 -11l40 -41 q72 72 87 166q18 107 19 223l-87 -69l44 67l43 33q0 80 -20 232q-20 161 -23 231q35 -18 99 -3l-20 22l-12 56l55 -72q44 15 62.5 43t18.5 70z" />
<glyph unicode="K" horiz-adv-x="1183" d="M1183 7q1 -133 -52 -187q-23 -25 -68 -37l37 -62l7 -28l-63 85q-26 -6 -57.5 -9t-83.5 -3q-64 0 -109 54l-36 -114l3 29l20 101q-48 38 -61 76q-37 101 -70 182l-113 -22l-21 3l128 36l-8 18q-48 114 -120 169q-56 -57 -57 -140q0 -57 27 -161q28 -108 29 -145 q1 -61 -42 -86l39 -61l13 -39l-67 94q-28 -9 -70 -7q-152 3 -236 74l-66 -105l12 44l38 75q-12 13 -20 27q-69 54 -71 135q-3 120 90 120q18 0 32 -5q-6 44 -10 93l-131 -12l30 15l99 16q-10 118 -13 279l-88 47l-20 23l108 -47q0 -7 0 223q-129 53 -130 213q-1 92 42 154 l-41 176l22 -46l35 -110q28 28 63 28v16q-7 99 89 145l-67 122l26 -22l59 -92q28 10 55 11q72 1 106 -51q53 -25 60 -92q1 -15 1 -56l-1 -29l133 56l28 5l-161 -81q-1 -116 -6 -185q-3 -63 -23 -275q91 50 147 95l-74 66l-21 35l111 -86q12 12 15 17q12 29 10 101 q-3 78 6 106q15 51 69 61q32 7 63 -7l51 130l-4 -45l-30 -94q22 -15 41 -38q83 -51 87 -155q1 -22 1 -42l89 8l28 -7l-118 -18q-4 -108 -56 -179q-39 -54 -145 -129l-17 -12q19 -12 63 -58l76 54l62 33l-122 -105q154 -171 197 -276q28 48 83 48q15 0 28 -3l56 134l-3 -48 l-32 -95q22 -13 35 -35q54 -22 55 -91zM1096 53q1 22 -18 36l-36 -104l-15 44l29 70q-28 7 -42.5 -8.5t-31.5 -48.5q-9 -18 -24 -17q-23 0 -45 38q-23 47 -127 202q-32 42 -62 76l-67 -57l9 48l39 29q-98 107 -164 114q66 47 186 138q66 59 82 142l-85 -12l31 28l57 6 q6 41 4 93q-3 50 -35 90q-7 9 -20 16l-35 -107l-14 44l30 73q-26 12 -38 9q-25 -6 -35 -24q-4 -6 -5 -25q0 -18 5 -43q10 -80 -18 -150q-6 -15 -19 -27l31 -25l-30 -12l-20 19q-31 -20 -86 -60q-105 -75 -153 -76q-37 -1 -36 45q0 12 13 139q13 138 18 207q1 37 3 92 l-30 -15l-58 9l88 36q3 79 2 110q0 75 -19 95q-16 16 -48 15q-20 0 -41 -6l59 -92l-50 31l-31 54q-32 -13 -45 -30q-26 -31 -19 -99q4 -57 6 -272q-39 35 -24 146q3 26 3 44q0 19 -4 25q-12 20 -28 20q-26 0 -47 -33l27 -82l-18 -63l-25 107q-15 -44 -14 -88q0 -60 27 -104 q37 -59 104 -76v-176q0 -50 2 -98l85 -36l23 -50l-107 57l9 -228v-19l54 9l56 -21l-109 -10q9 -117 25 -174q7 -32 -8 -32q-12 0 -18 19t-21.5 35t-42.5 16q-25 0 -37 -20.5t-9 -48.5q4 -70 73 -120l28 56l48 20l-55 -89q70 -38 155 -38q37 0 58 7l-70 97h34l55 -86 q26 20 14 65q-60 200 -57 278q1 80 24 113q15 20 57 69q124 -26 235 -258l98 30l-22 -38l-68 -14q31 -67 44 -115q16 -67 51 -103l15 68l42 38l-38 -120q25 -16 56 -16q51 0 117 8l-60 82l56 -14l35 -62q23 7 44 28q18 16 27 91q7 25 11 66z" />
<glyph unicode="L" horiz-adv-x="669" d="M729 755l-101 -15v0q4 -29 4 -51q0 -94 -76 -129l-62 -26q-38 -18 -52 -38q1 -47 7 -94l136 -19l-57 -1l-76 4q13 -95 10 -140q38 -7 68 -43l80 62l26 13l-99 -83q42 -59 42 -144q0 -138 -102 -189l23 -38l13 -38l-51 71q-79 -32 -153 -31q-82 0 -106 56l-4 2l-60 -95 l12 44l32 63q-32 31 -35 98q0 20 20 176l-98 -8l-33 6l134 18q4 38 3 69l-7 261l-126 -38l-25 -3l151 59q-3 142 -5 244l-115 32l-16 12l131 -25v47q-67 29 -108 93t-39 134q1 86 63 146l-49 181l22 -45l40 -124l1 1q34 28 63 31q1 73 13 108q28 86 107 88q18 1 35 -4 l41 139l-1 -44l-24 -101q34 -15 60 -49q66 -39 87 -138l45 33l29 13l-72 -61q4 -29 5 -60q0 -117 -2 -173q16 0 31 -4l54 137l-4 -27l-38 -114q28 -12 42 -40q47 -18 57 -86q3 -61 6 -123l75 7zM544 727l-112 -16l30 28l81 7q0 15 -8 67q-4 41 -3 60q6 73 -24 90l-34 -100 l-7 37l26 67q-6 1 -13 1q-48 1 -56 -82q-1 -15 3 -48q6 -38 6 -51q0 -18 -4 -28q-20 -35 -72 -54q0 12 13 139q15 138 18 206q3 57 4 125l-91 -78l40 65l51 38v29q1 66 -20 114q-18 41 -55 61l-24 -105l-14 57l18 56q-4 1 -10 1q-59 -1 -78 -57q-16 -48 -10 -105t6 -272 q-39 37 -43 93q-1 22 16 61t15 50q-6 23 -20 28q-29 10 -68 -28l24 -71l-13 -40l-25 95q-37 -45 -35 -83q1 -64 40.5 -127t109.5 -82v-85l100 -19l-37 -23l-63 17v-66l5 -149l45 18l53 -9l-98 -29l7 -274q1 -29 -3 -64l29 4l46 -16l-76 -6q-22 -174 -22 -178q1 -29 14 -53 l37 70l48 21l-69 -112q20 -19 46 -19q15 -1 29 6q38 10 104 31l-46 60h34l32 -51q41 23 59 76q15 44 7 95q-1 15 -4 28l-95 -81l38 57l52 40q-18 48 -61 47q-20 0 -31 -24q-1 -4 -9 -55q-1 -13 -13 -14q-12 0 -13 21q-1 12 11 64.5t12 99.5q0 25 -2 50l-5 38l-86 5l39 25 l44 -6q-9 82 -10 136q15 28 86 71l56 24t41 43q7 15 7 38z" />
<glyph unicode="M" horiz-adv-x="1555" d="M1537 214h-57l-65 7q-1 -38 -6 -88q70 -1 104 -57q25 -39 24 -91q-1 -95 -86 -159l31 -53l7 -28l-52 72q-64 -42 -147 -44q-98 -1 -150 53l-31 -92l3 29l16 78q-20 19 -41 39q-23 31 -25 78q-1 35 12 74q32 95 32 278q0 102 -15 160q-31 18 -61 17q-67 0 -81 -74 q1 -15 2 -50l98 -40h-34l-64 22q-1 -97 -7 -181q56 4 87 -54q25 -44 25 -91q1 -80 -54 -143q-64 -73 -177 -72q-42 0 -82 9h-4l-27 -81l3 30l12 55q-47 16 -76 60q-60 41 -61 113q0 35 17 67q9 16 16 42l-104 -19h-33l143 43q9 44 12 123q3 104 3 117q7 86 -16 137 q-16 10 -33 11q-67 3 -108 -77l72 -57l26 -35l-105 76q-41 -91 -46 -242q-3 -152 24 -221q10 -23 10 -47q0 -51 -42 -91l36 -55l13 -38l-60 83q-66 -50 -159 -51q-107 0 -162 64l-62 -98l12 44l36 70q-31 28 -36 34q-22 28 -32 76q-6 26 -6 51q1 54 29 87.5t66 33.5 q13 0 25 -4q-4 44 -8 105l-157 -14l29 14l128 21q-3 102 0 265l-77 41l-37 27l116 -48l4 211q0 26 -3 58l-124 -17l-31 6l152 35q-22 205 -19 237q6 50 63 101l-70 171l29 -41l60 -117q50 37 98 38q66 0 87 -81q18 57 95 55q47 0 76 -47q18 -7 31 -24l49 73l-14 -43l-25 -43 q39 -60 39 -177q0 -59 -10 -98q34 0 62 -6l96 129l21 19l-96 -154q61 -19 119 -80l1 1q39 32 94 49l-58 52l-43 46l123 -92q35 7 75 7q80 0 156 -31l40 94l29 54l-50 -155q72 -34 113 -85q57 -44 88 -119l96 9l28 -7l-117 -18q32 -88 34 -219q0 -37 -2 -79zM1445 59 q-7 28 -39 27q-32 1 -48 -10q-10 -15 -30 -38q-9 -10 -16 -10q-9 0 -9 13q0 7 3 18q9 38 18 172l-89 10l41 24l49 -10v2q4 72 -6 217q-1 26 -7 51l-108 -16l31 28l71 7q-34 111 -143 171l-29 -92l-13 53l20 51q-47 20 -97 22q-32 0 -64 -3l64 -48l-54 4l-42 38 q-22 -3 -40 -9q-29 -9 -62 -29q-1 0 -19 -16q-13 -10 -22 -10q-10 0 -19 14q-50 59 -122 79l-44 -71l-54 -22l73 99q-25 4 -52 5q-75 1 -136 -18q-42 -13 -72 -31q-34 -20 -38 -20q-6 0 -9 9q15 28 86 70q26 12 55 24.5t42 42.5q18 39 9 145l-50 -86l-3 47l48 74 q-9 79 -33 94q-18 10 -41 4q-47 -9 -37 -92q13 -89 -3 -116q-20 -37 -70 -55q0 42 -4.5 110t-4.5 79q0 73 -19 95q-6 6 -19 6q-34 0 -86 -34l34 -69l-8 -64l-48 118q-22 -18 -31 -39t-3 -75q7 -56 19 -171l56 13l48 -26l-102 -15q1 -32 1 -64q0 -37 -1 -94q-3 -83 -5 -134 l98 -41l24 -50l-122 64q-3 -142 0 -234l25 5l56 -21l-79 -7q3 -75 19 -185q10 -29 -6 -29q-9 0 -16 11t-26 35q-29 23 -49 14q-20 -12 -30 -35q-7 -16 -8 -38q0 -18 6 -42q9 -37 48 -73l34 64l48 20l-61 -99q35 -23 83 -24q32 0 106 24q25 7 43 25l-79 108h34l59 -92 q12 19 11 41q0 16 -6 33q-31 75 -29 217q1 174 37 249q9 18 14 30l-74 53l-13 42l98 -76q59 104 146 101q101 -4 127 -117q9 -41 9 -82q0 -25 -4.5 -74.5t-4.5 -80.5q1 -72 -3 -108l78 23l-22 -36l-60 -12q-9 -41 -28 -74q-12 -23 -12 -50q4 -73 75 -88q20 -4 35 -6l18 85 l42 38l-39 -126h42q50 0 101 31q37 23 57 76q15 37 15 64q0 38 -31 56q-19 10 -40 -4q-4 -3 -38 -44q-7 -9 -20 -6q-12 3 -12 15q0 6 3 11q12 20 12 69q3 111 4 129q1 31 6 87l-101 33l59 8l42 -17q0 29 -1 60q18 114 111 114q20 0 45 -4q102 -20 122 -104q13 -57 11 -128 q-4 -136 -4 -121q1 -99 -31 -196q-7 -23 -7 -50q1 -48 29 -77l19 88l43 38l-44 -141q10 -6 23 -9q42 -9 67 -8q61 0 128 43l-69 94l55 -15l36 -61q26 23 38 48q23 51 11 90z" />
<glyph unicode="N" horiz-adv-x="1157" d="M1132 274l-115 -33q-3 -31 -8 -89q59 1 91 -41q28 -37 28 -89q0 -50 -17.5 -98t-45.5 -79l42 -50l14 -25l-66 65q-53 -50 -154 -50q-138 0 -178 39l-72 -96l12 26l49 84q-4 6 -8 13q-57 26 -57 92q1 37 27 107l-131 -25l-21 3l161 47q15 39 16 60q1 9 0 16q-28 12 -55 22 q-32 18 -52 49q-72 42 -70 177q1 79 10 119q16 75 59 98q-99 -31 -132 -161q-18 -69 -17 -227v-58l101 6l-51 -14l-50 -5q3 -171 20 -227q7 -25 9 -48q0 -63 -53 -103l22 -35l13 -39l-46 65q-54 -32 -131 -32q-108 1 -172 62l-54 -87l11 44l30 57q-25 29 -49 60t-30 70 q-3 18 -3 36q0 110 101 119q12 1 22 -1q-12 82 -15 203l-154 -14l30 14l124 21q-3 126 3 322l-95 49l-21 24l116 -50l1 53q-3 53 -5 143q1 60 45 95l-79 148l26 -22l69 -113q75 51 132 52q31 0 49 -18q67 -6 72 -102q23 10 53 17l-6 192l15 -44l11 -143q53 10 107 10 q75 -1 139 -24l143 139l-27 -42l-93 -105q64 -26 106 -72q57 -44 92 -122l86 9l28 -7l-108 -16q29 -70 39 -168l43 29l35 20l-76 -64q6 -51 6 -111q0 -63 -5 -144l85 17h29zM1049 57q0 12 -3 23q-6 22 -35 27q-26 4 -46 -10q-12 -16 -30 -43q-9 -10 -21 -7q-13 1 -13 14 q0 4 5 12q13 25 17 144l-73 -21l-56 21l131 24q1 44 4 74q3 63 4 127l-70 -60l9 48l61 41q0 129 -29 214l-117 -18l31 28l80 7q-34 86 -77 123q-32 26 -79 42l-44 -49l-63 -18l79 76q-42 12 -85 13q-72 1 -121 -8l5 -71l-29 37v28q-56 -16 -96 -41q-34 -20 -38 -21 q-7 0 -9 9q0 13 1 56q6 73 -11 95q-6 6 -19 6q-47 0 -110 -47l55 -92l-49 30l-25 46q-32 -38 -25 -85q10 -60 4 -181l82 -36l24 -49l-107 55v-42q-3 -146 0 -249l29 5l56 -21l-84 -7q10 -212 28 -278q3 -9 3 -16q0 -13 -10 -13t-16 10.5t-24 35.5q-16 15 -35 11 q-37 -9 -45 -25q-16 -28 -9 -81q7 -51 60 -90l40 77l48 21l-69 -112q22 -13 64 -16q28 -1 40 -1q83 0 113 23l-94 130h34l73 -117q19 22 19 55q1 20 -6 41q-15 51 -21 187l-114 -13l33 24l81 5q-3 56 -1 108q1 225 31 287q32 67 64 96q50 45 138 47q16 0 33 -1 q88 -6 126 -171l73 57l27 11l-96 -86q9 -64 -1 -193q-45 18 -61 54q-13 26 -9 75l-47 -43l-6 31l57 44q9 64 0 77q-10 18 -35 24q-59 12 -73 -81q-20 -142 3 -197q13 -32 44 -46q26 -12 52 -21q38 -23 43 -27q28 -23 28 -61q0 -25 -8 -57l54 14l-22 -36l-39 -8 q-1 -4 -23 -55q-15 -34 -14 -57q1 -50 47 -65l48 81l53 22l-77 -107q63 -9 105 -9q66 1 108 41l-33 32l-5 47l54 -63q25 31 35 59q21 54 21 70z" />
<glyph unicode="O" horiz-adv-x="1063" d="M1164 568l-139 -117q1 -29 2 -59q0 -192 -81 -323l97 -62l20 -19l-128 62q-113 -164 -329 -186l38 -59l13 -38l-69 95q-22 -1 -44 -1q-187 0 -303 64l-71 -114l11 44l41 82q-48 31 -83 75q-95 83 -121 231l-113 -9l29 15l81 13q-6 47 -6 99q0 120 41 237l-109 57l-20 24 l136 -59q53 136 151 236l-85 180l31 -40l70 -123q129 121 294 151l-103 189l27 -22l99 -163q25 3 50 5q38 1 170 -38q-12 105 -12 114q0 105 92 105q31 0 67 -19l47 120l-3 -45l-27 -84l7 -4q31 -18 44 -44q44 -25 55 -83q4 -22 6 -106q1 -28 -1 -52l82 7l27 -7l-111 -16 q-12 -111 -73 -147q50 -129 63 -257l78 57zM946 1065q-1 59 -35 79l-39 -120l-13 45l33 85q-28 16 -51 16q-28 0 -45 -28q-9 -15 1 -93q12 -78 0 -88q-15 -12 -29 -12q-7 0 -56 18q-69 23 -118 22l-26 -2l38 -62l-50 30l-16 30q-161 -22 -294 -150l33 -58l-3 -66l-49 104 q-78 -85 -128 -212l62 -27l23 -49l-93 49q-38 -110 -38 -215q0 -50 6 -92l73 12l32 -26l-101 -9q34 -186 189 -255l22 44l48 21l-46 -74q91 -34 224 -33q9 0 25 1l-67 94h34l57 -91q54 7 117 24q99 25 171 120l-73 35l55 14l37 -23q70 108 82 254l-63 -52l9 48l55 41v22 q0 111 -33 237q-19 72 -46 130q56 15 73 62l-85 -12l31 28l60 5q10 40 7 179zM854 468l-49 40v-41q0 -139 -72 -249q-82 -126 -215 -126q-22 0 -29 3q39 59 38 174q-1 26 -2 43l-98 -52l3 44l91 37q-4 25 -25 42q-31 25 -75 27q-42 1 -67 -40q-13 -22 -1 -105 q15 -111 -22 -138q-35 29 -69 104q-15 29 -15 133q0 157 126 325q32 45 73 79l-12 31l14 55l20 -68q66 47 130 49q124 6 170 -124q26 -76 34 -168l35 -25zM761 467q0 37 -5 79l-136 109l-32 41l165 -118q-15 97 -39 156q-25 16 -56 16q-72 0 -156 -80l39 -135l-14 25l-38 98 q-97 -99 -138 -226q32 22 73 21q82 0 120 -61q23 -9 40 -28l114 46l28 5l-131 -67q35 -61 18 -187q67 35 110 132q38 86 38 174z" />
<glyph unicode="P" horiz-adv-x="1120" d="M1219 388l-139 -68q-13 -105 -57 -187q-48 -86 -148 -149l114 -108l-25 10l-104 89q-105 -60 -205 -61q-105 -1 -199 51q-7 -76 -10 -208l98 -29l27 -10l-126 23l-5 -143q45 -4 72 -56q66 -29 66 -139q0 -61 -29 -112l86 -58l17 -20l-112 61q-20 -32 -53 -49 q-130 -79 -209 -81q-50 0 -75 25l-38 -101l-23 -33l48 150q-4 6 -7 13q-59 31 -59 141q-1 45 9 118q13 98 16 120l-82 -51l15 18l69 54q10 136 13 323l-136 -15l16 8l120 26v38q1 78 -3 203q-6 146 -6 202l-107 57l-13 13l120 -49v92q-69 12 -111 89q-38 70 -37 148 q3 114 78 162l-10 144l7 -12l16 -124q32 15 60 -2q0 13 -3 38t-3 38q0 69 51 103l-44 73l-19 54l79 -119q28 13 60 12q78 -1 122 -63q73 -44 76 -146q50 16 110 20l-57 202l13 -14l64 -188q20 1 48 2q123 0 214 -70l139 111l-16 -25l-104 -101q15 -13 29 -29 q86 -69 132 -193l133 -5l28 -7l-155 -7q31 -94 29 -198q0 -25 -3 -50l114 49h24zM996 432q0 86 -16 152l-57 -3l31 28h19q-37 117 -117 188l-54 -52l3 46l29 24q-76 54 -179 54h-32l24 -70l-36 22l-13 46q-130 -10 -210 -68q1 42 1 71q0 104 -12 129q-7 19 -40.5 39 t-61.5 18q-18 0 -32 -6l51 -76l-31 3l-38 65q-18 -12 -25 -33q-9 -26 -3 -57q6 -26 11 -52q3 -23 -2 -104q-6 -97 -6 -148q-32 29 -43 64q-1 7 -2 19q0 13 5 44t5 43q0 37 -30 42q-15 4 -31 -6l13 -104l-18 -43l-10 133q-39 -47 -39 -106q0 -78 42.5 -137.5t80.5 -59.5 q16 0 27 13q0 10 -4 -164l59 -25l23 -44l-83 44v-32q0 -18 8 -153q6 -114 5 -198v-29l30 7l56 -20l-86 -11q-3 -82 -16 -295l46 36l40 -8l-88 -56q-1 -25 -1 -35q0 -50 -12.5 -132t-12.5 -115q1 -63 42 -84l38 125l21 -28l-40 -102q18 -3 37 2q51 13 132 58q19 10 54 35 l-125 68l63 3l79 -51q10 15 16 34q12 32 3 93q-10 91 -69 81q-20 -4 -30 -29q-3 -4 -11 -56q-1 -18 -14 -18q-10 0 -12 19q0 13 9 289l-45 8l-47 46l92 -28q3 82 3 127q7 54 13 177q105 -91 237 -88q80 1 167 44l-91 78l48 -6l63 -60q20 12 35 25q80 67 107 115q19 35 31 69 l-105 -51l43 51l72 31q16 59 16 135zM843 429q0 -85 -30 -135q-34 -59 -98 -102q-70 -47 -134 -47q-53 0 -98 32q-51 35 -46 86q28 12 59.5 26t44.5 44t24 170q7 94 -53 95q-35 1 -45 -23l27 -25l9 -57l-44 51q-1 -54 -22 -140q-16 -29 -26 -30q-32 -4 -34 -4q0 118 6 234 q6 7 13 15l-86 101l24 -16l76 -74q105 88 216 88q64 0 118.5 -34t73.5 -96q25 -79 25 -159zM477 358l-217 -177l6 43l192 130zM799 432q0 72 -22 143q-4 13 -18 31q-39 25 -89 24q-32 0 -85 -19q7 -9 15 -23q54 -16 54 -113q1 -20 -7 -108q-7 -76 -25 -107q-23 -41 -88 -64 q18 -7 44 -7q54 0 114 39q56 38 83 88q24 41 24 116z" />
<glyph unicode="Q" horiz-adv-x="1113" d="M1129 865l-76 -56q31 -73 30 -148q-1 -158 -138 -181q3 -39 4 -81l117 -82l14 -19l-129 79q1 -72 3 -320l118 -13l-26 -7l-92 2q1 -72 1 -124q1 -54 0 -165l100 -31l26 -10l-127 20q0 -53 -3 -121q37 -6 64 -48q73 -34 75 -155q1 -121 -84 -172q-31 -19 -64 -32v-6 l48 -52l12 -25l-63 58l-7 -60l-15 -36l9 110l-4 4q-57 -20 -104 -19q-85 0 -117 63q-70 42 -62 172q4 61 8 126l-131 -14l16 7l116 25q9 199 4 426q-69 -23 -147 -22q-9 0 -19 1l-2 -135l-11 36l-6 99q-140 13 -229 86q-60 50 -95 94l-20 20l-59 -108l5 32l41 91 q-95 110 -97 306l-85 -9l21 13l64 12q1 157 63 262l-60 69l-12 30l82 -83q101 155 286 167l-15 193l15 -19l23 -173h6q130 1 222 -39q0 69 2 82l-63 40l-27 33l93 -52q15 86 95 116l-18 145l12 -16l26 -123q15 3 29 3q67 0 104 -54q41 -19 60 -69l116 95l-16 -25l-94 -88 q9 -34 7 -74q57 -13 97 -94l57 32zM998 -611q9 32 -2 92q-16 92 -73 83q-20 -3 -31 -28q-1 -4 -6 -57q-1 -15 -13 -14q-12 0 -13 17q-1 13 6 261l-50 8l-41 53l91 -28q3 126 1 182q0 39 -1 84l-102 2l42 31l60 -8q0 148 1 281q1 25 -2 84l-120 74l67 -10l51 -35 q-7 91 -7 118q12 -12 30 -11q54 0 90 58q19 32 19 108q0 13 -5 30l-70 -52l9 41l54 31q-44 113 -99 108q-16 0 -22 -20q-3 -12 13.5 -60t13.5 -64q-3 -26 -7 -37q-7 -16 -26 -34q0 178 4 234l-88 -82l3 47l87 72q3 69 -14 96q-22 39 -84 41q-6 0 -12 -1l15 -67l-31 6l-7 54 q-37 -18 -50 -49q-7 -18 -10 -45l81 -45l-33 -13l-50 32q0 -31 2 -129q-95 70 -267 70l6 -47l-26 -49l-8 96q-145 -7 -222 -111q-18 -23 -32 -47l53 -51l5 -50l-70 81q-48 -91 -51 -215l82 16l56 -21l-138 -16q1 -146 53 -241q6 -10 19 -25l38 85l39 10l-61 -114 q34 -35 79 -73q95 -79 222 -81h15l-3 44l31 32l-2 -76q127 7 203 73q3 -26 6 -177q-1 -149 -1 -342q1 -16 1 -35l31 7l56 -20l-88 -10q0 -23 -9 -100q-6 -57 -3 -89q7 -95 81 -94q12 0 70 16l-107 98l61 -11l75 -79q37 10 72 30l9 107l24 -22l-8 -68q28 22 38 60zM679 399 q-15 1 -29 3t-31 31q-28 48 -21 75q10 39 11 57q0 28 -34 39q-23 9 -41 0q-38 -15 -50 -74q-6 -32 5 -75l65 29l-17 -39l-43 -13q7 -25 20.5 -56t47.5 -53q29 -15 57 -30q9 -89 -139 -90q-20 0 -38 3q-118 20 -183 130q-44 79 -45 141q-1 83 24 155q19 53 74 84.5t118 31.5 q57 0 135.5 -37.5t107.5 -77.5q31 -132 6 -234zM569 271q-83 41 -116 147l-84 -26h-21l100 44q-15 57 -6 102q18 92 85 113q-31 9 -53 9q-88 0 -135 -62q-39 -54 -38 -137q3 -97 53 -167q60 -47 129 -47q60 1 86 24z" />
<glyph unicode="R" horiz-adv-x="1092" d="M1154 825l-88 -54v-23q16 -228 -134 -248q-89 -12 -163 81q-23 32 -65 71q-67 -10 -148 -102q-4 -7 -12 -26l141 -16l-27 -8l-120 3q-22 -82 -41 -247l161 69l24 1l-188 -92q-4 -34 -7 -66q29 1 55.5 -10.5t47.5 -47.5q60 -25 60 -113v-12l96 -26l29 -19l-130 21 q-16 -70 -82 -110t-140 -32q-29 3 -101 4l42 -118l3 -40l-66 159q-123 4 -180 41l-46 -80l4 23l29 66q-20 16 -33 38q-59 42 -72 138q-1 10 -2 22q0 99 100 101q50 1 83 -31q3 42 5 98l-130 -15l16 8l114 24q1 70 6 208l-115 62l-13 13l128 -54q3 45 5 85l12 159l-32 20 l-15 22l49 -26l4 72v23l-113 -36h-20l133 57q-4 54 -10 152q-1 88 77 118l-57 160l12 -9l58 -146q22 6 46 5q79 0 142 -67q69 -23 68 -120q0 -20 -5 -41q34 20 62 31l-14 118l12 -16l20 -96q64 18 123 -9q3 39 38 66.5t76 27.5q26 0 51 -12l69 129l-4 -30l-47 -108 q23 -13 61 -54q63 -31 69 -174l61 29zM980 746q1 26 -3 66q-4 45 -4 55q0 45 -10.5 66t-45.5 41l-39 -95l-16 46l33 61q-15 6 -29 6q-18 0 -41 -12.5t-28 -27.5q-13 -42 19 -117q-76 86 -145 78q-18 -1 -33 -6l20 -102l-30 14l-11 81q-28 -10 -61 -33q-79 -50 -101 -80 q-3 63 6 178q6 25 6 41q0 48 -84 85q-35 16 -68 8l30 -75l-6 -47l-41 116q-48 -23 -46 -78q3 -45 8 -134l82 35l-17 -40l-63 -20q1 -25 0 -41q-1 -23 -6 -92l124 -71l-29 -11l-96 63l-11 -136q-3 -34 -6 -100l49 -20l23 -44l-73 39q-3 -86 -4 -175l36 7l56 -20l-94 -11 q-1 -107 -7 -188q-12 -23 -27 -24q-20 0 -26 21q1 19 -10 51q-18 20 -57 23q-28 3 -53 -25q-16 -19 6 -95q15 -47 76 -77l26 60l40 10l-45 -78q29 -10 111 -10l-28 68l32 -9l22 -59l12 -1q29 0 80 -5q34 -4 62 0q57 10 92 63l4 8l-29 4l-42 54l87 -25q4 15 5 31q0 54 -43 70 q-35 15 -60 -1q-10 -6 -12 -30t-7 -30q-12 -20 -27 -21q-15 0 -22 22q-3 41 8 136l-71 -35l44 51l30 14q7 98 35 289l-61 2l25 33l42 -4q15 56 34 83q94 111 183 125q39 6 88 -65q69 -101 134 -92q80 10 97 124l-93 -60l21 59z" />
<glyph unicode="S" horiz-adv-x="1167" d="M1205 236l-23 -14l-57 -13q-16 -214 -136 -322l39 -44l18 -30l-69 64q-111 -91 -307 -99l10 -73l-4 -40l-22 113q-12 -1 -25 -2q-249 0 -348 110l-21 -117l-4 23l10 111q-57 50 -82 123q-48 16 -83 68q-31 23 -54 63l-63 -6l16 7l42 9q-35 67 -36 146q-1 97 50 158 l-28 95l22 -39l16 -44q31 29 64 29q54 0 75 -63q37 51 107 45q20 -1 38 -8l3 3q-91 29 -148 92q-61 51 -82 137l-64 34l-21 23l80 -35q-4 29 -4 60q0 113 81 180l-30 130l16 -32l27 -88q39 29 126 68l-36 33l-26 32l76 -58l21 9q79 37 184 36q22 0 45 -6l34 129l4 -19 l-20 -115q22 -7 44 -19q4 51 38.5 81t81.5 30q51 -1 92 -40l82 90l-12 -27l-57 -76q4 -4 7 -9q72 -44 88 -156q7 -51 7 -98l56 -2l28 -7l-84 -4q-3 -152 -73 -195q26 -16 51 -35l65 53l67 41l-115 -109q145 -132 144 -339q0 -28 -1 -54zM652 764q-9 13 -30 38q-22 20 -65 17 q-88 -4 -108 -32q-19 -26 15 -28h28q20 3 26 3q19 0 57 1.5t57 1.5q4 0 20 -1zM1039 322q0 143 -98 257l-41 -38l-52 -7l77 63q-126 124 -293 124q-19 0 -57 -1.5t-57 -1.5q-94 0 -85 -1q-57 4 -61 36q-18 123 160 132q85 4 134 -66q70 -105 122 -99q85 9 101 104q3 18 5 33 l-110 -4l31 28l80 -3q6 67 -3 133q-10 72 -32 95l-77 -104l-5 47l66 72q-31 23 -64 24q-59 1 -72 -41q-18 -59 13 -130q-51 57 -112 81l-14 -76l-26 17l18 66q-18 4 -34 4q-63 0 -111 -11q-22 -6 -54 -21l63 -48l-30 -12l-54 51l-28 -14q-39 -15 -117 -65l-1 -1l36 -121 l-17 -46l-34 151q-48 -53 -48 -129q0 -42 10 -80l110 -47l23 -50l-123 65q26 -61 75 -90q61 -35 139 -44l28 44l17 24l-33 -69q26 -3 54 -3q26 0 83 3q44 3 70 0q37 -1 72 -15l13 40l43 38l-37 -86q16 -6 32 -15q105 -59 114 -189l110 21l-26 -35l-82 -8v-20q0 -48 -34 -145 q-44 -127 -250 -136q-140 -6 -192 67q-35 51 -27 97q16 -37 55 -37q23 0 49.5 13.5t59.5 59.5l-24 6l-19 31l51 -21q20 45 11 109q-6 32 -24 42q-12 6 -25 -4q-7 -7 -16.5 -48.5t-18.5 -49.5q-29 -34 -55 -34q-34 0 -34 29q0 15 6 30q35 73 7 120q-9 15 -23 23l-28 -57 l-53 -28l60 95q-9 3 -17 5q-41 3 -68 -34q-32 -41 -30 -189q-37 34 -49 72q-3 9 -3 20q0 15 6 49.5t6 47.5q0 12 -4 19q-10 23 -29 28q-28 6 -52 -24l-3 -4l38 -105l-38 39l-13 45q-34 -60 -25 -112q16 -85 44 -126l106 23l55 -20l-151 -18q44 -56 81 -55q18 0 31 14 q6 -101 60 -160l8 92l34 23l-23 -133q92 -79 295 -79q26 0 51 1l-19 94l30 -15l10 -77q152 13 241 85l-105 99l61 -12l63 -70q70 64 100 158q10 34 14 60l-124 -30l16 38l113 16q3 29 3 111zM806 284v17l-104 -10l-19 6l122 22q-7 83 -46 114q-37 23 -85 31l-48 -116l2 29 l30 88q-13 1 -153 2q-72 0 -135 17l-3 -6q23 -15 38 -38q37 -6 47 -46q15 25 38 26q45 0 70 -48q60 -28 60 -119q0 -34 -10 -67l70 -27h-17l-56 17q-34 -101 -117 -128q26 -6 57 -6q76 0 141 30q70 32 87 82q31 89 31 130z" />
<glyph unicode="T" horiz-adv-x="896" d="M878 723l-106 -6q-3 -28 -10 -82q-13 -120 -38 -167q-37 -66 -134 -95q-41 -12 -93 -1q-1 -28 -3 -66l113 -32l32 -18l-145 28q-12 -247 14 -357q34 1 58.5 29.5t20.5 61.5q-7 54 -8 65q1 44 68 85q39 26 79 25h13l51 117l-6 -28l-29 -93q39 -10 60 -47q60 -28 60 -110 q1 -129 -62 -229l41 -30l24 -30l-75 45q-107 -152 -304 -154h-31l10 -57l-3 -50l-24 109q-107 13 -156 88l-5 5l-91 -159l4 23l72 150q-64 67 -83 296l-131 -14l17 7l111 25q-9 79 -3 195l-126 51l-16 13l143 -42q1 23 5 86q-91 3 -125 70q-61 35 -61 126q0 82 54 113 l-70 147l26 -28l62 -112q10 3 20 3q31 0 64 -22q26 -18 41 -12q9 57 8 114q-1 44 -11 98l-125 68l-21 23l142 -60q-10 53 -20 170q0 102 52 147l-25 53l-13 38l48 -83q31 20 69 20q42 -1 78 -17l22 93l-2 -52l-7 -49q20 -12 39 -29q92 -83 88 -203q0 -13 -1 -40q35 19 92 19 q29 0 51 -7l88 95l-12 -26l-58 -78q20 -13 32 -35q59 -25 60 -118q0 -23 -2 -55l75 -1zM787 78q-1 61 -45 68l-25 -76l-47 -32l48 110q-28 -3 -49 -16q-35 -22 -46 -46q6 -26 9 -89q0 -34 -21 -58q-28 -37 -105 -53q-20 -4 -43.5 5.5t-29.5 25.5q-12 29 -31 171q-3 56 3 213 l-42 9l-29 41l73 -20q4 126 1 149q19 -16 59 -22q39 -7 63 0q99 29 122 102q16 44 27 154l-88 -5l31 28l58 -1l5 55q10 94 -27 113l-74 -99l-5 46l54 59q-10 1 -20 1q-60 0 -83 -27q-13 -18 -14 -93q4 -48 9 -98q6 -63 -6 -71q-18 -15 -41 -16q-32 0 -74 29q3 123 9 174 q12 76 24 212q4 79 -48 133l-26 -158l-22 38l32 135q-26 19 -60 19q-32 0 -53 -12l63 -107l-38 19l-36 78q-29 -29 -30 -108q10 -63 30 -193l45 -19l23 -50l-64 33q1 -16 2 -27q1 -145 -14 -182q-20 -23 -58 -20q-16 1 -41.5 18t-42.5 15l43 -79l-12 -35l-51 107 q-31 -18 -32 -64q0 -41 27 -77.5t90 -36.5q48 0 79 17q-3 -57 -10 -205l90 -27l-49 -16l-43 17q-3 -111 2 -168l39 9l56 -21l-94 -10q10 -126 26 -187q10 -38 35 -69l40 82l39 10l-61 -110q34 -32 69 -41q23 -6 48 -7l-25 107l29 -15l18 -92h1q114 0 188 54q45 32 73 66 l-94 56l60 1l50 -35q35 51 53 159q5 29 4 55z" />
<glyph unicode="U" horiz-adv-x="1252" d="M1296 415l-35 -14l-82 -21q7 -50 7 -99q-3 -257 -147 -397l57 -68l13 -27l-84 84q-80 -70 -231 -94l13 -105l-4 -40l-26 142q-56 -7 -114 -7q-130 0 -249 48q-111 47 -174 120l-76 -133l4 23l59 123q-45 47 -63 111q-16 57 -18 147l-112 -12l16 7l96 21q0 56 5 143 q7 104 7 144q-45 10 -79 43q-54 56 -69 161l-74 40l-21 23l92 -39q-1 16 -1 30q1 86 45 139q32 41 72 43q20 1 38 -10q1 15 -4 49q-19 105 55 145l-28 123l21 -32l26 -84q23 9 51 8q94 0 138 -67q31 -15 51 -63q9 0 19 -3l26 90l16 35l-26 -131q31 -13 48 -44 q51 -32 52 -120q0 -38 -64.5 -91.5t-70.5 -88.5v-25q0 -28 5 -82.5t5 -82.5v-75l101 -30l27 -12l-128 25q1 -35 2 -51q0 -18 -6 -81q-3 -56 -2 -88q3 -47 18 -74q15 -9 34 -13l55 118l18 23l-56 -146q28 -4 62 -4q193 0 245 104l-125 -12l-19 6l153 26q22 59 22 158 q0 92 -32 165l-62 132q-37 4 -70 32l-45 -146l1 29l28 132q-9 10 -16 20q-82 60 -80 199q1 126 73 170l-38 133l13 -13l41 -111q12 4 25 6q69 10 83 -50q44 47 108 47q9 0 18 -2l38 149l1 -29l-19 -123q44 -10 72 -35q16 -15 32 -51q19 19 56 19q37 -1 58 -44 q63 -19 63 -129q-1 -129 -105 -177q-23 -12 -48 -14q22 -31 39 -66l78 53l45 19l-113 -91q37 -80 52 -177zM1144 907q1 54 -29 66q-19 7 -37 -8q-7 -6 -10 -43t-12 -46q-28 -32 -52 -32q-53 1 -25 56q18 38 16 73q-1 56 -53 74l-15 -95l-26 40l16 61q-53 3 -80 -35 q-35 -47 -35 -124q0 -28 5 -54q-26 10 -32 22q-1 3 -11 39q-6 18 0.5 62.5t3.5 60.5q-9 37 -42 32q-7 -1 -17 -4l27 -73l-32 19l-12 42q-47 -38 -42 -149q3 -69 32 -110q13 -20 32 -31l6 30l42 38l-25 -79q38 -10 69 10q18 -99 61 -170q59 -92 59 -228q0 -95 -15 -149l84 15 l-40 -36l-52 -4q-29 -80 -117 -123q-60 -29 -180 -29q-44 0 -78 7l-35 -93l-7 51l22 47q-82 25 -112 109q-10 31 -7 125q4 152 5 131l-55 12l-36 41l91 -26v92q0 23 -5 60q-4 42 -6 70q-3 92 24 101q23 4 74 32q48 39 47 120q-1 42 -31 61l-17 -84l-19 38l16 55 q-23 6 -41 -26q-6 -18 -12 -34q-9 -22 -26 -22q0 135 -9 155.5t-44 41t-64 18.5q-22 0 -37 -5l40 -131l-25 -45l-37 164q-13 -12 -20 -31q-9 -28 -3 -60q6 -28 12 -55q1 -25 -3 -109q-6 -101 -6 -156q-34 32 -45 69q-6 15 0 52q9 48 8 57q0 38 -32 46q-26 6 -48 -22 q-41 -50 -41 -112q0 -15 7 -49l104 -44l23 -50l-118 63q10 -37 28 -60q47 -66 86 -66q16 0 28 13q1 -39 -6 -161q-6 -45 -6 -181l54 12l56 -21l-110 -11q1 -127 32 -185q10 -19 25 -36l53 111l39 10l-77 -137q47 -47 133 -79q111 -41 224 -41q72 0 142 11l-19 101l29 -14 l10 -82q111 23 171 71l-86 85l61 -11l46 -55q23 22 41 52q79 129 80 304q1 47 2 41l-98 -24l29 38l67 11q-1 78 -23 146l-79 -61l13 48l57 38q-9 22 -18 42q-25 51 -55 91q-9 10 -15 23l-44 -51l-36 -31l73 97q-9 28 -6 53q9 -19 25 -28l104 139l4 -41l-90 -104q28 -4 58 12 q28 12 60 63q21 32 22 86zM398 847l-85 -212l-35 -16l105 216z" />
<glyph unicode="V" horiz-adv-x="1043" d="M1059 1078l-13 -23l-85 -87q12 -19 18 -38q29 -88 32 -165q3 -76 -22 -136l69 -66l-35 16l-41 34q-9 -19 -103 -183l53 -3l28 -7l-90 -5q-48 -83 -74 -147q-6 -12 -40 -92l104 -31l26 -10l-137 24q-64 -152 -111 -237l60 -43l33 -40l-101 67q-12 -19 -21 -36 q-54 -91 -138 -92q-19 0 -37 5l8 -57l-5 -39l-17 101q-38 18 -59 54q-35 19 -51 61q-25 75 -77 226l-12 30l-88 -153l5 23l74 157q-78 215 -113 329l-114 -15l16 8l94 22q-18 57 -31 108q-18 63 -46 186l-100 54l-29 25l124 -53q-3 29 -3 54q3 114 98 171l-42 182l20 -33 l43 -137q45 22 77 23q67 3 79 -82q16 56 92 57q9 0 17 -1l33 129l2 -49l-16 -86q26 -10 45 -41q51 -22 70 -112l64 46l-17 -23l-44 -40q6 -35 7 -74q1 -88 -19 -133q-25 -59 -64 -76q-73 -31 -79 -35q18 -66 50 -141q38 -88 54 -139q47 83 150 271l-137 -13l-20 4l168 29 q79 148 85 204q4 34 -21 104.5t-23 99.5q0 31 17 52l-45 41l-40 45l98 -73q28 22 60 23q75 3 134 -72q25 -16 43 -40zM923 821q-1 42 -16 93l-60 -61l13 54l40 34q-12 35 -24 54q-16 23 -41.5 40t-65.5 15q-10 -1 -19 -4l62 -47l-29 -12l-52 46q-6 -9 -8 -19q-3 -15 20 -66 q35 -78 26 -148q-7 -69 -74 -190l82 15l-43 -35l-54 -5l-60 -108q-69 -129 -172 -306q-19 70 -78 230q-67 152 -85 241q9 23 73 51q31 13 38 18q25 18 40 51q10 23 10 73l-70 -61l4 45l66 48q-1 47 -7 93q-10 63 -32 74l-2 2l-17 -92l-24 32l18 66q-37 1 -51 -24 q-4 -7 -5 -26q0 -18 3 -44q12 -89 -3 -116q-22 -38 -64 -54q-15 67 -15 187q0 102 -39 101q-25 -1 -66 -22l23 -74l-23 -38l-24 98q-70 -47 -62 -129q4 -35 10 -74l63 -27l14 -44l-71 38q23 -114 66 -254l89 22l-8 -31l-76 -10q38 -118 97 -275l29 60l29 -12l-46 -80 q75 -199 98 -292q10 -42 55 -54l-29 154l29 -15l19 -142h2q59 0 101 71q9 13 17 29l-123 80l53 -3l80 -58q37 69 93 196l-82 15l13 30l79 -22q29 70 93 208l-77 -4l35 33l56 -3q50 80 137 245l-53 45l-14 54l77 -74q13 41 12 114z" />
<glyph unicode="W" horiz-adv-x="1514" d="M1543 660l-66 17q-13 -72 -38 -164l65 33l-34 -28l-35 -22q-42 -155 -133 -405l92 -97l13 -22l-111 103l-1 -6q-37 -99 -74 -209q-18 -54 -68 -74l16 -92l-3 -29l-28 117q-16 -4 -32 -4q-78 0 -130 76q-29 23 -51 60q-41 67 -82 153l-82 -26h-21l95 41q-26 54 -63 140 q-31 -72 -103 -228l39 -58l13 -38l-60 82q-26 -53 -51 -93q-66 -110 -142 -109q-85 -1 -107 61q-6 3 -11 6l-60 -135l1 30l45 115q-22 22 -30 57q-29 117 -111 337l-9 22l-120 -14l16 8l98 22q-63 170 -92 263l-79 42l-13 14l86 -37q-10 37 -19 69q-13 44 -37 139l-105 -53 l-23 -4l124 79q-12 59 -12 102q0 88 49 139l-106 120l19 -6l103 -99q54 47 114 47q73 1 93 -68q18 44 84 51l-12 158l7 -11l19 -147q47 -1 76 -48q78 -35 81 -203q1 -88 -19 -133q-25 -59 -65 -76q-73 -31 -79 -35q18 -66 50 -141q38 -88 54 -139q47 83 94 168q41 86 48 172 l-105 -63l15 19l90 65l2 24q-1 47 -15 146q-13 95 -12 148q0 28 3 53l-76 48l-14 22l93 -53q19 107 106 119l-15 115l12 -16l20 -98q12 1 25 0q92 -7 107 -107q26 39 70 38q35 -3 57 -44q7 -3 15 -7l111 89l-16 -25l-81 -77q28 -31 28 -78q16 7 34 9q18 0 36 -6 q47 -15 60 -64q25 104 123 108q48 3 86 -28l56 79l19 18l-66 -105q12 -10 21 -24q78 -45 79 -169q1 -37 -9 -97l39 -15zM1123 534h-4q-94 -9 -140 102q-7 16 -12 43l-54 16l23 1l29 -4q-4 31 -4 64v24q-37 -23 -80 -25q20 -111 84 -274l75 -1l28 -7l-97 -5q29 -75 68 -156 q33 73 84 222zM1400 827q-1 83 -34 115l-98 -158l13 67l72 101q-28 19 -60 19q-35 0 -55 -25q-31 -37 -31 -89q0 -120 -15 -187q-15 3 -29.5 8t-31.5 36q-9 16 -9 50q0 19 7 70q4 35 -6 64t-33 34q-26 6 -46 -12.5t-27 -68.5q-16 -101 -6 -166l102 -18l12 -35l-110 32 q16 -59 79 -85q3 -1 47 0q29 1 32 -25q-10 -53 -54 -153q-29 -66 -79 -230q-50 69 -139 294l-120 -6l31 28l82 -3q-16 41 -29 79q-48 140 -60 182q-16 60 -19 130q15 -32 51 -32q20 0 45 11.5t56 59.5q19 29 20 79l-55 -54l3 47l51 41q-6 20 -27 32q-15 9 -35 -7 q-6 -6 -8.5 -41t-11.5 -44q-26 -31 -50 -31q-31 1 -31 24q0 12 11 38t10 52q-4 85 -81 85l19 -92l-30 6l-11 85q-57 -13 -71 -97l82 -45l-30 -12l-55 35q-4 -37 0 -83q12 -67 28 -228l80 58l-9 -41l-71 -44q-1 -118 -47 -200q-69 -129 -173 -306q-19 70 -77 230 q-67 152 -85 241q9 23 73 51q31 13 38 18q25 18 39 51q23 56 3 198q-12 78 -51 82l10 -87l-17 -44l-10 131q-28 -4 -38.5 -21t-2.5 -73q12 -89 -3 -116q-22 -38 -65 -54q-15 67 -14 187q0 70 -28 90q-7 6 -21 4q-41 0 -90 -36l55 -53l-7 -38l-67 76q-39 -42 -34 -107 q3 -35 10 -74l76 48l6 -38l-76 -38q22 -113 65 -252l80 -34l23 -43l-96 51q29 -89 77 -226l57 12l56 -20l-105 -12q47 -126 121 -353q3 -9 7 -17l31 77l43 38l-60 -133q23 -22 55 -22q60 1 101 71q35 57 70 131l-77 104h33l55 -82q44 108 137 315l135 -303l120 51l-18 -39 l-94 -31q42 -91 75 -146q41 -67 100 -71q29 -1 54 21l-37 152l22 53l32 -185q32 97 82 245l-82 76l32 9l59 -62l88 244l-92 -58l16 53l89 43q7 20 23 85q28 105 38 163l-120 32l38 17l85 -30q12 66 12 104z" />
<glyph unicode="X" horiz-adv-x="1215" d="M1201 1170l-16 -25l-97 -93q32 -16 49 -62q13 -37 13 -96q0 -104 -47 -157q-20 -23 -57 -33q-57 -16 -61 -19l39 -57l10 -27l-66 76q-45 -25 -128 -137l120 -28l26 -10l-158 22q-45 -60 -76 -92q60 -38 111 -107l70 109l-6 -26l-52 -102l6 -8q39 -56 84 -166q15 25 46 39 l-32 111l3 24l46 -128q19 6 40 5q45 0 66 -43q54 -22 57 -109q4 -130 -73 -190l57 -71l11 -25l-80 87q-70 -47 -196 -47q-75 0 -114 61l-54 -120l-22 -33l55 171q-45 42 -89 194.5t-95 206.5q-39 -50 -117 -147l47 -106l-18 22l-41 71q-56 -70 -101 -121q12 -6 43 -35 q13 -18 19 -44l111 -13l-29 -6l-79 1q1 -12 0 -22q-3 -73 -76 -128q-67 -51 -144 -53q-48 -1 -92 18l-17 8l-63 -106l4 23l44 89q-28 13 -64 38q-22 15 -43 46q-37 25 -53 67l-103 -13l43 22l53 11q-3 15 -3 28q-3 69 50 116q6 4 99 77l17 15q-51 37 -62 145l-99 -32h-21 l119 51v14.5v24.5q1 18 1 28q0 66 47 108q42 38 98 40q66 0 88 -50q50 -18 51 -79q0 -19 -6 -42q38 41 114 125q-97 101 -211 239l-127 -21l-19 3l132 34q-35 32 -69 64q-35 39 -41 87q-10 98 101 149l-13 183l7 -12l21 -165q26 9 51 10q73 1 98 -69q4 -20 17 -61q4 7 5 17 q0 12 -6.5 42.5t-6.5 48.5q0 35 22 57l-68 82l-7 26l89 -96q32 20 65 19q41 -3 67 -44q72 -29 73 -160q0 -127 -91 -184q16 -19 52 -54q37 35 121 130q72 82 67 100q-15 61 -14 128q0 133 74 136l-16 126l12 -16l23 -111q32 -7 69.5 -29t43.5 -43q34 32 77 32q45 -1 68 -35z M1100 16q12 88 -9 113q-15 19 -47 7l30 -80l-37 19l-14 52q-12 -7 -18 -14q-6 -19 -18 -50q-12 -23 -27 -25q-20 -3 -40 31q-16 51 -76 178l-47 -90l-19 38l51 77q-12 18 -24 37q-51 69 -91.5 97t-81.5 56q39 38 75 78l-74 10l25 29l69 -14q41 48 79 104q42 61 92 92l-35 41 l21 30l39 -58q10 4 21 7q26 3 70 18q20 13 39 64q7 23 8 70q-1 48 -9 81v1l-57 -54l3 47l42 34q-10 13 -23 17q-41 12 -60 -28q-6 -12 1 -51q13 -57 9 -79q-6 -35 -35 -26q-18 13 -26 107q-6 79 -44 101q-12 7 -37 17l18 -79l-31 6l-9 73q-12 -4 -23 -17q-15 -19 -16 -63 q-1 -26 9 -74.5t10 -72.5q0 -31 -87 -125q-120 -135 -152 -163q-22 31 -86 98q-28 22 -78 88q31 3 57 19q20 13 27 19q16 16 26 42q20 57 -1 151q-9 37 -36 45q-16 4 -39 -7l48 -51l-30 -2l-34 40q-3 -3 -4 -7q-6 -12 1 -52q15 -63 4 -84q-13 -26 -30.5 -31.5t-34.5 -9.5 q-15 23 -30 68q-4 16 -7 33q-9 25 -28 32q-32 15 -74 -3l8 -67l-17 -44l-8 102q-67 -38 -61 -98q4 -38 45 -76q34 -34 69 -67l51 13l46 -21l-81 -13q34 -42 54 -64q64 -73 164 -179q-75 -83 -194 -222q-44 1 -65 41q-18 34 -11 61q16 79 14 85q-9 35 -42 35q-26 1 -70 -25 q-37 -22 -37 -80q0 -10 -1 -25v-23l95 41l-18 -40l-77 -25q1 -20 5 -42q19 -92 78 -92q18 0 38 6q-75 -61 -189 -157q-35 -31 -35 -76q0 -12 3 -23l100 23l49 -32l-140 -18q12 -22 32 -36q44 -28 88 -49q13 -6 22 -8l32 65l39 11l-48 -82h18q92 0 142 57q29 31 41 60l-74 1 l15 31l64 -7q0 22 -15 41t-42 13q-13 -3 -35 -17t-29 -14q-19 0 -19 18q0 9 9 17q104 105 202 225l-25 44l20 34l24 -53q29 38 48 66q15 20 57 69q139 -48 215 -351q15 -61 41 -95l29 89l29 -35l-33 -76q22 -16 51 -16q51 0 104 11q20 4 63 24l-79 83l51 -9l47 -58l7 7 q32 29 41 85z" />
<glyph unicode="Y" horiz-adv-x="1003" d="M1078 598l-93 -42q0 -60 -21 -98q-15 -31 -132 -320l88 38h24l-120 -59q-60 -116 -163 -355l97 -12l-27 -7l-76 2q-34 -113 -118 -333l61 -69l13 -25l-81 78l-18 -32q-38 -70 -118 -120q-89 -54 -186 -53q-23 0 -46 3l24 -149l-5 -27l-42 182q-91 20 -132 86 q-64 42 -79 123q-32 -9 -71 18l-5 1l-58 -101l4 23l40 91q-54 51 -53 148q0 69 31 116q32 53 83 52q54 0 73 -35q12 12 24 18l-40 133l-1 41l58 -167q15 4 31 4q85 0 107 -70q4 -18 7 -32q16 45 72 47q51 0 67 -53q35 101 51 190q-10 32 -38 97l-137 -46l-22 2l150 64 q-50 108 -152 345l-140 -19l26 12l107 25l-12 29q-60 151 -88 265l-83 44l-15 15l94 -40q-16 73 -18 127q0 79 31 119q19 22 40 36l-32 117l19 -19l27 -89q22 10 46 10q69 1 106 -39q28 -29 34 -54q25 59 85 58q37 0 61 -19l40 114l-2 -41l-26 -86q6 -9 9 -19q39 -16 50 -55 q29 -101 27 -172q0 -110 -60 -150q-37 -16 -81 -43q19 -51 77 -177q9 -19 26 -57q85 146 136 258l-68 146l19 -20l61 -103q54 121 59 180q1 31 -26.5 95t-27.5 92q1 45 40 69q23 13 56 13q10 0 21 -1l32 127l4 -41l-16 -92q59 -19 89 -66q25 -18 43 -41l111 89l-16 -25 l-84 -80q50 -80 55 -216l64 24zM897 595q-1 26 -6 76q-3 29 -13 65l-54 -53l3 47l42 34q-22 61 -56 84q-18 13 -33 18l-15 -82l-22 38l12 48h-9q-47 0 -54 -35q-3 -13 22 -58q38 -67 34 -132q-6 -78 -77 -221l27 -45l-6 -57l-35 74q-12 -25 -29 -60q-98 -190 -154 -272 q-22 63 -86 204q-48 94 -82 206q6 23 64 51l37 19q26 18 36 48q12 38 -4 158q-4 28 -9 49l-32 -103l-34 -33l56 162q-12 23 -38 23q-35 0 -47 -24q-19 -38 -13 -63t12 -75q1 -20 -5 -34q-16 -32 -61 -51q-18 60 -24 168q-4 75 -47 98q-23 13 -46 12q-16 0 -33 -7l39 -119 l-19 -24l-36 131q-15 -12 -22 -25q-28 -50 -14 -133q7 -44 22 -96l76 -33l23 -43l-92 48q37 -121 91 -255l71 18l28 -28l-90 -12q18 -42 38 -89q37 -78 111 -244l66 28l-18 -40l-38 -13q25 -61 40 -107q-13 -75 -22 -107q-16 -64 -44 -131q-83 -190 -174 -176q-44 7 -33 65 q13 -22 37 -22q15 1 45 10q29 16 45.5 46.5t16.5 63.5q-1 50 -24 60q-18 9 -33 -5q-6 -28 -25 -70q-26 -23 -50 -23q-23 0 -26 11q-3 6 3 31q9 48 -2 79q-7 26 -47 35q-19 4 -32 2l40 -113l-32 10l-28 95q-15 -9 -27 -28q-20 -32 -20 -128q-15 12 -31 54q-3 6 -3 14 q0 10 5.5 35t5.5 34q0 29 -30 34q-23 4 -44 -16q-38 -38 -39 -106q0 -67 29 -101l3 -2l21 45l39 10l-42 -73q50 -37 86 -6q12 -155 158 -180l-23 100l43 -44l9 -60h16q83 -1 161 47q72 42 104 102q12 22 21 41l-46 42l-3 50l62 -67q34 69 89 253l-104 3l25 33l86 -10 q19 59 43 125q12 34 74 147l-87 -42l43 51l63 26q32 61 59 129q25 80 118 296l-82 -37l18 37l77 29q11 26 11 61z" />
<glyph unicode="Z" horiz-adv-x="1313" d="M1283 259q-1 -85 -51 -155q-53 -75 -109 -85q-1 -29 -5 -54l111 -45l32 -22l-148 45q-34 -133 -199 -132l73 -79l12 -25l-113 104q-22 1 -45 6q-69 16 -278 37h-79l-13 -95l-13 -50l12 145q-224 0 -302 19l-85 -141l5 32l55 116q-44 18 -71 66q-60 31 -60 99q0 59 67 135 l-51 136l20 -26l46 -95q47 44 124 121q34 35 101 118l-89 50l-34 25l136 -57q85 104 146 155q26 22 60 47l-22 50l-13 45l50 -83q48 38 127 101q-9 0 -39.5 7t-48.5 7q-80 6 -141 -48q-45 -51 -91 -103q-53 -56 -111 -52q-48 1 -84 32l-33 -105l3 29l19 89l-14 18 q-91 59 -89 237q0 66 15 121l-57 70l-21 37l85 -85q38 111 146 113q10 0 19 -2l56 166l-1 -44l-36 -125q73 -22 79 -109q44 25 82 39l-71 54l-15 22l107 -70q45 15 88 15q47 0 114 -18q78 -22 109 -25l-19 152l12 -16l29 -137q35 0 114 11q73 13 115 11q53 -4 80 -30l88 71 l-16 -25l-59 -57q6 -7 10 -15q61 -31 62 -132q0 -54 -47 -118l56 -12l27 -16l-95 13q-57 -72 -194 -177q-161 -124 -184 -146q34 9 58 -13q16 -12 25 -40q1 34 23 71q37 60 103 60q19 0 36 -6l78 146l19 15l-78 -170q22 -10 37 -29q4 10 19 33q26 28 64 27q35 -1 68 -34 l36 92v-26l-23 -84v0q38 -22 64 -77.5t25 -119.5zM1197 300q7 45 -19 99l-28 -101l-27 33l39 96q-26 39 -58 32q-19 -4 -29 -27q-4 -7 -4 -19q0 -13 6 -47t6 -49q0 -13 -2 -20q-13 -39 -48 -72q0 146 -29 185q-15 22 -28 29l-51 -113l-3 60l32 60q-9 1 -21 0q-39 -3 -60 -36 q-29 -48 6 -120q7 -15 7 -30q0 -29 -33 -29q-26 -1 -56 32q-9 10 -18.5 51t-16.5 47q-13 12 -25 5q-18 -10 -23 -43q-7 -44 3 -86l58 25l-17 -40l-32 -10q28 -54 64 -72q26 -13 50 -13q39 0 57 37q3 -61 -24 -100q-19 -26 -57 -26q-28 0 -94.5 20.5t-98.5 21.5h-187 q-101 4 -89 52q15 63 158 193q50 47 99 108q47 56 75 79q91 67 229 178q22 22 66 63l-96 14l30 27l90 -17q80 80 80 137q0 45 -17 71l-98 -96l2 47l79 63q-26 18 -62 18q-34 0 -100 -12.5t-101 -12.5l12 -53l-31 6l-6 50q-28 3 -111 22q-70 18 -114 16q-18 0 -38 -3l75 -50 l-30 -12l-74 56q-121 -28 -189 -105q31 73 12 130q-7 28 -43 38l-29 -104l-32 -13l41 120q-41 1 -78 -29q-28 -22 -38 -75l78 -78l-15 -36l-67 82q-13 -89 3 -185q12 -72 57 -93l16 74l42 38l-38 -119q10 -3 22 -3q56 -3 125 99q26 39 87 72q69 37 133 32q7 0 75 -15 q61 -13 105 -13q63 0 113 24q-39 -61 -268 -237l54 -93l-27 -27l-46 103q-45 -34 -152 -138q-18 -20 -32 -39l80 -33v-40l-96 53q-26 -35 -107 -129q-48 -44 -137 -131l30 -65l-16 -36l-30 82q-38 -45 -38 -90q1 -44 52 -79q18 -10 67 -16l28 57l53 15l-45 -75q29 -1 261 -6 l9 107l25 -22l-12 -85h24q94 -3 262 -33l-59 54l62 -12l45 -49q19 -1 36 -2q127 0 154 73l-80 25l17 32l70 -28q12 60 5 117q12 -15 29 -14q41 0 89 69q30 41 46 127zM831 85q-107 7 -146 114l-147 -48h-20l159 68q-9 35 -8 72q0 34 10 63q-51 -60 -101 -105 q-85 -76 -120 -128l120 2q80 0 127 -13q97 -28 111 -28q11 0 15 3z" />
<glyph unicode="[" horiz-adv-x="789" />
<glyph unicode="]" horiz-adv-x="784" />
<glyph unicode="a" horiz-adv-x="961" d="M944 559l-91 -3q10 -69 10 -160q0 -54 -10 -146l76 -23l-19 1l-57 10q-3 -28 -7 -57q29 -9 45 -33q50 -22 47 -101q-4 -95 -75 -144l18 -20l13 -18l-38 34q-23 -13 -49 -16q-53 -9 -81 -9q-67 0 -98 60q-104 -76 -215 -105v-60l-3 -24l-6 81q-50 -13 -95 -13 q-138 0 -196 70l-40 -85l3 18l26 80v0q-95 67 -95 201q0 67 25 127l-76 36l13 -1l68 -25q64 143 225 202q44 16 80 17q102 4 119 -93q3 -15 3 -26q0 -86 -92 -110q-18 -4 -34 -13l28 -44l8 -21l-43 59q-41 -25 -62.5 -69.5t-15.5 -79.5q20 -13 62 -12q67 3 155.5 68 t101.5 126q10 45 10 44q-7 -1 -16 -1q-61 0 -99 93q-28 72 -28 141q0 20 1 36l-35 25l-11 12l48 -29q15 73 102 89q26 4 46 -9q-26 26 -112 27q-67 0 -90.5 -48.5t-43.5 -95.5q-42 -53 -152 -58q-72 -4 -94 48q-48 26 -50 121l-42 8l-12 4l53 -4q0 162 60 202l-54 105l7 -4 l56 -96q23 12 49 12q53 0 79 -41q72 61 212 66l-13 107l8 -12l22 -95q170 -1 256 -92q9 -7 16 -13l71 48l-13 -16l-50 -40q72 -69 97 -200l72 -7zM869 59q10 76 -34 89q-22 7 -51 -50q-4 -10 -16 -7q-12 4 -9 19q10 59 21 142l-69 13l28 19l42 -13q12 105 12 161 q0 91 -3 121l-51 -2l9 30l39 -3q-15 99 -66 168l-74 -60l-12 19l76 53q-39 48 -105 70q-53 19 -126 22l13 -57l-25 4l-7 53q-42 -1 -133 -25q-73 -19 -125 -117q19 73 14 88q-9 29 -52 29q-15 0 -30 -9l39 -67l2 -38l-52 99q-37 -23 -38 -77q0 -7 -3 -40t-3 -55l98 -8 l18 -23l-114 21q0 -13 3 -27q15 -70 70 -67q95 4 127 44q9 10 22 61q12 42 52 69.5t87 27.5q95 0 136 -34q72 -60 72 -190q0 -48 -10 -94q-34 -7 -43 31q0 1 -1 60q1 37 -5 81q-23 28 -42 23q-34 -6 -58 -26q-16 -13 -18 -47l79 -47l4 -28l-83 62v-12q-1 -61 23 -124 q32 -79 82 -79q20 0 44 13q3 -7 -16 -94q-16 -73 -123 -152q-92 -66 -168 -70q-126 -6 -133 86q-4 64 42 119q31 34 60 51l-39 52l26 2l26 -45q26 13 57 20q64 13 66 66q1 26 -18.5 43.5t-52.5 13.5q-124 -15 -243 -141q-19 -20 -35 -54l68 -25l14 -32l-88 43 q-23 -57 -24 -111q0 -108 71 -166l14 46l30 1l-27 -58q57 -37 144 -37q57 0 122 23l-4 59l21 -16v-38q117 45 206 127q-3 -10 -3 -20q0 -31 22 -52.5t52 -21.5q26 0 77 8q9 1 26 6l-97 87l50 -8l63 -72q9 7 23 20q31 27 37 74z" />
<glyph unicode="b" horiz-adv-x="857" d="M914 303l-17 -3l-72 -7v-15q0 -173 -89 -281l77 -60l16 -16l-103 64q-111 -118 -297 -118q-23 0 -59 4l2 -63l-3 -23l-8 88q-91 15 -133 1q-45 -13 -69 -13q-75 0 -106 60q-4 3 -8 7l-60 -52l11 14l41 47q-42 48 -25 108q9 29 10 69l-124 -12l39 15l85 18v25.5v23.5 q0 31 4 91l-124 59l15 -2l109 -39q4 51 12 168l-102 -50l-15 -1l118 67q3 59 3 123l-80 13l-10 6l90 -8q0 193 -8 312l-106 79l9 -1l97 -65l-9 106q-7 95 86 120l-10 86l7 -12l16 -72q12 1 24 3q57 0 86 -39q7 -9 23 -54q44 15 55 14q47 0 65 -42q20 -4 31 -23l70 48 l-13 -16l-52 -43q19 -47 -6 -168q-13 -70 -125 -113v-57q76 31 152 33q54 0 104 -14l50 65l18 14l-52 -84q57 -20 123 -78q13 -9 37 -32l107 79l-12 -15l-83 -77q91 -102 98 -261zM755 313q0 111 -38 181q-12 22 -25 41l-32 -29v32l20 15q-51 70 -143 105l-37 -61l-19 23 l34 44q-31 9 -69 10q-51 0 -118 -20q-10 -3 -87 -37q-28 -12 -29 11v65q1 48 0 84q19 7 59 22q66 29 76 80t11 89l-49 -41l-12 21l60 41q-3 44 -26 58q-16 9 -37 5q-41 -9 -32 -81q7 -54 -3 -64q-20 -23 -50 -29q0 38 3 95t3 64q0 64 -17 83.5t-66 11.5l17 -83l-23 4l-10 75 q-37 -10 -52 -43q-7 -18 -3 -64q7 -60 11 -110l52 -35l19 -33l-71 52q7 -102 6 -286l58 -5l16 -23l-74 13q-1 -50 -3 -97l36 22l28 -7l-64 -34l-2 -8q-1 -34 -12 -191l25 -8l15 -33l-41 21q-3 -47 -3 -75v-42l59 13l-11 -32l-48 -5q-1 -45 -12 -83q-12 -39 15 -72l48 55 l27 -12l-63 -54q23 -20 52 -21q19 0 57 12t65 10q37 -4 109 -14l-5 65l20 -16v-51h24q94 0 162 32q54 23 95 62l-50 30h50l18 -13q80 86 86 237l-60 -6l20 27h40v7zM636 171l-42 31q-20 -54 -77.5 -96t-158.5 -42q-57 0 -93 54q-31 42 -31 107q0 28 2 56l-43 7l-7 25l51 -13 q7 95 29 143q15 29 32 50l-51 37l25 8l38 -33q44 42 116 39q88 -3 137 -63q44 -53 44 -196q0 -37 -7 -67l32 -19zM581 285q0 129 -40 177q-38 23 -83 24q-51 0 -91 -31l38 -34l15 -17l-60 44q-23 -20 -37 -50q-19 -38 -26 -113l86 -22l21 -11l-109 19q-3 -38 -2 -81 q0 -44 22 -82q23 -18 43 -17q92 0 144 38t70 89l-88 64l-11 11l102 -60q6 23 6 52z" />
<glyph unicode="c" horiz-adv-x="1034" d="M961 189l-76 -5q1 -19 1 -32q-1 -136 -111 -238l66 -73l10 -19l-89 81q-34 -29 -72 -48q-111 -57 -223 -63l23 -55l3 -22l-38 77h-47q-151 0 -251 101l-40 -69l4 19l27 60q-13 13 -25 30q-85 92 -108 238l-79 -9l13 6l64 15q-4 39 -4 80q0 117 39 217l-101 50l-10 11 l116 -49q51 118 161 204l-72 139l9 -7l71 -123q79 61 186 105q26 12 59 14l-16 124l8 -13l24 -110q53 0 99 -19q1 34 29 56.5t63 22.5q48 0 74 -23q13 -16 27 -33l81 63l-13 -19l-56 -52q44 -34 44 -90q0 -12 -2 -23q-9 -38 -4 -95l72 -3l22 -6l-92 -4q4 -39 2 -54 q-1 -69 -84 -75q-61 -4 -126.5 62.5t-100.5 66.5q-44 0 -141 -79l12 -75l-9 21l-11 46q-105 -91 -106 -212q0 -15 2 -27l39 -11l22 -8l-61 10q7 -113 50 -183q6 -6 11 -10l68 85l-9 -31l-44 -67q34 -22 73 -22q155 0 215 73l-139 58l44 -7l105 -31q18 51 -4 122 q-22 76 -9 111l-67 47l-22 23l98 -53l4 6q26 48 78 48q50 0 83 -43q9 -9 18 -17l61 74l28 23l-76 -111q28 -31 44 -88q7 -22 10 -73l45 -3zM812 250q-6 50 -9 69l-29 -43l-35 6l55 65q-28 56 -76 52q-35 -3 -49 -30l-2 -5l67 -36l-32 -18l-42 29q-4 -32 14 -68 q13 -28 14 -103q0 -26 -11 -48l49 -15l-25 -26l-37 16q-31 -39 -111 -73q-51 -20 -139 -21q-53 0 -95 25l-32 -51l-32 5l45 59q-88 70 -104 236l-82 13l18 19l63 -16q-1 22 -2 45q0 111 72 195q26 29 82 70l-9 38l19 18l6 -44q91 64 148 51q54 -12 87 -61q45 -67 109 -62 q57 3 57 38q0 9 -3 18l-47 -2l25 22h17q-13 57 3 133q6 25 -1 44l-53 -51l-12 21l57 45q-7 10 -20 18q-39 23 -56 23q-45 0 -55 -32q-10 -34 16 -94q-59 66 -145 66l10 -42l-25 4l-4 36q-31 -3 -50 -10q-117 -50 -183 -101l25 -42l2 -38l-37 72q-91 -78 -140 -192l25 -10 l11 -27l-44 22q-37 -92 -36 -199q0 -38 4 -73l56 12l31 -18l-85 -8q22 -146 114 -235l20 47l33 9l-39 -67q79 -67 195 -68h48l-25 50l25 -7l18 -41q99 6 200 57q29 15 59 41l-44 41l50 -10l13 -15q16 15 35 35q37 41 53 117q3 16 5 51l-64 -3l22 31l44 -3q1 29 0 44z" />
<glyph unicode="d" horiz-adv-x="943" d="M939 427l-110 -54q-3 -42 -4 -73q-3 -63 -7 -187l104 -12l-21 -6l-83 3q-1 -44 -5 -79q98 -20 101 -136q1 -95 -57 -148l60 -64l10 -19l-81 74q-13 -9 -28 -11q-23 -4 -73 -16q-32 -12 -63 -12q-61 0 -105.5 30t-44.5 80q-53 -12 -103 -12h-19l-12 -88l-12 -31l9 120 q-121 10 -211 91l-46 -82l2 18l33 74q-19 19 -35 41q-70 70 -106 173l-74 -7l11 5l60 14q-22 73 -22 144q0 101 44 182l-89 48l-10 10l107 -45q70 118 209 152l-13 161l5 -10l19 -148q38 7 79 7q114 1 245 -71q1 20 7 86l-4 1q-123 26 -123 145v8l-73 46l-12 18l85 -47 q10 98 71 152l-11 90l10 -14l13 -65q12 7 21 8q32 6 60 -8q19 63 62 79q39 16 65 -3q12 -19 39 -59l22 -35l75 60l-12 -19l-54 -53q50 -75 38 -126q-15 -57 -28 -177l62 -2l22 -6l-85 -3q-13 -108 -22 -230l89 37zM853 -111q7 50 -9 76q-9 15 -29 22q-18 6 -32 -12 q-3 -3 -24 -42q-6 -12 -17 -9q-13 4 -11 20q1 19 11 106q1 20 3 49l-71 2l21 26l51 -6q1 64 9 215l-100 -48l35 41l66 28q12 98 27 259l-75 -5l25 24l50 -3q3 110 29 219q7 28 -2 50l-64 -63l2 37l52 42q-4 7 -12 22q-10 23 -21.5 48t-29.5 25q-7 0 -14 -3q-41 -16 -49 -86 q-1 -50 -11 -165q-39 -4 -50 22q-6 15 18 60t21 60q-3 18 -22 29.5t-36 6.5q-10 -1 -21 -10l19 -85l-24 5l-9 65q-7 -12 -13 -27q-13 -34 -30 -103l55 -29l-24 -10l-31 20q1 -32 49 -79q16 -15 83 -25q-4 -57 -15 -149q-4 -22 -30 -7q-19 15 -82 48q-72 31 -163 29 q-41 0 -74 -7l6 -38l-15 -37l-4 72q-67 -16 -131 -72q-28 -25 -49 -58l36 -15l19 -35l-64 34q-42 -78 -41 -161q0 -67 22 -142l63 13l44 -16l-103 -12q34 -102 125 -175l13 29l32 9l-29 -50q91 -66 193 -64l7 85l19 -18l-9 -66q31 3 79 13q78 18 66 18q13 0 13 -19 q-16 -38 -11 -62q7 -48 82 -48q23 0 51 9q34 13 42 15q15 0 43 4l-76 70l49 -10l46 -48q42 32 51 92zM639 196l-14 -32l-53 -18q-6 -86 -41 -133q-25 -32 -95 -29q-51 1 -108 29q-91 44 -128 170l-46 7l-34 43l73 -22q-6 29 -6 57q0 75 48.5 133t122.5 54q32 -1 68 -15l7 33 l34 29l-22 -69q94 -42 114 -99.5t14 -166.5zM537 152q9 114 -10 168q-3 7 -11 18q-39 31 -87 42l-34 -105l1 23l18 85q-12 1 -22 2q-59 3 -96 -43.5t-39 -104.5q0 -23 3 -47l84 -25l22 -8l-101 16q12 -53 44 -100q10 -16 33 -28q51 -25 95 -26q57 -3 78 31q15 22 20 85 l-86 -28h-16z" />
<glyph unicode="e" horiz-adv-x="959" d="M1028 215l-19 -10l-79 -19q-15 -104 -93 -147q-16 -9 -34 -8q-16 -50 -41 -85l84 -89l5 -21l-101 95q-78 -97 -254 -96h-26l14 -109l-4 -32l-27 142q-149 16 -258 92l-78 -136l3 18l61 129q-25 19 -45 41q-82 67 -113 177l-102 -12l13 6l86 19q-16 59 -14 125 q1 92 31 185l-96 51l-16 19l119 -51q45 129 130 208l-36 156l17 -25l35 -117q54 47 114 79l-28 27l-16 27l59 -45q91 45 167 44l29 111l4 -16l-17 -97q45 -4 80 -26q39 -26 88 -76l94 102l-11 -22l-70 -95q69 -78 103 -172l73 -3l22 -6l-91 -3q18 -53 15 -92q-1 -38 -33 -69 q12 4 25 7l3 2l75 51l42 16l-89 -69q29 -9 38 -36q69 -26 66 -146v-14zM559 550q0 32 -24 63q-15 9 -38 6q-39 -4 -95 -46q18 -12 43 -46q19 -4 59 4.5t55 18.5zM862 221q15 78 -22 121q-19 23 -35 21q-20 -4 -31 -25q-4 -10 2.5 -47.5t1.5 -50.5q-9 -28 -35 -51 q0 97 -19 126l-57 -46l7 40l37 25q-15 18 -38 14q-29 -1 -45 -26q-20 -35 5 -88q19 -41 -20 -42q-13 0 -19.5 9.5t-14.5 19.5q-4 25 -25 64q-12 13 -24 5q-15 -7 -19 -35q-6 -34 24 -90l53 11l-22 -28l-20 -2q18 -29 54 -29q34 0 45 26q4 -50 -66 -104q-29 -23 -85 -23 q-161 0 -239 100q-38 48 -50 122l-35 6l-32 43l64 -19q-3 25 -3 54q0 64 26 145q29 88 81 136q80 79 150 86q56 4 98 -45q39 -44 40 -94q0 -26 -25 -37q-13 -4 -57 -14q-67 -16 -80 -10q-4 12 -21 36q-16 20 -31 16q-18 -3 -25 -13q-12 -16 -11 -63q0 -51 22 -69 q18 -15 63 -16l11 56l34 29l-26 -85h13q94 1 219 60q53 23 54 54q1 23 -5 53l-77 -4l24 23l47 -1q-29 85 -65 136l-32 -41l-3 38l21 22q-73 89 -148 95l-10 -54l-21 13l10 42q-54 0 -124 -32l51 -39l-23 -11l-45 41q-76 -37 -132 -89l16 -51l-21 -37l-16 69 q-66 -70 -106 -180l42 -19l19 -39l-70 36q-28 -85 -25 -164q1 -66 16 -123l32 6l44 -16l-72 -7q37 -121 139 -183l25 53l32 8l-40 -71q105 -57 223 -63l-10 57l23 -12l8 -45q164 0 228 85l-54 51l48 -9l21 -22q35 56 39 100q10 -9 22 -9q31 0 75 63l-52 -13l14 32l52 7 q5 12 8 31zM578 83q-44 10 -75 59l-120 -10l-16 4l127 22q-18 38 -17 75q-1 66 47 86q-15 -4 -35 -4q-37 0 -62 2l-25 -79l2 24l11 57q-51 12 -68 47q-42 18 -43 85q-35 -80 -35 -164q0 -20 2 -41l89 -27l22 -8l-108 17q9 -76 41 -123q64 -54 179 -54q49 0 84 32z" />
<glyph unicode="f" horiz-adv-x="877" d="M932 847l-88 -25q22 -69 22 -170q0 -19 -3 -36l31 -16l16 -24l-50 24q-16 -75 -96 -94q-61 -16 -100 2l-28 -119v40l14 87q-15 12 -22 30q-42 23 -43 77q0 25 9 51q26 86 26 104q0 7 -3 18q-23 10 -82 10q-67 0 -105 -39l43 -27l33 -33l-88 46q-39 -51 -45 -163 q16 29 64 39q15 3 28 3q48 0 72 -38q54 -23 55 -130q1 -56 -13 -122q-4 -25 -16 -47l60 -27l35 -28l-105 42q-39 -56 -145 -85q4 -35 7 -80l107 75l-11 -18l-94 -76q1 -34 6 -102q22 15 55 7q39 -10 59 -41q51 -26 47 -91q-3 -41 -35 -77l57 -57l17 -28l-85 74 q-73 -73 -207 -80q-61 -4 -110 4l-45 -79l2 18l31 64q-73 16 -101 65q-37 22 -49 67q-4 15 -5 29q0 44 38 68l-57 84l-4 16l76 -93q18 7 36 7q37 1 66 -19q-9 83 -28 208q-13 -3 -26 -3q-66 0 -98 56q-50 28 -53 99q0 7 2 16l-69 24l16 5l54 -14q13 64 68 64q22 0 43.5 -11 t33.5 -6v38q0 -6 -12 90l-93 50l-16 19l107 -47q-4 48 -3 97q1 53 8 101l-130 -9l26 15l107 14q23 126 97 198l-79 71l-16 28l107 -88q79 69 212 82l23 92l4 -14l-13 -76q22 1 47 1q76 0 136 -20l69 74l-10 -20l-44 -60q45 -20 77 -56q57 -41 84 -118l68 13h24zM796 688 q0 70 -10 118l-75 -20l18 27l52 11q-10 39 -28 74q-26 53 -98 79l-60 -79l-3 37l46 50q-50 15 -110 14q-28 0 -53 -1l-14 -78l-21 13l16 62q-89 -10 -140 -41q-18 -10 -34 -27l54 -45l-23 -9l-44 41q-60 -63 -85 -168l34 4l35 -21l-75 -6q-10 -50 -10 -100q0 -57 8 -115 l46 -21l19 -39l-63 32q9 -67 9 -70v-53q-15 -20 -45 -22q-13 -1 -33 9t-30 10q-32 0 -40 -39l66 -18l33 -35l-100 36q0 -37 28 -65q20 -22 60 -22q47 0 77 23q19 -120 49 -366q-6 -16 -14 -16q1 0 -26 30q-39 42 -72 36q-4 0 -8 -1l41 -52l-34 5l-26 39q-32 -15 -21 -58 q10 -35 49.5 -54t98.5 -22l44 92l32 9l-57 -103h38q83 -3 161 41q10 6 22 21l-62 54l27 6l45 -46q15 23 19 40q13 67 -38 79q-20 4 -36.5 -8.5t-26.5 -35.5q-16 -37 -25 -37t-16 14q-7 42 -13 144l-50 -41l31 56l18 13q-7 118 -21 187q31 0 95 30q25 10 43 26l-107 42l38 14 l85 -40q19 22 25 53q15 73 13 123q0 61 -34 80q-19 12 -45 6q-37 -6 -43 -37q-3 -15 3 -61q9 -64 -3 -78q-39 -42 -96 -33q-1 10 -2 92q0 7 -1.5 31t-1.5 39q-4 183 41 247l-66 37h55l27 -18q22 25 58.5 44t83.5 19q53 0 91 -11q64 -19 64 -87q0 -23 -27 -114 q-22 -70 13 -88q6 -3 16 -4l9 63l33 29l-20 -93q25 0 41 4q56 13 68 60l-45 22l-9 31l59 -33q3 15 3 33z" />
<glyph unicode="g" horiz-adv-x="871" d="M963 -132l-123 19v-8q3 -142 -82 -236l70 -77l6 -22l-89 86q-97 -95 -258 -100l13 -101l-4 -32l-25 133q-215 0 -279 100l-3 3l-69 -127l1 30l53 111q-26 28 -38 65q-73 0 -102 73l-116 -61l15 21l93 59q-6 25 -6 51q0 118 78 133q-86 47 -86 167q0 12 1 22l-99 -6l23 10 l79 18q18 101 116 146q-53 80 -44 170l-88 47l-16 19l105 -46q12 47 37 147q10 39 32 70l-57 117l28 -34l41 -70q50 54 137 67l-58 72l-18 28l98 -97q28 3 59 0q57 -4 109 -20l33 124l4 -16l-19 -113q13 -4 39 -13q53 -18 69 9q3 10 -3 44q-6 41 -6 61q0 80 75 81 q37 0 72 -27q10 -7 16 -11l73 82l-10 -22l-50 -69q4 -3 10 -6q34 -23 43 -73q1 -10 3 -88q1 -50 -6 -85l49 -10l27 -16l-81 12q-23 -82 -104 -98q0 -15 2 -35l63 -3l32 -12l-95 -1q3 -120 -21 -170l104 -44l35 -28l-149 54q-22 -38 -67 -70q-12 -9 -41 -47q64 -15 117 -70 l123 50l-15 -15l-93 -48q101 -80 112 -231l78 -21zM772 870q0 28 -7 43l-53 -69l-3 37l44 48q-35 28 -64 28q-22 0 -37 -24q-7 -12 2 -74q7 -57 -2 -71q-23 -39 -76 -32q-18 1 -67 19l-10 -64l-19 38l9 34q-34 13 -47 13q-23 3 -79 6l32 -33l-9 -32l-54 65q-9 0 -15 -2 q-66 -12 -98 -36q-19 -15 -30 -30l29 -51l-10 -32l-32 66q-1 -3 -24 -73q-13 -35 -29 -123l53 -22l19 -40l-72 37q4 -104 67 -165q-20 -7 -38 -15q-44 -19 -63 -44q-29 -35 -38 -67l31 6l38 -27l-73 -4v-25q0 -63 38 -111q26 -34 96 -48l-36 143l17 -37l35 -108q13 -3 25 -3 q64 1 142 27q51 23 152 49q25 1 52 -17q22 -15 26 -19q15 -13 28.5 -44t13.5 -85q0 -66 -42 -127q-45 -69 -151 -72q-82 -3 -127 22q-32 18 -26 51q16 -26 65 -7q22 9 37 35q9 18 12 35l-60 -50l4 33l56 40q-3 34 -18 41q-15 6 -31 -4q-3 -22 -16 -56q-22 -19 -39 -19 q-26 0 -19.5 36t0 59.5t-39.5 30.5q-19 4 -30 0l14 -47l-16 -19l-14 57q-32 -26 -33 -121q-12 9 -24 42q-4 10 2 40.5t2 38.5q-9 13 -21 17q-20 3 -35.5 -12.5t-25 -47t-4.5 -52.5q1 -7 4 -22l23 17l46 -5l-65 -33q18 -56 71 -56q16 0 27 10q4 -42 28 -74l31 62l34 6 l-49 -86q69 -64 231 -64q10 0 21 1l-12 63l25 -12l6 -49q83 7 158 48q25 15 48 35l-66 63l50 -10l32 -35q34 35 47 74q22 57 23 120l-43 7l-33 43l76 -21q-4 123 -76 196l-76 -38l6 32l53 22q-60 56 -130 56q-47 0 -87 -10l33 -48l-28 -5l-25 47q-6 -1 -56 -19 q-86 -31 -123 -34q-75 -6 -74 57q0 69 101 66q69 -19 118 -20h8l-77 130l30 -35l64 -94q54 9 83 34q15 22 66 71q26 19 43 37l-69 25l37 15l46 -21q22 34 27 91q1 20 0 45l-75 -1l25 23l48 -3v19v50q1 19 12 32q60 6 80 44l-80 12l29 17l59 -12q6 13 10 34.5t1 126.5z M361 190q-18 1 -70 12q-53 0 -48 -24q4 -13 26 -13q17 0 92 25zM600 -91q1 53 -25 85q-19 12 -35 13t-70 -19q-37 -15 -72 -27q-51 -16 -85 -21q3 -7 4 -41q10 42 60 44q23 1 41 -21q18 -10 28 -29l51 37l33 10l-77 -61q7 -22 9 -47q0 -64 -33 -97q92 -6 137 59 q34 49 34 115zM541 538q1 -83 -45 -124q-20 -19 -41 -38q-16 -12 -41 -10q9 38 7 93q-1 63 -24.5 76.5t-64.5 13.5q-28 0 -42 -25q-4 -7 4 -66q7 -57 -6 -67q-18 15 -25 46q-16 72 0 142q22 95 79 98q69 4 117 -16q57 -23 69 -43.5t13 -79.5zM506 538q-1 34 -6 41 q-7 13 -44 28q-42 18 -103 15q-28 -1 -38 -40q6 1 17 2q80 0 108 -46q20 -35 16 -121q50 62 50 121z" />
<glyph unicode="h" horiz-adv-x="915" d="M910 319l-123 -28q3 -107 -4 -168q37 -6 51 -43q48 -25 48 -89q1 -70 -48 -126l51 -76l1 -27l-65 90q-35 -31 -81 -38q-54 -9 -85 -9q-41 0 -74 27l-69 -120l3 26l53 107q-7 7 -14 16q-45 34 -46 86q-1 19 4 37q10 35 19 146l-92 -9l-16 5l109 20q15 173 2 227 q-4 19 -13 34q-15 6 -31 4l-48 -154v47l28 103q-20 -7 -37 -25q-80 -85 -78 -291l82 -24l27 -14l-109 17q4 -92 24 -159q6 -16 6 -32q-1 -63 -73 -91l13 -50l7 -63l-35 108q-29 -7 -63 -7q-83 0 -137 43l-66 -119l1 31l51 99q-10 10 -17 22q-48 39 -57 103q-3 19 -2 36 q4 94 76 94q12 0 24 -5q-9 73 -12 180l-95 -10l26 15l69 11q-1 91 2 233l-82 45l-18 19l100 -45q4 157 4 192q0 31 -4 74l-62 -33l-32 -8l91 60q-16 139 -14 174q4 48 69 96l-32 141l16 -26l32 -104q34 19 63 19q60 1 75 -76q10 61 82 56q29 -1 47 -22l103 126l-7 -33 l-80 -105q48 -37 58 -145l66 19l-26 -20l-38 -13q4 -85 -13.5 -127.5t-73.5 -63.5q-61 -23 -77 -46v-21q0 13 0 -1q39 28 133 26h13l146 157l-8 -22l-115 -136q82 -9 139 -55q41 -23 69 -60l69 41l22 8l-82 -60q56 -80 56 -167q0 -25 1 -61l83 13zM807 -4q12 79 -35 93 q-23 7 -52 -52q-6 -10 -19 -8q-13 4 -9 21q19 64 25 168q1 23 1 57l-79 -18l24 33l55 8q-3 108 -3 110q-4 60 -26 103l-64 -46l8 32l47 30q-37 59 -96 86q-39 18 -98 19l-47 -56l-57 -23l73 77q-44 -3 -79 -13q-20 -9 -67 -30q-26 -12 -30 10q0 15 -2.5 47t-2.5 63 q12 23 73 58q22 10 45 20.5t35 36.5q7 18 9 53l-54 -18l1 25l54 15q-1 45 -7 92q-4 22 -9 36l-39 -51l12 51l16 21q-13 16 -41 10q-20 -4 -30 -19q-4 -6 -4 -22q0 -15 3 -36q10 -75 -3 -97q-18 -32 -59 -47q0 35 -3.5 92.5t-3.5 65.5q0 61 -16 79q-16 19 -76 -14l19 -63 l-19 -35l-20 86q-28 -20 -36 -40t-4 -64q4 -35 13 -104l66 44l-15 -39l-49 -28q4 -47 4 -95q0 -105 -1 -209l80 -38l19 -40l-99 54q0 -16 -2 -101v-102l35 6l46 -16l-81 -9q0 -61 2 -98q4 -95 20 -155q7 -25 -4 -25q-9 0 -14 11t-20 33q-23 23 -39 19q-35 -10 -37 -57 q0 -13 3 -34q6 -41 44 -76q9 -9 14 -13l37 70l32 9l-51 -91q13 -7 42 -13q26 -4 90 4q12 1 22 6l-24 75l24 -12l16 -54q35 26 20 72q-16 57 -22 144l-35 6l-34 43l69 -19q-1 18 -1 33q1 146 30 210q61 130 145 127q13 -1 25 -5l10 38l34 30l-23 -75q47 -23 61 -86 q10 -48 6 -103q-7 -83 -6 -98v-29l75 13l-21 -27l-55 -5q-4 -97 -22 -158q-4 -12 -3 -25q0 -45 44 -67l35 69l30 9l-46 -84q23 -6 95 6q41 7 70 37l-62 84l49 -24l28 -43q18 31 21 59z" />
<glyph unicode="i" horiz-adv-x="623" d="M468 764l-91 22q-50 -69 -158 -69q-72 1 -93 41q-41 23 -44 76q-1 53 32 102l-58 51l-17 28l85 -64q50 63 123 63q25 0 44 -3l21 80l1 -29l-9 -56q38 -12 54 -43q47 -25 47 -82q0 -50 -22 -87l46 -13zM695 670l-124 -98q26 -31 27 -97q1 -48 -10 -114l53 -1l23 -13 l-79 -2l-1 -4q-20 -101 -176 -144q7 -39 10 -92l97 87l-16 -33l-79 -79q3 -34 6 -98q29 26 71 15q39 -12 52 -41q45 -20 43 -67q-1 -38 -30 -79l36 -32l6 -21l-53 41q-50 -57 -156 -85l18 -41l8 -46l-42 84q-51 -12 -101 -11q-85 1 -145 38q-31 18 -44 38l-77 -63l14 26 l50 50q-32 28 -32 67q0 41 32 74t73 33q31 0 57 -19q-10 72 -28 200q-72 -10 -112 35l-66 -77l10 35l44 59q-15 15 -29 30q-20 29 -21 72q-1 91 69 92q22 1 45.5 -10.5t35.5 -5.5q1 28 -5 61l-107 58l-16 19l119 -52q-10 38 -27 117q-4 35 21 69l-102 101l26 -16l88 -73 q44 45 104 48q64 1 84 -45q32 -13 41 -62q31 35 93 34q48 -1 70 -41q7 -3 11 -6l98 67zM334 870q10 44 -3 71q-10 22 -34 32l-15 -85l-16 32l16 57q-6 1 -13 2q-60 0 -99 -30q-7 -6 -18 -20l31 -23l-24 -9l-19 16q-22 -34 -22 -72q0 -61 71 -63q67 0 104 28l-56 13l-41 28 l110 -31q19 20 28 54zM524 508v27l-79 -61l7 38l67 48q-6 23 -23.5 32t-50.5 2q-32 -6 -46 -26q-9 -13 0 -74q10 -69 3 -76q-39 -42 -87 -35q-9 82 -9 98q0 41 6 114q6 76 -47 76q-44 0 -89 -36l46 -38l-3 -32l-57 57q-12 -18 -8 -41q12 -42 27 -122q0 -4 2 -16l35 -14 l19 -40l-51 26q4 -44 1 -58q-15 -20 -45 -22q-13 -1 -33 9t-30 10q-47 0 -41 -63q4 -45 40 -67l30 38l44 16l-54 -63q12 -3 25 -4q48 0 80 23q6 -80 22 -199q20 -148 19 -164q-10 -18 -17 -17q-7 0 -12 13q-4 9 -7 17q-29 44 -62 40q-28 -4 -42 -15q-23 -16 -24 -51 q0 -23 22 -45l49 48l36 -9l-67 -52q50 -29 133 -28q44 0 91 10l-40 78l28 4l32 -76q35 9 72 26q20 9 48 35l-58 46l49 -9l24 -21q28 31 19 71q-4 20 -29 26q-18 6 -37.5 -6.5t-36.5 -34.5q-25 -37 -35 -37q-9 0 -13 15q-3 32 -10 116l-41 -41l7 46l31 28l-1 22 q-9 148 -21 190q31 0 95 30q50 22 72 54h-86l23 22l73 -2q18 45 15 144z" />
<glyph unicode="j" horiz-adv-x="674" d="M654 165q-3 -86 -79 -117l31 -39l17 -34l-61 69q-29 -9 -65 -9q10 -78 28 -246l86 62l36 11l-120 -92q4 -53 4 -96q0 -225 -101 -331l73 -79l6 -22l-92 88q-20 -19 -44 -34q-97 -59 -227 -58q-32 0 -60 4l12 -85l-4 -32l-22 119q-113 19 -171 98q-23 20 -41 48l-68 -121 l3 19l56 117q-48 86 -48 235q0 120 51 151l-47 76l-9 22l69 -91q25 10 63 7q63 -4 111 -57l72 69l-11 -19l-51 -61q29 -35 29 -79q0 -28 -15 -80.5t-15 -74.5q0 -10 3 -18q29 -13 82 -10q170 6 159 240l-151 -92l25 29l125 83q-9 69 -24 186l-1 16l-113 -10l-15 4l126 22 q-4 45 -6 95q-114 1 -163 90q-38 35 -55 92l-70 33l-17 19l83 -35q-10 39 -10 88q0 92 64 120l-31 139l17 -26l32 -106q12 3 23 6q50 9 76 -38q16 -6 29 -23q-7 76 52 87q-60 19 -71 63q-37 22 -30 84q3 41 32 74l-48 49l-16 29l73 -66q41 39 95 41q48 1 98 -32l58 98 l-13 -44l-34 -63q13 -10 24 -22q60 -41 60 -111q-1 -31 -16 -64q-28 -57 -85 -65q9 -9 15 -20q19 -10 30 -27l104 68l-15 -18l-81 -60q20 -38 11 -117q0 -3 -1 -13q31 32 77 25l60 112l-7 -21l-39 -94q18 -6 27 -22q59 -24 56 -113zM453 623q0 44 -35 73l-36 -68l1 41l22 36 q-45 29 -80 28q-39 -3 -69 -29l88 -81l-51 19l-49 50q-20 -28 -20 -63q0 -44 52 -75q47 -28 94 -27q37 0 60 29t23 67zM587 205q0 54 -31 63l-25 -60l-6 36l13 24q-35 -4 -45 -27t-31 -27q-31 -4 -44 23q-1 3 -10 51q3 -15 6 79l-66 -48l22 41l44 28q-3 70 -79 74 q-28 1 -48.5 -11t-17.5 -38q12 -38 26 -170q-60 -20 -98 9q-10 7 -10 32t2 51q0 34 -6 75q-25 26 -43 23q-9 -1 -19 -6l19 -63l-20 -36l-21 90q-37 -20 -36 -83q0 -54 17 -107l68 -28l30 -35l-89 43q29 -69 103 -88q51 -12 99 -3q0 -61 10 -156l59 10l-21 -28l-36 -3l1 -15 q7 -57 21 -169l23 16l47 7l-69 -44q4 -60 3 -96q-6 -124 -112 -182q-34 -18 -82 -17q-53 0 -91 11q-64 19 -64 87q0 25 23 102q7 20 6 47l-53 -61l-9 32l59 55q-4 18 -12 25q-29 34 -76 34q-15 0 -29 -6l47 -61l-33 7l-29 47q-37 -25 -36 -119q0 -113 32 -196l31 64l32 9 l-53 -93q44 -92 179 -112l-15 81l23 -12l11 -71q16 -1 33 -2q120 0 208 54q19 12 36 27l-62 60l49 -11l31 -33q57 59 70 134q15 85 16 177l-70 -54l35 54l35 25q0 64 -16 186q-18 129 -19 186q28 -15 79 -3l-16 17l-10 46l45 -57q34 12 49.5 33.5t15.5 55.5z" />
<glyph unicode="k" horiz-adv-x="946" d="M946 6q1 -107 -40 -149q-19 -20 -55 -31l28 -50l7 -22l-51 69q-42 -10 -112 -10q-53 0 -87 44l-29 -93l2 24l16 82q-38 29 -50 60q-28 80 -54 145l-91 -18l-16 3l101 29l-6 13q-39 91 -96 136q-44 -45 -46 -112q0 -44 22 -129.5t24 -114.5q0 -48 -36 -69l33 -50l10 -29 l-54 74q-22 -7 -56 -5q-121 1 -189 58l-52 -83l10 35l31 60q-10 10 -18 22q-54 44 -55 108q-3 95 70 95q15 0 26 -3q-4 35 -7 73l-104 -9l22 12l80 13q-9 95 -10 223l-72 38l-16 19l88 -38q0 -6 0 178q-102 42 -105 171q0 73 35 123l-34 141l18 -37l29 -88q22 22 48 22 q1 3 2 12q-6 80 71 117l-54 97l21 -18l47 -73q22 9 45 9q57 1 83 -41q42 -19 49 -74q1 -12 0 -43v-24l106 44l22 4l-128 -65q-1 -92 -5 -148q-1 -50 -19 -220q72 39 119 77l-60 52l-16 28l89 -69q9 9 12 17t7 122q3 78 60 89q26 6 51 -5l40 103l-3 -36l-24 -73 q18 -12 32 -31q67 -42 71 -124v-34l71 6l22 -6l-93 -13q-3 -86 -46 -143q-32 -45 -115 -104l-15 -9q16 -10 51 -47l60 42l51 28l-99 -85q124 -136 159 -220q22 38 68 38q10 1 22 -3l44 108l-3 -38l-27 -76q19 -10 30 -28q43 -17 43 -73zM878 42q0 18 -16 30l-28 -84l-12 35 l22 57q-22 6 -33.5 -7t-24.5 -39q-7 -15 -19 -15q-19 0 -36 31q-19 38 -103 162q-25 34 -49 60l-54 -45l7 39l33 22q-79 86 -132 92q53 37 148 110q54 47 66 114l-68 -10l25 23l46 5q4 32 2 74q-1 39 -27 72q-6 6 -16 13l-30 -86l-8 36l21 57q-19 9 -29 8q-20 -4 -28 -18 q-4 -6 -4 -22q0 -13 3 -33q9 -64 -13 -120q-6 -12 -16 -24l25 -19l-24 -9l-16 15l-69 -48q-85 -59 -123 -60q-29 -1 -29 36q0 9 12 112q10 110 13 163q1 29 3 75l-23 -12l-47 8l70 29q1 61 1 88q0 60 -14 76q-12 12 -38 11q-16 0 -34 -5l48 -74l-41 25l-23 43 q-38 -15 -50 -44q-7 -16 -3 -59q4 -45 5 -218q-31 28 -19 117q3 22 3 36q0 15 -3 20q-10 16 -24 16q-20 0 -36 -28l22 -64l-15 -51l-20 86q-12 -35 -12 -70q0 -48 22 -84q29 -47 83 -61v-140l2 -78l67 -29l19 -40l-85 46l6 -183q0 -7 1 -15l43 6l45 -16l-86 -7 q6 -94 19 -141q7 -25 -7 -25q-9 0 -14 13q-13 42 -52 43q-19 0 -28 -16t-9 -38q4 -57 60 -97l22 44l38 18l-44 -72q56 -31 123 -31q31 0 48 6l-55 78h26l44 -71q20 16 10 55q-48 159 -45 222q1 64 19 89q12 18 47 56q99 -20 187 -207l79 24l-18 -29l-54 -12q25 -54 34 -92 q15 -54 42 -82l12 54l34 29l-31 -95q20 -13 45 -13q41 0 94 7l-48 66l44 -12l29 -49q18 6 35 22q13 13 22 73q5 18 9 52z" />
<glyph unicode="l" horiz-adv-x="535" d="M582 604l-80 -12v-1q15 -110 -57 -143q-25 -10 -50 -21q-29 -13 -41 -31q1 -37 6 -74l108 -15l-45 -1l-62 3q10 -75 8 -113q32 -6 55 -34l65 50l20 10l-79 -67q34 -47 34 -114q0 -110 -82 -151l19 -30l10 -31l-41 55q-64 -25 -124 -23q-64 0 -84 45l-4 2l-47 -76l9 35 l26 50q-26 25 -28 79q0 16 17 140l-79 -6l-27 5l107 14q4 31 3 54l-4 210l-101 -30l-21 -3l120 47q-3 113 -3 196l-92 27l-13 8l105 -20v36q-120 54 -118 183q1 69 49 117l-38 145l18 -36l32 -100l2 2q26 22 48 24q1 59 12 87q22 69 84 70q15 0 28 -3l34 110l-2 -35l-17 -81 q26 -12 47 -38q53 -32 70 -111l35 26l23 10l-57 -48q4 -23 5 -48q0 -94 -3 -138q15 -1 26 -4l43 111l-3 -23l-31 -91q22 -10 34 -32q37 -13 45 -69q3 -48 6 -98l58 6zM434 582l-89 -13l25 22l64 6q-7 121 -8 101q4 59 -21 71l-26 -79l-5 30l21 54h-12q-38 1 -44 -65 q7 -39 3 -100q-16 -29 -57 -44q0 9 12 111q10 110 13 164q3 47 3 99l-72 -61l31 51l43 31v23q0 53 -18 91q-15 34 -44 49l-19 -84l-10 46l13 44q-3 1 -7 2q-47 -1 -61 -43t-10 -87t5 -218q-32 29 -34 74q-1 18 13 49.5t11 39.5q-3 19 -16 24q-22 7 -53 -24l17 -57l-10 -32 l-19 76q-31 -35 -29 -66q1 -53 32 -100q34 -53 89 -68v-67l79 -16l-29 -18l-50 15v-54l3 -119l37 13l42 -5l-79 -24l6 -219q1 -23 -1 -51l23 3l35 -14l-60 -4q-18 -139 -17 -142q1 -23 11 -42l30 55l38 16l-55 -87q15 -16 36 -17q12 0 24 5q29 9 82 25l-35 48h27l24 -41 q34 19 49 61q12 34 6 77q-1 12 -5 21l-76 -64l31 45l41 33q-13 38 -48 38q-23 -1 -33 -65q-1 -12 -10 -10q-9 0 -10 16q0 9 9.5 51.5t9.5 80.5q0 19 -3 39l-3 31l-69 4l31 19l35 -4q-7 66 -7 110q12 22 69 55q22 9 44.5 19.5t32.5 34.5q4 12 4 31z" />
<glyph unicode="m" horiz-adv-x="1243" d="M1230 170l-45 1l-53 6q-1 -31 -6 -70q50 -1 77 -35t26 -84q0 -76 -69 -127l25 -42l6 -22l-41 57q-53 -35 -117 -35q-79 -1 -122 42l-23 -73l1 22l14 61q-16 18 -33 34q-19 25 -20 61q-1 28 10 60q25 75 25 221q0 83 -12 129q-25 13 -49 13q-54 0 -65 -60q1 -10 2 -39 l79 -31h-28l-51 17q-1 -78 -6 -144q44 3 70 -44q19 -35 21 -73q0 -64 -44 -114q-51 -59 -142 -58q-34 0 -65 6l-4 2l-20 -65l1 22l9 46q-37 13 -60 48q-48 32 -48 89q-1 20 8 46q16 37 18 42l-84 -15h-26l114 34q4 69 12 192q6 70 -13 111q-13 7 -27 7q-53 3 -86 -61l59 -46 l20 -27l-85 61q-32 -73 -35 -195q-3 -121 19 -177q7 -19 7 -36q0 -41 -33 -73l29 -44l10 -31l-48 67q-51 -41 -127 -41q-85 0 -130 52l-49 -79l9 35l29 57q-25 20 -29 26q-18 22 -26 60q-4 22 -5 41q1 44 23.5 71t52.5 27q10 0 21 -4q-4 37 -6 85l-126 -12l22 12l104 16 q-3 83 0 212l-63 32l-29 23l92 -39l4 168q0 20 -2 47l-100 -15l-23 6l121 28q-18 164 -15 189q3 41 50 82l-55 137l23 -34l47 -93q41 29 79 30q53 0 69 -64q15 45 76 44q38 -1 60 -38q15 -6 26 -19l38 58l-10 -35l-21 -33q32 -48 32 -142q0 -45 -8 -78q28 -1 49 -6l76 104 l18 15l-78 -123q50 -15 97 -64v1q32 26 75 40l-47 41l-34 36l100 -73q28 6 58 6q64 0 126 -25l31 75l23 44l-39 -125q57 -26 90 -69q45 -34 71 -95l77 8l22 -6l-95 -13q26 -70 28 -176q0 -29 -2 -63zM1156 47q-6 22 -33 23q-25 0 -38 -9q-7 -12 -23 -30q-7 -12 -15 -9 q-7 3 -3 25q7 31 15 139l-72 7l34 19l40 -9v3q3 57 -5 173q-1 20 -7 41l-85 -13l23 23l57 4q-26 89 -114 138l-23 -73l-10 42l16 40q-38 18 -78 19q-25 0 -51 -3l51 -38l-42 3l-35 30q-16 -3 -31 -7q-23 -7 -51 -23q-35 -22 -32 -22q-7 0 -15 13q-41 47 -98 63l-35 -57 l-44 -19l59 80q-19 3 -41 3q-60 1 -110 -13q-34 -10 -57 -25q-34 -20 -37 -9q12 22 69 56q20 9 43 19t35 35q13 32 5 116l-39 -69l-2 36l38 60q-3 28 -7 41q-6 26 -20 34.5t-33 3.5q-38 -7 -27 -73q9 -72 -3 -92q-18 -31 -57 -45q0 34 -4 88t-4 62q0 59 -14 77q-4 4 -15 4 q-28 0 -70 -26l28 -56l-6 -51l-38 95q-18 -15 -25 -31.5t-3 -60.5q6 -44 15 -136l45 10l38 -21l-82 -11q1 -26 2 -53q0 31 -5 -183l78 -32l19 -39l-97 51q-3 -114 0 -188l19 5l46 -18l-63 -6q1 -60 14 -146q7 -20 -1 -23q-9 -4 -15.5 6t-22.5 29q-22 19 -37 12 q-18 -9 -25 -24.5t-7 -34.5q1 -13 6 -32q6 -31 38 -60l26 51l40 18l-50 -81q28 -19 67 -17q25 0 84 17q20 6 35 21l-62 86h27l46 -73q9 15 9 32q0 13 -6 26q-23 60 -22 174q0 139 30 199q6 13 11 24l-60 44l-10 33l78 -61q48 83 117 80q82 -3 102 -93q10 -45 6 -97 q-6 -80 -6 -92q1 -59 -3 -86l63 17l-17 -29l-49 -9q-3 -15 -19 -52q-13 -31 -11 -47q3 -59 58 -70q16 -3 28 -5l15 67l33 31l-32 -101h35q39 0 81 25q29 18 45 62q12 28 12 51q0 31 -25 44q-20 12 -62 -40q-6 -7 -16 -4t-10 11q0 4 3 11q9 16 10 54q1 91 3 104q1 23 4 70 l-80 26l47 6l33 -15q0 25 -1 49q15 92 89 92q16 0 37 -5q82 -16 96 -81q10 -47 9 -103q-3 -110 -3 -96q1 -79 -25 -158q-6 -19 -4 -40q1 -38 23 -61l15 70l34 31l-35 -113q9 -6 19 -7q34 -7 54 -8q48 0 101 35l-55 75l44 -12l28 -48q22 19 31 38q18 40 9 72z" />
<glyph unicode="n" horiz-adv-x="925" d="M906 219l-93 -26q-1 -25 -6 -72q47 1 74 -32q22 -29 22 -71q0 -39 -14 -78t-38 -64l35 -40l11 -20l-53 52q-42 -41 -123 -41q-111 0 -143 33l-57 -78l9 22l39 66q-3 4 -6 10q-47 22 -45 75q0 29 22 84l-106 -20l-16 3l128 37q12 32 14 48v13q-23 10 -45 19q-26 13 -41 39 q-59 34 -56 141q1 63 8 95q13 60 48 78q-80 -23 -107 -128q-13 -54 -14 -181q0 -22 1 -48l80 5l-40 -10l-40 -4q3 -138 16 -182q6 -20 6 -39q1 -51 -41 -82l18 -28l10 -31l-37 53q-44 -28 -104 -26q-88 0 -139 50l-44 -71l11 35l23 46q-20 23 -40 48t-24 56q-1 15 -2 29 q0 88 81 95q9 1 17 0q-9 64 -11 162l-123 -11l23 11l100 16q-3 99 1 258l-75 39l-17 19l94 -39l1 42q-3 41 -6 114q1 47 37 77l-63 118l20 -18l56 -90q60 41 105 41q25 1 40 -13q54 -6 58 -82q18 7 41 13l-4 153l12 -35l8 -114q42 7 87 8q60 -1 111 -19l114 112l-22 -34 l-75 -84q53 -22 85 -59q45 -34 73 -96l71 7l21 -6l-86 -13q22 -57 31 -135l34 24l29 16l-62 -51q4 -41 5 -90q0 -50 -3 -114l67 13h24zM840 45q0 9 -3 19q-4 18 -28 21q-22 4 -37 -7q-9 -13 -24 -36q-6 -7 -17 -5q-10 3 -10 11q0 4 3 11q10 20 15 114l-59 -16l-44 17l104 19 q1 35 3 59q3 51 3 101l-56 -49l8 40l48 33q0 102 -22 170l-94 -13l24 22l64 6q-26 69 -61 98q-26 20 -63 35l-35 -41l-51 -13l63 61q-34 9 -68 9q-57 1 -98 -6l6 -57l-23 29l-2 22q-44 -12 -77.5 -32t-36.5 -9q0 10 3 44q3 59 -10 76q-4 6 -15 6q-38 0 -89 -39l45 -74 l-39 25l-21 37q-25 -31 -19 -69q7 -48 3 -145l66 -27l19 -40l-86 45v-35q-3 -117 0 -199l23 3l44 -16l-66 -6q7 -170 22 -222q6 -20 -3 -23t-17 10q-3 9 -18 28q-12 12 -28 7q-29 -6 -36 -19q-12 -22 -6 -64q6 -41 47 -74l32 63l38 16l-56 -89q19 -12 53 -13h32q66 0 89 18 l-74 103h26l60 -93q15 18 15 44q1 16 -5 33q-13 41 -16 149l-92 -10l26 19l65 5q-1 44 -2 86q1 180 25 230q54 113 163 114q13 0 26 -2q70 -4 101 -136l58 44l21 10l-76 -68q7 -51 0 -155q-37 15 -50 43q-10 22 -7 60l-37 -33l-6 23l46 35q7 53 1 63q-9 15 -29 19 q-47 9 -59 -66q-16 -113 3 -158q10 -25 35 -36q20 -9 43 -18q31 -18 33 -20q22 -19 22 -49q0 -20 -5 -46l43 13l-17 -29l-32 -8q0 -3 -19 -44q-10 -26 -11 -45q1 -41 38 -51l38 64l43 18l-63 -87q51 -7 86 -5q51 1 85 32l-26 26l-3 37l42 -50q20 25 30 47q16 42 16 55z" />
<glyph unicode="o" horiz-adv-x="851" d="M932 453l-111 -92q1 -25 1 -46q0 -154 -66 -261l79 -48l16 -15l-103 48q-89 -132 -264 -147l31 -47l10 -31l-54 76q-18 -1 -37 -1q-149 0 -241 51l-57 -91l9 35l33 65q-39 25 -67 60q-76 67 -96 186l-91 -8l23 12l65 10q-4 38 -5 79q0 97 32 190l-86 46l-16 19l110 -47 q41 110 120 189l-69 143l25 -31l57 -99q102 98 234 121l-82 151l22 -18l79 -130q20 3 40 5q31 0 136 -31q-10 85 -11 90q0 85 75 85q25 0 54 -14l38 96l-4 -38l-21 -66l5 -3q26 -15 35 -35q35 -20 45 -67q3 -18 4 -85q1 -22 0 -42l65 6l22 -6l-88 -13q-10 -88 -59 -116 q39 -104 50 -208l62 47zM756 851q0 47 -27 63l-31 -95l-10 37l26 67q-22 13 -41 13q-22 0 -37 -22q-7 -12 2 -74q9 -63 0 -71q-16 -15 -69.5 4.5t-94.5 17.5q-10 -1 -21 -1l31 -50l-39 24l-13 23q-129 -18 -235 -120l27 -47l-3 -51l-40 83q-61 -69 -102 -169l50 -22l19 -40 l-76 40q-29 -88 -30 -173q0 -38 5 -73l58 10l27 -22l-82 -6q28 -149 150 -203l19 34l38 16l-36 -59q73 -26 178 -26q9 0 21 2l-53 74h27l45 -73q42 6 93 19q80 20 138 97l-59 27l44 12l30 -19q57 86 65 203l-51 -42l8 39l45 34v18q0 88 -28 188q-15 59 -35 104q44 12 57 50 l-67 -10l25 23l46 4q9 31 6 142zM683 374l-39 33v-34q0 -111 -57 -199q-66 -99 -173 -99q-18 0 -23 1q32 47 30 139q-1 22 -1 34l-78 -41l2 35l73 29q-4 20 -21 35q-23 19 -60 21q-34 1 -54 -33q-10 -16 -1 -83q13 -89 -18 -110q-26 23 -54 82q-10 23 -10 107q0 126 99 260 q26 37 59 63l-10 25l11 44l16 -55q53 38 104 41q99 4 136 -100q22 -61 28 -135l28 -20zM609 373q0 29 -3 64l-110 87l-25 33l132 -95q-12 78 -32 126q-19 12 -44 12q-59 0 -126 -63l32 -108l-12 19l-30 79q-78 -79 -110 -182q25 18 58 18q66 0 97 -50q18 -6 31 -22l90 37 l24 4l-106 -54q29 -48 15 -149q54 28 88 105q31 69 31 139z" />
<glyph unicode="p" horiz-adv-x="896" d="M974 310l-111 -54q-10 -83 -46.5 -151t-117.5 -118l92 -86l-20 8l-83 72q-83 -48 -164 -50q-83 -1 -158 41q-6 -60 -9 -167l79 -23l20 -9l-101 21l-2 -116q37 -4 57 -44q53 -23 52 -111q0 -50 -23 -91l69 -45l14 -16l-90 50q-16 -26 -41 -41q-105 -64 -169 -65 q-39 0 -60 21l-30 -81l-18 -27l38 121q-3 4 -6 10q-47 23 -47 111q0 38 8 96q10 79 11 95l-64 -40l12 15l54 42q9 108 10 259l-108 -12l13 6l97 21v30q0 61 -3 164q-4 116 -6 161l-85 46l-10 10l95 -40q0 41 1 73q-56 9 -89 72q-31 56 -29 119q1 91 63 130l-9 114l6 -9 l12 -99q26 10 49 -2q0 10 -3 30.5t-3 31.5q0 54 41 80l-35 59l-14 43l63 -95q22 10 48 11q61 -1 96 -52q59 -35 62 -117q39 13 88 17l-47 162l11 -12l52 -149h39q97 0 170 -56l111 90l-13 -21l-84 -80q13 -12 24 -24q70 -56 105 -155l107 -3l23 -6l-124 -5q25 -76 23 -158 q0 -20 -1 -40l89 38h19zM797 345q0 69 -13 122l-45 -2l23 22h16q-29 94 -93 151l-44 -43l3 38l23 18q-61 44 -142 44h-28l21 -56l-28 18l-10 36q-105 -7 -170 -54q1 34 2 57q0 83 -8.5 101t-34.5 33.5t-48 15.5q-15 -1 -26 -5l41 -61l-25 1l-31 53q-13 -10 -19 -27 q-7 -20 -3 -45q4 -22 9 -42q1 -19 -2 -84q-4 -76 -4 -118q-26 25 -35 53q-4 12 2.5 49.5t1.5 48.5q-9 18 -22 20q-13 1 -25 -6l11 -83l-14 -35l-8 106q-31 -37 -33 -83q0 -63 34.5 -110.5t64.5 -47.5q13 0 23 10q0 7 -4 -131l46 -19l19 -37l-65 37q-1 -16 0 -27 q0 -15 5 -123q4 -91 5 -158v-23l23 6l46 -16l-71 -9q-1 -64 -11 -235l36 29l32 -8l-70 -43q-1 -20 -1 -30q-10 -70 -19 -197q1 -50 33 -67l31 99l15 -22l-31 -82q15 -3 29 2q41 12 106 46q16 9 43 28l-99 54l50 3l63 -41q9 12 13 28q9 26 3 75q-9 73 -56 64q-23 -4 -32 -69 q-1 -12 -10 -13q-10 0 -11 15q-1 10 6 231l-36 7l-37 35l73 -22q3 67 3 103q4 44 10 142q85 -72 191 -71q64 1 133 36l-73 61l39 -4l50 -49q16 10 28 21q64 54 86 92q15 28 25 56l-85 -43l35 43l57 23q12 48 13 108zM674 342q0 -67 -23 -106q-26 -47 -80.5 -83.5 t-105.5 -36.5q-42 0 -79 26q-41 28 -36 69q23 10 45 19q28 12 38 36t19 136q6 76 -42 76q-28 1 -36 -17l21 -22l7 -44l-35 41q-1 -44 -17 -113q-13 -23 -24 -24.5t-23 -3.5q0 95 4 188q4 6 10 11l-68 82l19 -13l60 -58q85 70 174 70q120 0 152 -104q20 -63 20 -129zM382 287 l-174 -142l6 35l152 102zM639 345q0 57 -19 114q-3 12 -13 25q-32 20 -70 21q-26 0 -69 -16q6 -7 12 -18q42 -13 44 -91q0 -18 -8 -86q-6 -61 -19 -86q-19 -32 -70 -51q15 -6 35 -6q44 0 90 31.5t68 70.5q19 32 19 92z" />
<glyph unicode="q" horiz-adv-x="890" d="M904 692l-61 -45q25 -59 23 -117q-1 -127 -110 -147q3 -31 3 -64l94 -66l10 -15l-102 65q1 -57 3 -258l93 -10l-20 -6l-73 3q0 -57 1 -101q0 -42 -1 -131l80 -24l21 -9l-101 16q-1 -42 -3 -96q29 -6 51 -40q59 -26 60 -124q1 -97 -66 -136q-26 -15 -53 -26v-5l40 -42 l9 -19l-50 47l-7 -49l-12 -29l7 88l-3 3q-45 -16 -82 -16q-69 1 -93 51q-57 34 -50 137q3 50 6 101l-104 -11l12 6l92 20q7 159 4 341q-56 -19 -118 -18h-15l-1 -106l-11 27l-4 81q-111 10 -181 69q-48 39 -76 74q-9 9 -18 16l-47 -86l5 26l32 73q-76 88 -78 243l-67 -7 l16 12l51 10q1 124 50 208l-47 55l-10 24l66 -65q82 123 228 133l-12 154l12 -15l19 -139h4q104 1 179 -30v64l-50 34l-22 26l75 -42q12 70 77 92l-14 117l8 -13l21 -98q13 1 25 1q53 0 82 -42q34 -16 48 -55l92 75l-13 -19l-75 -70q7 -28 8 -60q45 -10 76 -76l45 26z M797 -490q9 26 0 75q-13 73 -60 67q-22 -4 -28 -67q-1 -13 -10 -14q-10 -1 -11 15q0 10 4 208l-38 7l-34 42l73 -21q1 99 2 144q-1 32 -2 68l-83 1l35 25l48 -6q-1 117 2 224q0 20 -3 67l-97 60l55 -9l40 -27q-6 73 -5 95q9 -10 24 -11q44 0 72 47q15 26 15 88q0 10 -3 22 l-57 -39l7 32l44 25q-37 89 -80 86q-12 0 -18 -16q-3 -9 11 -48t12 -52q-3 -20 -7 -29q-4 -13 -20 -28q0 143 3 189l-71 -66l3 37l69 57q1 56 -10 79q-18 29 -68 32q-4 0 -10 -2l12 -54l-25 5l-4 44q-29 -15 -41 -40q-6 -13 -8 -35l65 -37l-27 -10l-39 25q0 -25 1 -102 q-78 56 -213 55l4 -36l-20 -41l-6 77q-116 -6 -179 -89q-13 -18 -24 -37l41 -41l4 -39l-56 64q-39 -73 -41 -172l66 13l44 -16l-110 -13q1 -117 43 -193q4 -9 14 -21l31 67l32 9l-49 -91q28 -28 62 -58q76 -64 179 -64h12l-3 35l25 26l-2 -61q102 6 164 58q3 -20 4 -142 q-1 -120 -1 -273q1 -13 1 -28l25 6l44 -18l-70 -7q0 -19 -7 -81q-4 -45 -2 -70q6 -76 64 -74q9 0 56 11l-85 79l48 -9l60 -64q29 9 58 25l7 85l20 -18l-7 -54q22 18 29 47zM543 319q-12 1 -23 2t-26 26q-22 39 -16 60q9 31 9 45q0 22 -26 31q-19 7 -34 1q-31 -13 -39 -60 q-4 -26 3 -60l52 24l-13 -33l-34 -10q6 -19 16.5 -44t83.5 -67q7 -72 -113 -72q-114 0 -175 107q-37 63 -37 113q-1 66 19 124q34 92 154 92q47 0 109 -30t85 -62q25 -104 5 -187zM455 217q-67 34 -92 118l-68 -22l-17 2l80 35q-12 45 -4 80q13 75 67 91q-23 7 -42 7 q-140 0 -138 -159q1 -78 43 -133q47 -38 102 -39q49 1 69 20z" />
<glyph unicode="r" horiz-adv-x="874" d="M923 660l-70 -44q0 -10 1 -18q12 -183 -109 -197q-70 -9 -129 64q-19 25 -54 57q-53 -9 -117 -82q-4 -6 -9 -20l111 -15l-20 -4l-95 3q-18 -67 -34 -199l129 55h19l-151 -73q-3 -28 -6 -52q25 0 45.5 -9t36.5 -38q48 -19 48 -89v-11l78 -20l23 -16l-104 16 q-13 -56 -65.5 -87.5t-112.5 -25.5q-23 1 -81 5l34 -96l3 -32l-53 128q-99 3 -144 32l-37 -65l3 19l23 53q-16 13 -26 31q-47 34 -57 109q-7 45 19 74q22 25 60 26q39 0 66 -25q1 34 3 78l-104 -12l13 6l91 20q1 56 4 167l-91 48l-10 11l103 -43q1 37 2 67l11 128l-27 16 l-11 19l38 -22l4 57q1 9 0 19l-89 -29h-18l107 45q-3 44 -7 121q-3 70 61 96l-45 127l9 -8l46 -115q18 4 37 4q63 0 114 -54q54 -19 54 -95q0 -18 -4 -34q28 16 51 25l-13 94l10 -12l16 -77q51 15 98 -8q3 32 31 53.5t61 21.5q20 0 40 -9l55 103l-4 -24l-36 -86 q19 -10 49 -43q50 -25 56 -140l48 25zM784 597q1 22 -1 53q-4 37 -5 45q-1 59 -44 85l-32 -76l-12 35l27 49q-12 4 -24 5q-45 0 -55 -31q-10 -34 16 -93q-61 69 -117 61q-13 -1 -26 -4l16 -82l-25 11l-8 65q-23 -9 -49 -25q-63 -41 -81 -66q-3 51 5 143q6 19 5 34 q0 37 -68 67q-28 13 -54 6l24 -60l-4 -38l-34 94q-38 -19 -36 -63q1 -37 6 -107l66 28l-14 -32l-51 -16q1 -20 0 -34q-1 -19 -4 -73l99 -56l-23 -10l-78 50l-8 -109q-1 -26 -5 -79l40 -16l19 -35l-59 31q-3 -69 -4 -140l29 5l45 -16l-74 -8q-1 -83 -8 -151q-9 -18 -20 -18 q-18 0 -22 16q1 15 -7 41q-15 16 -46 19q-23 1 -42 -20q-13 -15 4 -76q12 -37 62 -62l20 47l32 9l-36 -63q23 -7 89 -7l-22 54l25 -7l18 -47h10q23 -1 63 -5q28 -3 49 0q45 7 74 50l4 6l-23 4l-34 43l70 -19q3 10 3 25q0 42 -34 55q-28 12 -48 -1q-9 -6 -10.5 -25t-3.5 -24 q-10 -16 -24 -16q-12 0 -16 18q-3 32 6 108l-57 -28l35 43l25 10q6 78 28 231l-50 2l20 26l34 -4q12 45 28 68q75 88 145 98q34 6 71 -51q54 -80 109 -74q64 9 76 99l-74 -48l17 48z" />
<glyph unicode="s" horiz-adv-x="933" d="M964 189l-18 -11l-46 -11q-13 -170 -109 -256l31 -37l15 -23l-56 51q-89 -73 -246 -80l9 -58l-3 -32l-19 90h-19q-199 0 -279 87l-16 -93l-3 17l9 89q-47 41 -66 98q-39 13 -68 55q-25 19 -42 51l-51 -6l13 6l34 7q-28 54 -30 117q-1 78 40 126l-22 77l17 -32l14 -35 q25 23 51 24q44 0 60 -50q29 39 86 35q16 -1 29 -6l3 2q-73 23 -118 73q-50 42 -66 109l-51 28l-16 19l64 -28q-3 22 -3 47q0 91 63 145l-23 104l13 -25l22 -72q31 23 99 56l-28 26l-20 25l60 -47l16 8q64 29 149 29q18 0 35 -4l28 102l3 -15l-16 -92q18 -6 35 -16 q7 91 95 89q42 -1 75 -30l66 71l-11 -22l-45 -60q3 -4 6 -7q75 -47 76 -205l45 -1l22 -6l-67 -3q-3 -121 -59 -155q22 -13 41 -29l52 42l54 34l-92 -87q116 -105 115 -272q0 -22 -1 -42zM522 611q-7 10 -24.5 28t-51.5 16q-72 -3 -88 -26q-15 -20 14 -22q7 0 22 2h20 q16 0 47 1t45 1h16zM831 257q0 116 -79 207l-32 -31l-41 -6l60 50q-99 99 -233 99q-15 0 -45.5 -1.5t-46.5 -1.5q-75 0 -67 0q-45 4 -50 30q-13 98 129 105q67 4 106 -53q57 -85 100 -80q72 7 83 111l-87 -4l24 23l65 -3q4 54 -3 109t-25 74l-63 -83l-3 38l53 57 q-25 18 -53 19q-45 1 -57 -32q-13 -47 10 -104q-39 45 -89 64l-10 -61l-22 13l15 54q-15 3 -27 3q-51 0 -89 -9q-18 -4 -44 -16l50 -40l-24 -8l-42 41l-23 -12q-31 -12 -93 -51l-1 -2l29 -98l-14 -35l-27 120q-38 -42 -38 -104q0 -32 8 -64l87 -37l19 -39l-98 51 q20 -48 60 -72q48 -28 112 -35l21 35l14 19l-27 -55q20 -1 44 -2q19 0 66 2q35 3 56 1q29 -3 57 -13l11 32l34 31l-29 -69q13 -6 26 -13q83 -47 91 -149l88 16l-21 -28l-66 -6v-17q0 -38 -26 -116q-37 -102 -201 -108q-113 -6 -153 54q-29 39 -24 76q13 -29 46 -29 q48 0 86 58l-17 5l-17 25l41 -16q16 37 9 86q-4 26 -19 33q-10 6 -20 -2q-7 -32 -28 -79q-23 -26 -45 -27q-44 1 -21 47q28 59 4 97q-6 10 -17 19l-23 -47l-41 -22l46 76q-7 3 -13 3q-32 3 -54 -26q-25 -34 -25 -151q-29 26 -39 57q-4 15 3 56.5t3 51.5q-10 19 -25 22 q-22 6 -41 -17l-3 -5l31 -83l-30 30l-11 39q-26 -50 -19 -91q12 -69 35 -101l83 19l45 -18l-120 -13q35 -44 65 -44q13 0 23 11q4 -80 49 -129l7 74l26 19l-17 -106q73 -63 235 -63q20 0 41 1l-16 75l25 -12l7 -63q121 10 193 69l-83 79l48 -9l51 -57q56 51 79 127 q7 26 12 47l-99 -23l13 31l89 13q3 21 3 87zM645 227v14l-83 -7l-16 3l98 18q-6 67 -37 92q-29 19 -67 23l-40 -92l2 23l25 72h-123q-57 0 -109 13l-1 -4q19 -10 31 -29q28 -4 36 -38q12 20 31 20q37 1 57 -37q47 -23 47 -96q0 -26 -7 -53l55 -22h-14l-44 13 q-26 -82 -94 -102q20 -4 45 -4q60 0 114.5 24t68.5 65q25 72 25 104z" />
<glyph unicode="t" horiz-adv-x="716" d="M702 578l-83 -5q-3 -22 -9 -65q-10 -97 -31 -134q-29 -53 -106 -76q-34 -10 -75 -1q-1 -22 -2 -53l90 -25l26 -14l-117 23q-9 -199 12 -287q26 1 46.5 24t16.5 50q-6 42 -6 52q0 35 52 68q32 20 65 20q4 0 10 -1l41 95l-4 -24l-24 -74q31 -9 48 -37q48 -23 49 -88 q0 -104 -50 -184l32 -23l19 -25l-60 36q-85 -121 -243 -123h-25l9 -45l-3 -41l-20 88q-85 10 -123 70q-3 1 -6 4l-72 -127l3 18l57 120q-51 54 -67 237l-102 -12l13 7l88 19q-7 63 -3 157l-100 41l-13 10l114 -34q1 18 5 69q-73 1 -100 56q-50 28 -50 101q0 66 44 90 l-55 117l20 -22l48 -89l18 2q25 0 51 -18q20 -13 32 -9q7 45 6 91q0 35 -7 79l-101 54l-16 18l113 -49q-7 44 -17 137q0 82 43 118l-21 42l-10 31l40 -67q23 18 54 16q34 0 61 -13l18 74v-42l-6 -38q47 -26 75.5 -79.5t26.5 -107.5q-1 -10 -3 -31q29 16 75 16q23 -1 41 -7 l70 77l-10 -22l-47 -63q18 -9 26 -27q47 -19 49 -94q0 -19 -2 -44l60 -1zM630 61q-1 50 -38 56l-19 -61l-36 -27l38 89q-22 -3 -40 -13q-28 -18 -36 -36q4 -20 7 -72q-1 -26 -16 -47q-22 -29 -85 -41q-16 -4 -35 4t-23 20q-9 25 -25 137q-1 44 3 171l-35 8l-24 32l59 -16 q4 101 1 118q44 -34 98 -17q79 23 98 82q12 35 21 123l-70 -3l24 22l47 -2l5 45q7 75 -22 90l-60 -79l-3 38l42 47h-14q-50 0 -68 -22q-12 -15 -10 -74q3 -39 6 -79q4 -50 -5 -57q-13 -12 -32 -11q-26 -1 -60 22q3 99 8 139q9 61 20 169q3 63 -39 107l-22 -126l-18 30 l26 108q-22 16 -46 16q-26 0 -44 -10l51 -85l-31 14l-29 62q-23 -22 -23 -86q7 -50 23 -154l37 -16l19 -40l-53 28q1 -13 1 -22q1 -117 -10 -146q-16 -19 -47 -16q-13 1 -33.5 14.5t-32.5 11.5l34 -63l-10 -28l-40 87q-26 -15 -26 -53q-1 -32 20.5 -61.5t73.5 -29.5 q38 0 63 15q-3 -47 -9 -165l73 -22l-40 -13l-33 14q-3 -89 0 -134l32 7l44 -16l-75 -9q9 -101 22 -149q7 -31 28 -56l31 66l32 7l-50 -86q28 -26 56 -34q18 -4 38 -5l-19 84l23 -11l13 -73h2q91 0 150 44q35 25 58 51l-75 45l48 2l40 -30q28 41 42 129q4 22 4 42z" />
<glyph unicode="u" horiz-adv-x="1002" d="M1037 332l-28 -12l-65 -16q4 -39 4 -79q-1 -206 -117 -317l45 -56l10 -20l-67 66q-64 -56 -184 -75l12 -83l-5 -33l-20 115q-45 -7 -92 -8q-221 0 -338 136l-60 -107l3 18l46 100q-37 37 -51 87q-12 47 -13 119l-89 -10l11 5l78 18q0 44 4 114q4 82 5 114q-37 9 -63 35 q-44 45 -56 129l-58 32l-18 19l75 -32q-1 13 -2 25q1 69 37 111q26 32 57 34q16 1 31 -8q1 10 -5 40q-15 83 46 114l-22 99l16 -26l20 -66q19 6 41 6q75 0 110 -54q25 -12 42 -51q6 0 15 -2l21 73l13 28l-21 -105q23 -12 38 -35q41 -26 41 -97q0 -31 -54 -75.5t-54 -88.5 q0 -22 4.5 -65.5t4.5 -65.5v-60l80 -24l22 -10l-102 21q1 -29 1 -43q0 -13 -4 -64q-3 -44 -2 -69q1 -38 14 -60q13 -7 27 -12l44 97l15 18l-44 -117q20 -3 48 -3q155 0 196 82l-99 -9l-16 4l123 22q18 47 17 126q0 73 -25 132l-50 106q-29 3 -55 25l-37 -117l2 24l22 105 q-7 7 -13 16q-64 48 -65 159q1 101 59 136l-31 107l12 -11l32 -90q9 4 20 6q54 7 66 -39q35 38 87 36h14l29 119l3 -24l-16 -98q35 -7 57 -27q13 -13 27 -41q15 15 43 14q29 -1 47 -35q51 -15 50 -102q0 -104 -83 -142q-18 -10 -38 -12q18 -25 32 -53l61 43l37 14l-92 -71 q31 -66 42 -144zM914 726q1 44 -23 52q-15 6 -29 -6q-6 -4 -8.5 -34t-7.5 -37q-23 -26 -43 -25q-42 0 -20 44q15 31 13 58q-1 45 -43 60l-11 -76l-21 31l13 50q-42 3 -65 -28q-28 -38 -28 -100q0 -22 4 -44q-23 10 -35 49q4 37 4 99q-7 29 -33 25q-7 0 -13 -3l20 -58l-25 16 l-10 33q-37 -31 -34 -120q1 -54 27 -87q10 -16 25 -25l5 25l34 29l-20 -63q31 -9 55 7q13 -79 48 -134q47 -75 47 -183q0 -76 -11 -120l67 12l-31 -27l-42 -4q-32 -83 -116 -107q-57 -15 -123 -15q-35 0 -61 5l-28 -75l-7 41l19 38q-67 19 -90 88q-9 25 -5 100q3 121 3 105 l-43 9l-29 33l72 -22v75q0 18 -4 49t-4 55q-3 75 17 80t61 27q39 31 38 95q-1 35 -25 49l-15 -67l-14 31l13 44q-19 4 -32 -22q-6 -13 -11 -27q-7 -18 -22 -17q0 108 -6.5 124t-35 32t-51.5 16q-16 -1 -29 -5l32 -104l-19 -37l-30 132q-12 -10 -16 -25q-7 -22 -3 -48 q4 -22 9 -44q1 -19 -1 -86q-4 -82 -5 -125q-28 23 -38 53q-3 13 2 44q6 38 6 45q0 31 -25 37q-20 4 -40 -18q-41 -51 -30 -105q3 -13 4 -24l83 -35l19 -41l-95 51q9 -34 34 -64q29 -37 57 -36q13 0 23 10q0 -31 -5 -129q-4 -35 -5 -145l44 9l44 -16l-88 -10q1 -123 45 -176 l43 89l32 8l-63 -110q38 -38 107 -63q89 -34 178 -34q59 0 115 11l-17 80l25 -12l8 -64q89 19 137 57l-69 67l49 -8l36 -44q18 18 32 41q64 104 66 243v33l-77 -19l23 31l54 7q-3 63 -20 119l-63 -52l12 40l45 31q-23 61 -59 106q-7 7 -11 18l-35 -39l-30 -25l59 77 q-7 22 -5 41q7 -15 19 -20l84 109l3 -32l-72 -83q22 -3 45.5 8t48.5 52q17 25 17 69zM319 677l-69 -169l-28 -12l85 171z" />
<glyph unicode="v" horiz-adv-x="833" d="M847 863l-10 -19l-69 -69q38 -60 41 -164q1 -60 -18 -108l55 -52l-28 13l-32 26q-7 -15 -82 -146l42 -2l22 -6l-72 -4q-38 -67 -60 -117q-4 -10 -32 -75l84 -23l21 -9l-109 21q-51 -123 -89 -192l48 -34l26 -32l-80 54q-57 -102 -128 -102q-15 0 -29 3l6 -44l-3 -32 l-16 80q-29 13 -45 44q-29 15 -41 48q-20 60 -63 180l-9 27l-70 -125l3 19l60 126q-61 171 -90 264l-92 -14l13 8l75 17q-13 45 -25 87q-15 50 -38 149l-79 42l-23 21l99 -44q-3 25 -1 44q1 92 77 137l-33 145l16 -25l35 -111q38 19 61 19q53 3 63 -66q13 45 75 47 q6 0 12 -2l27 103v-38l-11 -69q20 -9 35 -34q41 -18 57 -89l51 37l-15 -19l-35 -31q6 -28 6 -60q1 -70 -15 -107q-19 -47 -51 -60q-59 -25 -63 -27q13 -54 40 -113q29 -70 42 -111q38 66 120 215l-109 -11l-15 5l134 23q61 117 68 163q3 26 -17 83t-18 80q0 25 13 41l-35 33 l-32 36l77 -58q22 18 50 19q59 3 107 -57q19 -13 33 -34zM737 657q0 34 -11 74l-49 -49l11 44l32 27q-4 13 -19 43q-13 19 -33.5 32t-51.5 12q-9 0 -16 -3l50 -38l-24 -9l-41 35q-4 -6 -7 -13q-3 -13 16 -54q28 -61 22 -119q-7 -54 -60 -150l66 11l-34 -29l-44 -3l-48 -86 q-54 -104 -138 -244q-16 56 -63 184q-53 120 -67 191q7 19 59 41q25 10 30 15q20 13 31 40q9 19 9 60l-57 -50l4 36l53 38q-1 38 -6 74q-7 51 -25 61h-3l-13 -73l-19 25l15 54q-29 0 -41 -21q-4 -6 -5 -20q0 -13 3 -35q10 -70 -1 -92q-18 -31 -53 -43q-12 53 -12 149 q0 82 -30 81q-20 0 -53 -18l18 -60l-18 -29l-19 78q-57 -37 -50 -103q1 -29 8 -60l49 -20l12 -35l-55 30q18 -92 51 -203l71 16l-5 -25l-60 -7q29 -95 76 -221l23 48l23 -8l-36 -65q60 -159 77 -232q9 -35 44 -44l-22 123l24 -12l14 -114h2q50 0 93 80l-98 65l43 -3l64 -47 q29 54 75 156l-66 12l10 25l63 -18q23 56 75 167l-62 -3l28 27l45 -3q38 64 110 196l-42 35l-12 44l62 -60q9 33 8 92z" />
<glyph unicode="w" horiz-adv-x="1211" d="M1235 528l-53 15q-10 -59 -29 -132l49 25l-26 -22l-28 -18q-35 -123 -106 -324l73 -78l11 -16l-89 82l-1 -4q-29 -80 -59 -169q-13 -44 -55 -58l13 -73l-2 -24l-22 94q-13 -3 -26 -3q-63 0 -104 60q-25 19 -42 47q-32 56 -66 124l-64 -22l-17 2l77 32q-20 44 -52 112 q-23 -59 -82 -182l31 -47l10 -31l-48 66q-20 -42 -39 -75q-54 -88 -115 -87q-67 0 -84 49q-6 1 -11 5l-48 -107l2 22l36 93q-18 18 -25 46q-23 94 -89 269l-6 18l-96 -11l13 6l79 18q-51 136 -75 210l-63 34l-11 10l70 -29q-9 29 -16 56q-9 35 -30 111l-83 -43l-19 -3 l100 63q-10 45 -9 82q0 70 38 111l-85 95l16 -4l82 -79q42 37 91 38q59 0 76 -54q13 34 66 39l-11 128l8 -9l14 -117q38 -1 60 -40q63 -28 65 -162q1 -70 -15 -107q-19 -47 -51 -60q-59 -25 -63 -27q13 -54 39 -113q29 -70 43 -111q38 66 73 134.5t41 137.5l-83 -51l11 14 l73 53v19q0 38 -11 115.5t-11 119.5q0 22 3 41l-60 40l-13 17l76 -41q15 83 84 94l-12 92l10 -13l16 -77q92 3 106 -87q20 32 55 31q29 -1 47 -35q6 -1 12 -6l87 72l-11 -21l-65 -61q22 -25 22 -62q12 6 27 6q15 1 29 -4q38 -12 48 -51q20 83 98 86q38 1 69 -22l45 63l15 14 l-51 -84q9 -7 14 -18q63 -38 65 -136q0 -29 -8 -78l31 -11zM900 427h-5q-75 -7 -112 82q-6 13 -9 34l-44 13l19 1l23 -4q-4 25 -4 53q0 10 1 17q-31 -18 -64 -19q16 -89 67 -219l60 -2l22 -6l-77 -3q25 -60 54 -125q27 58 69 178zM1121 661q-1 67 -28 92l-79 -125l11 54 l58 80q-22 15 -49 15q-28 0 -44 -19q-25 -29 -25 -73q0 -95 -11 -150q-12 3 -23.5 7.5t-26.5 28.5q-7 13 -6 40q0 15 6 56q3 28 -5 51.5t-27 27.5q-20 3 -36.5 -11t-22.5 -55q-13 -80 -4 -133l82 -13l9 -28l-88 25q13 -45 63 -67q3 -1 38 0q23 0 26 -21q-9 -42 -44 -121 q-23 -54 -63 -184q-41 54 -111 234l-96 -5l25 22l65 -1q-13 32 -23 63q-39 111 -48 146q-13 47 -16 104q20 -44 77 -18q20 10 45 48q15 23 17 63l-44 -42l1 36l41 33q-4 18 -20 26q-13 7 -28 -6q-3 -26 -16 -67q-22 -25 -41 -25q-35 1 -16 48q9 22 8 43q-4 69 -65 68l16 -74 l-25 6l-9 67q-45 -10 -57 -78l66 -36l-24 -9l-43 29q-3 -31 0 -67q10 -54 21 -183l65 47l-7 -34l-58 -33q-1 -95 -38 -161q-54 -104 -137 -244q-16 56 -63 184q-53 120 -67 191q7 19 58 41q25 10 31 15q20 13 31 40q20 45 3 158q-9 63 -41 65l8 -68l-14 -35l-8 103 q-23 -3 -32 -19q-7 -10 -1 -55q10 -70 -2 -92q-18 -31 -52 -43q-12 53 -12 149q0 56 -22 72q-6 4 -16 3q-32 0 -72 -28l44 -44l-6 -29l-54 60q-32 -34 -26 -85q3 -29 7 -60l62 38l4 -29l-61 -31q18 -91 52 -202l63 -26l19 -35l-76 41q22 -72 62 -181l45 10l45 -16l-85 -11 q37 -99 97 -280q3 -7 7 -15l24 63l33 29l-47 -105q19 -19 44 -18q48 0 81 56q28 45 55 105l-60 84h27l42 -66q35 86 110 251l108 -243l97 41l-15 -30l-75 -25q34 -73 60 -117q32 -54 79 -56q23 -1 43 15l-28 123l18 42l25 -148l65 195l-65 61l26 8l47 -50l70 196l-75 -47 l13 43l72 35q6 16 19 67q22 85 31 129l-97 28l31 13l69 -25q9 54 9 83z" />
<glyph unicode="x" horiz-adv-x="972" d="M961 936l-13 -20l-78 -75q25 -13 37.5 -43.5t12.5 -82.5q0 -83 -38 -125q-16 -18 -45 -27q-45 -13 -50 -14l32 -47l9 -21l-53 62q-37 -20 -104 -111l97 -22l20 -9l-127 17q-35 -48 -60 -73q48 -31 89 -86l56 88l-4 -21l-41 -80l4 -8q31 -44 67 -133q12 20 35 33l-24 89 l3 17l38 -101q15 4 30 3q37 0 53 -33q44 -18 45 -88q4 -104 -58 -152l45 -57l10 -19l-65 68q-56 -38 -155 -38q-60 0 -93 50l-42 -96l-19 -27l45 138q-37 34 -71 155t-76 165q-31 -39 -94 -117l38 -86l-15 19l-32 55q-45 -56 -80 -96q9 -4 33 -28q10 -13 15 -35l89 -10 l-23 -5h-63v-17q-3 -57 -59.5 -100.5t-116.5 -44.5q-38 -1 -74 15l-13 5l-50 -84l3 19l35 71q-22 10 -51 31q-19 12 -34 35q-29 20 -42 54l-84 -10l35 18l43 10q-3 10 -3 22q-1 54 41 92q3 3 77 61l15 12q-42 29 -50 116l-80 -25h-16l95 41v11.5v19.5v21q0 54 36.5 86.5 t80.5 32.5q53 1 70 -40q39 -15 41 -63q0 -16 -4 -33q31 32 90 99q-76 80 -168 192l-102 -16l-15 1l105 28q-28 25 -55 51q-28 32 -32 69q-7 79 81 120l-11 146l6 -9l17 -133q20 7 40 8q60 1 79 -54q4 -16 14 -49q3 4 3 13t-5 34t-5 40q0 28 17 45l-54 66l-5 20l71 -77 q25 16 51 14q32 -1 53 -33q59 -23 59 -129q1 -102 -72 -146q13 -16 41 -44q29 28 98 104q57 66 53 80q-12 48 -11 102q0 107 59 109l-13 101l10 -13l19 -90q78 -15 89 -57q26 26 62 27q37 -1 54 -28zM879 13q10 70 -6 91q-12 15 -38 6l25 -66l-29 16l-13 41q-9 -4 -15 -10 q-4 -16 -13 -41q-9 -18 -22 -19q-18 -3 -32 23q-13 42 -60 143l-38 -71l-15 29l40 63q-9 15 -19 29q-41 56 -73.5 78t-64.5 44q31 32 59 63l-59 8l21 24l55 -13q32 41 63 83q34 50 73 75l-28 33l17 24l32 -47q7 4 16 6q20 3 57 14q16 10 31 51q6 19 5 56q-1 39 -7 64v2 l-45 -43l3 37l33 28q-9 10 -19 13q-32 10 -48 -22q-4 -9 2 -41q10 -45 7 -63q-6 -29 -28 -22q-15 12 -22 85q-4 64 -35 82q-9 6 -28 15l13 -65l-24 6l-8 57q-31 -10 -32 -63q0 -22 8 -60.5t8 -56.5q0 -25 -69 -101q-97 -108 -121 -130q-18 25 -70 78q-20 19 -62 71 q25 1 46 15q15 7 42 50q16 45 -1 120q-7 29 -28 36q-13 3 -31 -6l38 -41l-25 -1l-28 32l-2 -6q-4 -10 1 -41q12 -51 3 -68q-10 -20 -24 -25t-27 -8q-12 19 -24 55q-4 13 -7 26q-6 19 -22 26q-26 10 -58 -3l5 -54l-13 -35l-6 82q-54 -31 -49 -78q3 -31 35 -61q28 -28 55 -54 l41 10l37 -16l-65 -10q28 -34 44 -51q51 -59 132 -142q-61 -67 -156 -179q-35 0 -52 32q-15 26 -10 50q13 63 12 67q-6 28 -32 30q-22 0 -55 -20t-33 -67v-20v-18l76 34l-15 -32l-61 -21q1 -15 4 -32q15 -75 63 -75q13 0 31 5q-60 -48 -152 -126q-28 -23 -28 -60 q0 -10 1 -19l81 19l39 -26l-112 -13q10 -18 26 -30q35 -23 70 -39q10 -4 18 -7l25 52l32 9l-38 -66h13q73 0 114 45q23 25 32 49l-58 1l11 25l52 -6q1 18 -11.5 33.5t-34.5 10.5q-3 -1 -44 -23q-22 -13 -22 11q0 7 6 15q85 85 163 180l-21 35l18 26l17 -42q25 31 40 53 q12 18 45 55q111 -39 171 -281q13 -50 34 -76l23 72l24 -28l-28 -61q19 -13 42 -13q41 0 84 10q16 3 50 19l-63 66l41 -8l36 -46l6 5q26 25 32 69z" />
<glyph unicode="y" horiz-adv-x="803" d="M863 475l-76 -33q0 -48 -14 -75.5t-107 -259.5l70 31h19l-97 -47q-47 -92 -128 -286l76 -8l-21 -6l-60 3q-28 -91 -95 -267l48 -55l11 -19l-66 61q-6 -15 -13 -26q-31 -56 -95 -95q-72 -44 -148 -43q-19 0 -37 3l18 -120l-3 -21l-34 144q-73 18 -105 71q-53 34 -63 98 q-26 -7 -57 13l-4 3l-47 -82l4 17l32 73q-44 41 -44 119q1 60 30 101t77 32q32 -4 44 -26q9 9 19 14l-32 107l-2 32l47 -133q12 3 25 3q67 0 85 -57q4 -13 6 -25q13 35 58 37q41 1 53 -41q29 80 41 152q-7 25 -31 76l-109 -35l-18 1l121 50q-41 88 -121 277l-113 -15l21 10 l85 19l-9 24q-48 120 -70 212l-66 35l-12 12l75 -31q-13 57 -15 101q0 63 25 95q15 18 31 28l-25 95l14 -16l22 -72q19 9 37 10q56 0 86 -32q22 -25 27 -44q20 47 68 47q29 0 49 -15l30 91v-32l-22 -69q6 -7 8 -16q32 -13 41 -44q22 -82 22 -137q-1 -88 -49 -120 q-29 -13 -65 -35q15 -39 61 -141q7 -16 22 -47q67 117 110 208l-56 116l15 -17l48 -81q44 97 48 143q1 25 -21.5 76t-22.5 75q1 35 34 54q18 12 44 11q7 0 16 -1l26 101l3 -32l-13 -73q48 -16 72 -55q20 -13 35 -30l88 70l-14 -21l-65 -64q39 -64 42 -173l53 20zM718 474 q-1 60 -16 111l-44 -41l3 37l34 28q-18 48 -44 67q-15 10 -28 14l-12 -65l-17 30l10 38h-7q-37 0 -43 -27q-3 -12 18 -47q29 -54 26 -106q-4 -61 -61 -177l22 -36l-5 -45l-29 60q-9 -20 -23 -49q-78 -152 -123 -216q-51 107 -135 327q6 18 51 40q29 15 31 16q20 13 28 38 q10 31 -3 126q-3 23 -7 39l-25 -82l-28 -27l45 130q-10 19 -30 19q-28 0 -38 -21q-15 -29 -11 -49t11 -60q0 -16 -5 -27q-13 -26 -49 -41q-13 48 -19 133q-3 61 -37 79q-19 10 -38 11q-12 -1 -25 -8l29 -93l-14 -21l-28 107q-12 -10 -18 -20q-22 -39 -11 -107q6 -35 17 -78 l62 -25l19 -36l-75 39q29 -97 72 -203l58 13l22 -22l-73 -9q15 -35 31 -71q29 -61 89 -196l53 23l-15 -32l-31 -10q22 -50 33 -85q-9 -56 -53 -192q-66 -152 -139 -140q-35 6 -26 51q10 -18 29 -18q13 1 36 9q23 13 36.5 37.5t13.5 50.5q-1 39 -19 48q-15 6 -26 -4 q-4 -22 -21 -56q-22 -19 -39 -19q-26 0 -19 36t-0.5 59.5t-39.5 30.5q-15 3 -25 2l31 -91l-25 9l-22 76q-13 -9 -22 -24q-16 -25 -16 -102q-12 9 -25 42q-3 10 3 40.5t2 38.5q-7 13 -21 16q-20 3 -36 -13q-31 -31 -31 -85t23 -80l3 -3l15 37l32 8l-33 -58q39 -31 68 -6 q10 -123 126 -143l-17 80l35 -36l7 -47h12q67 -1 130 36q56 35 82 82q9 18 17 32l-36 35l-3 40l48 -54q28 56 72 203l-84 2l21 27l70 -8q15 47 32 99q10 28 62 119l-72 -35l35 42l51 20q25 48 47 103q20 64 94 237l-65 -29l14 29l62 23q9 22 9 50z" />
<glyph unicode="z" horiz-adv-x="1050" d="M1027 208q-1 -69 -42 -125q-42 -60 -87 -68q0 -23 -4 -43l89 -36l26 -18l-118 37q-28 -107 -160 -106l59 -64l9 -19l-90 83q-18 1 -36 5q-54 13 -222 29h-63l-11 -76l-11 -40l8 116q-178 0 -239 15l-68 -112l3 25l46 92q-37 15 -59 53q-48 25 -48 81q1 47 54 106l-41 110 l16 -22l37 -74q38 34 99 95q28 29 82 96l-73 40l-26 19l109 -46q73 91 164 163l-17 39l-11 37l40 -68q39 31 102 81q-6 0 -31.5 6t-38.5 6q-80 6 -151 -79t-124 -84q-38 0 -66 27l-28 -85l2 23l16 72q-6 6 -10 13q-73 47 -72 190q0 53 12 98l-46 56l-17 28l69 -68 q31 89 117 91q7 0 14 -1l46 131l-2 -33l-29 -101q60 -16 64 -87q35 19 66 31l-57 44l-13 17l86 -55q37 10 70 10q37 1 91 -15q63 -16 88 -19l-15 122l9 -12l23 -110q61 10 185 17q41 -3 64 -22l69 55l-13 -20l-47 -46q4 -6 9 -11q50 -25 49 -106q0 -44 -38 -95l44 -9l24 -13 l-78 11q-45 -57 -154 -141q-130 -99 -147 -118q26 7 46 -11q12 -10 20 -30q1 26 19 55q28 48 81 49q15 0 30 -5l61 117l16 12l-63 -136q18 -9 31 -24q3 9 15 27q20 23 51 22q28 -1 53 -28l30 74v-21l-19 -66v0q73 -42 72 -158zM957 240q7 35 -15 80l-22 -82l-20 27l29 77 q-20 31 -45 25q-15 -3 -24 -22q-6 -10 1.5 -51.5t3.5 -56.5q-10 -31 -40 -57q0 117 -22 148q-12 18 -22 23l-41 -91l-3 49l25 48q-6 1 -14 0q-32 -3 -50 -29q-22 -38 6 -97q22 -45 -22 -47q-20 0 -44 27q-9 35 -28 79q-12 9 -20 3q-15 -7 -19 -34q-6 -35 2 -70l47 20 l-14 -31l-25 -8q25 -45 51 -57q22 -10 39 -11q32 0 46 28q6 -99 -63 -99q-23 0 -76.5 16.5t-78.5 16.5h-151q-79 3 -70 41q12 50 126 155q39 37 80 87q37 44 59 63q73 54 184 143q18 16 53 50l-78 10l25 22l72 -15q64 66 64 111q0 37 -15 56l-79 -76l3 38l63 50 q-13 9 -32 13q-23 4 -85 -6q-70 -12 -93 -12l10 -42l-25 4l-6 40q-22 1 -88 17q-57 15 -90 14q-16 0 -32 -3l59 -40l-23 -9l-58 44q-98 -23 -153 -83q25 57 11 104q-6 20 -34 29l-23 -82l-27 -12l32 97q-34 0 -61 -24q-22 -18 -31 -60l63 -61l-11 -29l-55 66q-10 -72 2 -148 q10 -57 47 -76l11 61l35 29l-30 -96q9 -1 17 -2q44 -1 100 79q20 32 70 58q56 31 105 26q7 0 58.5 -11t86.5 -11q50 0 91 19q-32 -50 -215 -190l44 -73l-22 -24l-38 85q-35 -28 -122 -113q-13 -16 -25 -29l65 -28v-30l-78 42q-20 -29 -85 -104q-39 -35 -109 -105l23 -51 l-12 -30l-24 66q-31 -37 -31 -71q1 -35 42 -63q13 -9 54 -13l22 45l43 12l-37 -60q23 -1 209 -5l8 85l19 -16l-9 -69h19q75 -1 209 -28l-47 44l50 -8l37 -40q126 -12 152 57l-66 19l15 26l55 -23q10 50 3 94q12 -10 25 -11q32 0 72 56q23 31 35 101zM664 67q-85 7 -117 91 l-117 -38l-16 1l129 55q-9 28 -8 57q0 28 8 51q-41 -48 -81 -85q-67 -61 -96 -102q69 4 199 -9q76 -22 89 -22q7 0 10 1z" />
<glyph unicode="&#xa0;" />
<glyph unicode="&#xa1;" horiz-adv-x="669" d="M606 1197l-34 -24l-73 -32q18 -42 0 -111q-23 -97 -130 -129l45 -67l12 -32l-76 93q-35 -7 -74 -7q-89 1 -117 51q-51 29 -55 95q-1 37 13 76l-73 -7l-29 4l109 21q60 130 186 130q107 0 139 -64q26 -13 41 -37zM731 118l-102 -5q3 -20 3 -38q0 -94 -76 -129l-62 -26 q-38 -18 -52 -38q6 -35 16 -109l82 -23l28 -18l-109 18l2 -18q1 -35 -10 -109t-9 -91q0 -7 9 -64l79 -79l24 -43l-99 89q9 -60 6 -73q-15 -80 -125 -89q-95 -7 -125 38l-27 -83l3 29l15 70q-51 26 -54 111q0 29 4 65q9 45 21 139l-147 -16l24 14l124 24q1 10 0 20 q-4 133 -10 363l-116 61l-20 24l136 -59q-1 39 -2 69q-67 29 -108 92.5t-39 134.5q1 78 52 136l-36 164l20 -33l34 -115q38 35 70 38q1 111 38 155l-42 83l-9 40l66 -107q28 25 67 25q64 3 111 -59q25 -9 46 -32l93 108l-26 -45l-59 -77q38 -59 40 -167q0 6 -2 -85 q12 0 24 -3l30 107l5 -34l-16 -79q28 -12 42 -39q48 -18 59 -93q3 -64 6 -130l76 -1zM424 1135q-7 78 -85 79q-76 1 -125 -36q-15 -12 -34 -40l111 21l-26 -36l-98 -8q-18 -31 -18 -72q0 -78 88 -79q29 0 53 4l-41 50l38 6l32 -50q80 23 99 104q4 18 6 31l-74 -32l-25 23z M544 110l-99 -5l30 28l69 -3q-1 16 -7 69q-6 41 -5 60q6 69 -21 86l-25 -121l-21 45l25 84q-6 1 -10 1q-48 1 -56 -82q-1 -15 3 -48q6 -38 6 -51q0 -18 -4 -28q-20 -35 -72 -54q0 45 23 232q12 99 12 204q0 28 -4 54l-97 -129l-4 47l96 110q-4 18 -11 32q-31 72 -85 70 q-32 -1 -56 -22l57 -94l-38 8l-33 66q-25 -42 -18 -120q6 -57 6 -273q-39 37 -43 94q-1 22 16 61t15 50q-6 23 -20 28q-32 12 -75 -36l28 -97l-21 -40l-26 115q-25 -38 -23 -69q1 -64 40.5 -127t109.5 -82q0 -22 3 -119l59 -25l23 -49l-82 42q1 -35 2 -56q0 -51 3 -147 q4 -101 4 -147l19 3l56 -20l-75 -9q-3 -34 -16 -110q-12 -63 -10 -96q1 -38 20 -63l21 96l42 38l-48 -150q18 -15 41 -13q89 1 104 81q3 15 -11 90l-55 51l3 38l46 -47q-3 13 -2 21q-1 18 7 74q10 69 12 107l-69 12l-41 52l110 -30q-7 54 -18 140q15 28 86 70q28 12 56 24.5 t41 43.5q6 13 7 35z" />
<glyph unicode="&#x2000;" horiz-adv-x="886" />
<glyph unicode="&#x2001;" horiz-adv-x="1773" />
<glyph unicode="&#x2002;" horiz-adv-x="886" />
<glyph unicode="&#x2003;" horiz-adv-x="1773" />
<glyph unicode="&#x2004;" horiz-adv-x="591" />
<glyph unicode="&#x2005;" horiz-adv-x="443" />
<glyph unicode="&#x2006;" horiz-adv-x="295" />
<glyph unicode="&#x2007;" horiz-adv-x="295" />
<glyph unicode="&#x2008;" horiz-adv-x="221" />
<glyph unicode="&#x2009;" horiz-adv-x="354" />
<glyph unicode="&#x200a;" horiz-adv-x="98" />
<glyph unicode="&#x202f;" horiz-adv-x="354" />
<glyph unicode="&#x205f;" horiz-adv-x="443" />
<glyph unicode="&#xe000;" horiz-adv-x="1016" d="M0 1017h1017v-1017h-1017v1017z" />
</font>
</defs>
</svg>
